<?xml version="1.0" encoding="utf-8"?>
<!-- Generator: Adobe Illustrator 24.1.1, SVG Export Plug-In . SVG Version: 6.00 Build 0)  -->
<svg version="1.1" id="Capa_1" xmlns="http://www.w3.org/2000/svg" xmlns:xlink="http://www.w3.org/1999/xlink" x="0px" y="0px"
	 viewBox="0 0 1920 1080" style="enable-background:new 0 0 1920 1080;" xml:space="preserve">
<style type="text/css">
	.st0{fill-rule:evenodd;clip-rule:evenodd;fill:#FFB600;}
	.st1{fill:#919191;}
	.st2{fill:#FFFFFF;}
	.st3{fill:none;}
	.st4{font-family:'Montserrat-Regular';}
	.st5{font-size:44.0422px;}
	.st6{fill:#FFB600;}
	.st7{font-size:23px;}
	.st8{fill:none;stroke:#000000;stroke-miterlimit:10;}
	.st9{font-size:17px;}
</style>
<g>
	<g>
		<rect x="646" y="513.24" class="st0" width="161.88" height="15.42"/>
	</g>
	<g>
		<polygon class="st0" points="820.37,511.95 808,502.73 808,521.18 808,539.64 820.37,530.41 832.75,521.18 		"/>
	</g>
</g>
<g>
	<g>
		<path class="st1" d="M750,374.17h-12v1h12V374.17L750,374.17z M726,374.17h-12v1h12V374.17L726,374.17z M702,374.17h-12v1h12
			V374.17L702,374.17z M678,374.17h-12v1h12V374.17L678,374.17z M654,374.17h-12v1h12V374.17L654,374.17z M630,374.17h-12v1h12
			V374.17L630,374.17z M606,374.17h-12v1h12V374.17L606,374.17z M582,374.17h-12v1h12V374.17L582,374.17z M558,374.17h-12v1h12
			V374.17L558,374.17z M534,374.17h-12v1h12V374.17L534,374.17z M510,374.17h-12v1h12V374.17L510,374.17z M486,374.17h-12v1h12
			V374.17L486,374.17z M462,374.17h-12v1h12V374.17L462,374.17z M438,374.17h-12v1h12V374.17L438,374.17z M414,374.17h-12v1h12
			V374.17L414,374.17z M390,374.17h-12v1h12V374.17L390,374.17z M366,374.17h-12v1h12V374.17L366,374.17z M342,374.17h-12v1h12
			V374.17L342,374.17z M318,374.17h-12v1h12V374.17L318,374.17z M294,374.17h-12v1h12V374.17L294,374.17z M270,374.17h-12v1h12
			V374.17L270,374.17z M246,374.17h-12v1h12V374.17L246,374.17z M222,374.17h-12v1h12V374.17L222,374.17z M198,374.17h-12v1h12
			V374.17L198,374.17z M174,374.17h-12v1h12V374.17L174,374.17z M157.14,380.31h-1v12h1V380.31L157.14,380.31z M157.14,404.31h-1v12
			h1V404.31L157.14,404.31z M157.14,428.31h-1v12h1V428.31L157.14,428.31z M157.14,452.31h-1v12h1V452.31L157.14,452.31z
			 M157.14,476.31h-1v12h1V476.31L157.14,476.31z M157.14,500.31h-1v12h1V500.31L157.14,500.31z M157.14,524.31h-1v12h1V524.31
			L157.14,524.31z M157.14,548.31h-1v12h1V548.31L157.14,548.31z M157.14,572.31h-1v12h1V572.31L157.14,572.31z M157.14,596.31h-1
			v12h1V596.31L157.14,596.31z M157.14,620.31h-1v12h1V620.31L157.14,620.31z M157.14,644.31h-1v12h1V644.31L157.14,644.31z
			 M168.19,667.26h-12v1h12V667.26L168.19,667.26z M192.19,667.26h-12v1h12V667.26L192.19,667.26z M216.19,667.26h-12v1h12V667.26
			L216.19,667.26z M240.19,667.26h-12v1h12V667.26L240.19,667.26z M264.19,667.26h-12v1h12V667.26L264.19,667.26z M288.19,667.26
			h-12v1h12V667.26L288.19,667.26z M312.19,667.26h-12v1h12V667.26L312.19,667.26z M336.19,667.26h-12v1h12V667.26L336.19,667.26z
			 M360.19,667.26h-12v1h12V667.26L360.19,667.26z M384.19,667.26h-12v1h12V667.26L384.19,667.26z M408.19,667.26h-12v1h12V667.26
			L408.19,667.26z M432.19,667.26h-12v1h12V667.26L432.19,667.26z M456.19,667.26h-12v1h12V667.26L456.19,667.26z M480.19,667.26
			h-12v1h12V667.26L480.19,667.26z M504.19,667.26h-12v1h12V667.26L504.19,667.26z M528.19,667.26h-12v1h12V667.26L528.19,667.26z
			 M552.19,667.26h-12v1h12V667.26L552.19,667.26z M576.19,667.26h-12v1h12V667.26L576.19,667.26z M600.19,667.26h-12v1h12V667.26
			L600.19,667.26z M624.19,667.26h-12v1h12V667.26L624.19,667.26z M648.19,667.26h-12v1h12V667.26L648.19,667.26z M672.19,667.26
			h-12v1h12V667.26L672.19,667.26z M696.19,667.26h-12v1h12V667.26L696.19,667.26z M720.19,667.26h-12v1h12V667.26L720.19,667.26z
			 M744.19,667.26h-12v1h12V667.26L744.19,667.26z M750,650.07h-1v12h1V650.07L750,650.07z M750,626.07h-1v12h1V626.07L750,626.07z
			 M750,602.07h-1v12h1V602.07L750,602.07z M750,578.07h-1v12h1V578.07L750,578.07z M750,554.07h-1v12h1V554.07L750,554.07z
			 M750,530.07h-1v12h1V530.07L750,530.07z M750,506.07h-1v12h1V506.07L750,506.07z M750,482.07h-1v12h1V482.07L750,482.07z
			 M750,458.07h-1v12h1V458.07L750,458.07z M750,434.07h-1v12h1V434.07L750,434.07z M750,410.07h-1v12h1V410.07L750,410.07z
			 M750,386.07h-1v12h1V386.07L750,386.07z"/>
	</g>
	<rect x="354" y="341" class="st2" width="196" height="51"/>
	<g>
		<g>
			<rect x="416" y="513.24" class="st0" width="46.88" height="15"/>
		</g>
		<g>
			<polygon class="st0" points="475.37,511.95 463,502.73 463,521.18 463,539.64 475.37,530.41 487.75,521.18 			"/>
		</g>
	</g>
	<rect x="155.67" y="349.07" class="st3" width="594.33" height="42.62"/>
	<text transform="matrix(1 0 0 1 362.5474 381.7529)" class="st4 st5">4 weeks</text>
	<g>
		<g>
			<rect x="203.02" y="415.37" class="st6" width="211.69" height="211.69"/>
		</g>
		<rect x="211.73" y="444.9" class="st3" width="194.27" height="146.1"/>
		<text transform="matrix(1 0 0 1 308.8672 461.9629)"><tspan x="0" y="0" class="st4 st7"> </tspan><tspan x="-82.57" y="27.6" class="st4 st7">Programs and </tspan><tspan x="-87.51" y="55.2" class="st4 st7">Platforms send </tspan><tspan x="-90.76" y="82.8" class="st4 st7">the information </tspan><tspan x="-32.79" y="110.4" class="st4 st7">to QA</tspan></text>
	</g>
	<g>
		<g>
			<rect x="488.59" y="415.37" class="st6" width="211.69" height="211.69"/>
		</g>
		<rect x="497.73" y="458.9" class="st3" width="194.27" height="146.1"/>
		<text transform="matrix(1 0 0 1 594.8672 475.9629)"><tspan x="0" y="0" class="st4 st7"> </tspan><tspan x="-84.5" y="27.6" class="st4 st7">Assessors start </tspan><tspan x="-92.34" y="55.2" class="st4 st7">with the Quality </tspan><tspan x="-69.29" y="82.8" class="st4 st7">Assessment </tspan></text>
	</g>
</g>
<g>
	<g>
		<rect x="1330" y="511.24" class="st0" width="161.88" height="15.42"/>
	</g>
	<g>
		<polygon class="st0" points="1504.37,509.95 1492,500.73 1492,519.18 1492,537.64 1504.37,528.41 1516.75,519.18 		"/>
	</g>
</g>
<g>
	<g>
		<rect x="1517.02" y="412.37" class="st6" width="211.69" height="211.69"/>
	</g>
	<rect x="1525.73" y="471.9" class="st3" width="194.27" height="146.1"/>
	<text transform="matrix(1 0 0 1 1569.4624 516.5625)"><tspan x="0" y="0" class="st4 st7">APR final </tspan><tspan x="-7.42" y="27.6" class="st4 st7">document</tspan></text>
</g>
<g>
	<g>
		<path class="st1" d="M1380,373.17h-12v1h12V373.17L1380,373.17z M1356,373.17h-12v1h12V373.17L1356,373.17z M1332,373.17h-12v1h12
			V373.17L1332,373.17z M1308,373.17h-12v1h12V373.17L1308,373.17z M1284,373.17h-12v1h12V373.17L1284,373.17z M1260,373.17h-12v1
			h12V373.17L1260,373.17z M1236,373.17h-12v1h12V373.17L1236,373.17z M1212,373.17h-12v1h12V373.17L1212,373.17z M1188,373.17h-12
			v1h12V373.17L1188,373.17z M1164,373.17h-12v1h12V373.17L1164,373.17z M1140,373.17h-12v1h12V373.17L1140,373.17z M1116,373.17
			h-12v1h12V373.17L1116,373.17z M1092,373.17h-12v1h12V373.17L1092,373.17z M1068,373.17h-12v1h12V373.17L1068,373.17z
			 M1044,373.17h-12v1h12V373.17L1044,373.17z M1020,373.17h-12v1h12V373.17L1020,373.17z M996,373.17h-12v1h12V373.17L996,373.17z
			 M972,373.17h-12v1h12V373.17L972,373.17z M948,373.17h-12v1h12V373.17L948,373.17z M924,373.17h-12v1h12V373.17L924,373.17z
			 M900,373.17h-12v1h12V373.17L900,373.17z M876,373.17h-12v1h12V373.17L876,373.17z M852,373.17h-12v1h12V373.17L852,373.17z
			 M828,373.17h-12v1h12V373.17L828,373.17z M804,373.17h-12v1h12V373.17L804,373.17z M787.14,379.31h-1v12h1V379.31L787.14,379.31z
			 M787.14,403.31h-1v12h1V403.31L787.14,403.31z M787.14,427.31h-1v12h1V427.31L787.14,427.31z M787.14,451.31h-1v12h1V451.31
			L787.14,451.31z M787.14,475.31h-1v12h1V475.31L787.14,475.31z M787.14,499.31h-1v12h1V499.31L787.14,499.31z M787.14,523.31h-1
			v12h1V523.31L787.14,523.31z M787.14,547.31h-1v12h1V547.31L787.14,547.31z M787.14,571.31h-1v12h1V571.31L787.14,571.31z
			 M787.14,595.31h-1v12h1V595.31L787.14,595.31z M787.14,619.31h-1v12h1V619.31L787.14,619.31z M787.14,643.31h-1v12h1V643.31
			L787.14,643.31z M798.19,666.26h-12v1h12V666.26L798.19,666.26z M822.19,666.26h-12v1h12V666.26L822.19,666.26z M846.19,666.26
			h-12v1h12V666.26L846.19,666.26z M870.19,666.26h-12v1h12V666.26L870.19,666.26z M894.19,666.26h-12v1h12V666.26L894.19,666.26z
			 M918.19,666.26h-12v1h12V666.26L918.19,666.26z M942.19,666.26h-12v1h12V666.26L942.19,666.26z M966.19,666.26h-12v1h12V666.26
			L966.19,666.26z M990.19,666.26h-12v1h12V666.26L990.19,666.26z M1014.19,666.26h-12v1h12V666.26L1014.19,666.26z M1038.19,666.26
			h-12v1h12V666.26L1038.19,666.26z M1062.19,666.26h-12v1h12V666.26L1062.19,666.26z M1086.19,666.26h-12v1h12V666.26
			L1086.19,666.26z M1110.19,666.26h-12v1h12V666.26L1110.19,666.26z M1134.19,666.26h-12v1h12V666.26L1134.19,666.26z
			 M1158.19,666.26h-12v1h12V666.26L1158.19,666.26z M1182.19,666.26h-12v1h12V666.26L1182.19,666.26z M1206.19,666.26h-12v1h12
			V666.26L1206.19,666.26z M1230.19,666.26h-12v1h12V666.26L1230.19,666.26z M1254.19,666.26h-12v1h12V666.26L1254.19,666.26z
			 M1278.19,666.26h-12v1h12V666.26L1278.19,666.26z M1302.19,666.26h-12v1h12V666.26L1302.19,666.26z M1326.19,666.26h-12v1h12
			V666.26L1326.19,666.26z M1350.19,666.26h-12v1h12V666.26L1350.19,666.26z M1374.19,666.26h-12v1h12V666.26L1374.19,666.26z
			 M1380,649.07h-1v12h1V649.07L1380,649.07z M1380,625.07h-1v12h1V625.07L1380,625.07z M1380,601.07h-1v12h1V601.07L1380,601.07z
			 M1380,577.07h-1v12h1V577.07L1380,577.07z M1380,553.07h-1v12h1V553.07L1380,553.07z M1380,529.07h-1v12h1V529.07L1380,529.07z
			 M1380,505.07h-1v12h1V505.07L1380,505.07z M1380,481.07h-1v12h1V481.07L1380,481.07z M1380,457.07h-1v12h1V457.07L1380,457.07z
			 M1380,433.07h-1v12h1V433.07L1380,433.07z M1380,409.07h-1v12h1V409.07L1380,409.07z M1380,385.07h-1v12h1V385.07L1380,385.07z"
			/>
	</g>
	<rect x="984" y="340" class="st2" width="196" height="51"/>
	<g>
		<g>
			<rect x="1046" y="512.24" class="st0" width="46.88" height="15"/>
		</g>
		<g>
			<polygon class="st0" points="1105.37,510.95 1093,501.73 1093,520.18 1093,538.64 1105.37,529.41 1117.75,520.18 			"/>
		</g>
	</g>
	<rect x="785.67" y="348.07" class="st3" width="594.33" height="42.62"/>
	<text transform="matrix(1 0 0 1 994.5952 380.7529)" class="st4 st5">2 weeks</text>
	<g>
		<g>
			<rect x="833.02" y="414.37" class="st6" width="211.69" height="211.69"/>
		</g>
		<rect x="841.73" y="443.9" class="st3" width="194.27" height="146.1"/>
		<text transform="matrix(1 0 0 1 938.8672 460.9629)"><tspan x="0" y="0" class="st4 st7"> </tspan><tspan x="-82.57" y="27.6" class="st4 st7">Programs and </tspan><tspan x="-88.04" y="55.2" class="st4 st7">Platforms reply </tspan><tspan x="-88.49" y="82.8" class="st4 st7">to the QA com</tspan><tspan x="79.71" y="82.8" class="st4 st7">-</tspan><tspan x="-37.22" y="110.4" class="st4 st7">ments</tspan></text>
	</g>
	<g>
		<g>
			<rect x="1118.59" y="414.37" class="st6" width="211.69" height="211.69"/>
		</g>
		<rect x="1127.73" y="467.9" class="st3" width="194.27" height="146.1"/>
		<text transform="matrix(1 0 0 1 1136.2153 512.5625)"><tspan x="0" y="0" class="st4 st7">APR document </tspan><tspan x="60.89" y="27.6" class="st4 st7">draft</tspan></text>
	</g>
</g>
<g>
	<g>
		<path class="st6" d="M753.67,694.5c1.93,0,1.93-3,0-3C751.74,691.5,751.73,694.5,753.67,694.5L753.67,694.5z"/>
	</g>
</g>
<line class="st8" x1="1117.5" y1="652.5" x2="1117.5" y2="635.5"/>
<line class="st8" x1="1728.5" y1="653" x2="1728.5" y2="636"/>
<g>
	<line class="st8" x1="1119" y1="653" x2="1729" y2="653"/>
	<g>
		<rect x="1310" y="630" class="st2" width="194" height="34"/>
	</g>
	<rect x="1300.67" y="642.33" class="st3" width="212" height="21.67"/>
	<text transform="matrix(1 0 0 1 1313.126 654.9468)" class="st4 st9">Reviewed by the SMO</text>
</g>
</svg>
