<?xml version="1.0" encoding="utf-8"?>
<!-- Generator: Adobe Illustrator 24.1.1, SVG Export Plug-In . SVG Version: 6.00 Build 0)  -->
<svg version="1.1" id="Capa_1" xmlns="http://www.w3.org/2000/svg" xmlns:xlink="http://www.w3.org/1999/xlink" x="0px" y="0px"
	 viewBox="0 0 2500 1080" style="enable-background:new 0 0 2500 1080;" xml:space="preserve">
<style type="text/css">
	.st0{fill:#919191;}
	.st1{fill:#FFFFFF;}
	.st2{fill:#FFB600;}
	.st3{fill-rule:evenodd;clip-rule:evenodd;fill:#FFB600;}
	.st4{fill:none;stroke:#000000;stroke-miterlimit:10;}
</style>
<g>
	<path class="st0" d="M955,415.1h-12v1h12V415.1L955,415.1z M931,415.1h-12v1h12V415.1L931,415.1z M907,415.1h-12v1h12V415.1
		L907,415.1z M883,415.1h-12v1h12V415.1L883,415.1z M859,415.1h-12v1h12V415.1L859,415.1z M835,415.1h-12v1h12V415.1L835,415.1z
		 M811,415.1h-12v1h12V415.1L811,415.1z M787,415.1h-12v1h12V415.1L787,415.1z M763,415.1h-12v1h12V415.1L763,415.1z M739,415.1h-12
		v1h12V415.1L739,415.1z M715,415.1h-12v1h12V415.1L715,415.1z M691,415.1h-12v1h12V415.1L691,415.1z M667,415.1h-12v1h12V415.1
		L667,415.1z M643,415.1h-12v1h12V415.1L643,415.1z M619,415.1h-12v1h12V415.1L619,415.1z M595,415.1h-12v1h12V415.1L595,415.1z
		 M571,415.1h-12v1h12V415.1L571,415.1z M547,415.1h-12v1h12V415.1L547,415.1z M523,415.1h-12v1h12V415.1L523,415.1z M499,415.1h-12
		v1h12V415.1L499,415.1z M475,415.1h-12v1h12V415.1L475,415.1z M451,415.1h-12v1h12V415.1L451,415.1z M427,415.1h-12v1h12V415.1
		L427,415.1z M403,415.1h-12v1h12V415.1L403,415.1z M379,415.1h-12v1h12V415.1L379,415.1z M355,415.1h-12v1h12V415.1L355,415.1z
		 M331,415.1h-12v1h12V415.1L331,415.1z M307,415.1h-12v1h12V415.1L307,415.1z M283,415.1h-12v1h12V415.1L283,415.1z M259,415.1h-12
		v1h12V415.1L259,415.1z M235,415.1h-12v1h12V415.1L235,415.1z M211,415.1h-12v1h12V415.1L211,415.1z M187,415.1h-12v1h12V415.1
		L187,415.1z M163,415.1h-12v1h12V415.1L163,415.1z M139,415.1h-12v1h12V415.1L139,415.1z M115,415.1h-12v1h12V415.1L115,415.1z
		 M91,415.1H79v1h12V415.1L91,415.1z M67,415.1h-3v1l0,0c0,2.3,0,8,0,8h1v-8h2V415.1L67,415.1z M65,436.1h-1v12h1V436.1L65,436.1z
		 M65,460.1h-1v12h1V460.1L65,460.1z M65,484.1h-1v12h1V484.1L65,484.1z M65,508.1h-1v12h1V508.1L65,508.1z M65,532.1h-1v12h1V532.1
		L65,532.1z M65,556.1h-1v12h1V556.1L65,556.1z M65,580.1h-1v12h1V580.1L65,580.1z M65,604.1h-1v12h1V604.1L65,604.1z M65,628.1h-1
		v12h1V628.1L65,628.1z M65,652.1h-1v2.9h1l0,0l0,0l0,0l0,0c2.4,0,8.1,0,8.1,0v-1H65V652.1L65,652.1z M97,654H85v1h12V654L97,654z
		 M121,654h-12v1h12V654L121,654z M145,654h-12v1h12V654L145,654z M169,654h-12v1h12V654L169,654z M193,654h-12v1h12V654L193,654z
		 M217,654h-12v1h12V654L217,654z M241,654h-12v1h12V654L241,654z M265,654h-12v1h12V654L265,654z M289,654h-12v1h12V654L289,654z
		 M313,654h-12v1h12V654L313,654z M337,654h-12v1h12V654L337,654z M361,654h-12v1h12V654L361,654z M385,654h-12v1h12V654L385,654z
		 M409,654h-12v1h12V654L409,654z M433,654h-12v1h12V654L433,654z M457,654h-12v1h12V654L457,654z M481,654h-12v1h12V654L481,654z
		 M505,654h-12v1h12V654L505,654z M529,654h-12v1h12V654L529,654z M553,654h-12v1h12V654L553,654z M577,654h-12v1h12V654L577,654z
		 M601,654h-12v1h12V654L601,654z M625,654h-12v1h12V654L625,654z M649,654h-12v1h12V654L649,654z M673,654h-12v1h12V654L673,654z
		 M697,654h-12v1h12V654L697,654z M721,654h-12v1h12V654L721,654z M745,654h-12v1h12V654L745,654z M769,654h-12v1h12V654L769,654z
		 M793,654h-12v1h12V654L793,654z M817,654h-12v1h12V654L817,654z M841,654h-12v1h12V654L841,654z M865,654h-12v1h12V654L865,654z
		 M889,654h-12v1h12V654L889,654z M913,654h-12v1h12V654L913,654z M937,654h-12v1h12V654L937,654z M961,654h-12v1h12V654L961,654z
		 M979,649h-1v5h-5v1h6V649L979,649z M979,625h-1v12h1V625L979,625z M979,601h-1v12h1V601L979,601z M979,577h-1v12h1V577L979,577z
		 M979,553h-1v12h1V553L979,553z M979,529h-1v12h1V529L979,529z M979,505h-1v12h1V505L979,505z M979,481h-1v12h1V481L979,481z
		 M979,457h-1v12h1V457L979,457z M979,433h-1v12h1V433L979,433z M979,415.1h-12v1h11v4.8h1V415.1L979,415.1z"/>
</g>
<rect x="412" y="382" class="st1" width="218" height="51"/>
<g>
	<rect x="112" y="470.4" class="st2" width="370" height="121.6"/>
</g>
<g>
	<g>
		<rect x="484" y="523.2" class="st3" width="46.9" height="15"/>
	</g>
	<g>
		<polygon class="st3" points="543.4,522 531,512.7 531,531.2 531,549.6 543.4,540.4 555.7,531.2 		"/>
	</g>
</g>
<g>
	<path d="M459.1,415.2h-5.9v7.6H449v-7.6h-17.1v-3.1l15.8-20.2h4.8l-15.1,19.5h11.8v-6.7h4.1v6.7h5.9V415.2z"/>
	<path d="M510.8,399.4l-8.7,23.3h-4.1l-6.7-17.7l-6.8,17.7h-4.1l-8.7-23.3h4l6.8,18.6l7-18.6h3.6l6.9,18.7l7-18.7H510.8z"/>
	<path d="M535.5,412.5h-18.9c0.3,2.1,1.2,3.7,2.7,5c1.5,1.2,3.5,1.9,5.7,1.9c2.8,0,5-0.9,6.7-2.8l2.3,2.7c-1.1,1.2-2.4,2.2-3.9,2.8
		c-1.6,0.6-3.3,1-5.3,1c-2.5,0-4.7-0.5-6.6-1.5c-1.9-1-3.4-2.4-4.4-4.3c-1-1.8-1.6-3.9-1.6-6.2c0-2.3,0.5-4.3,1.5-6.1
		c1-1.8,2.4-3.2,4.2-4.3c1.8-1,3.8-1.5,6-1.5c2.2,0,4.2,0.5,6,1.5c1.7,1,3.1,2.4,4.1,4.3c1,1.8,1.5,3.9,1.5,6.3
		C535.5,411.5,535.5,412,535.5,412.5z M518.9,404.6c-1.4,1.2-2.2,2.8-2.4,4.8h15c-0.2-2-1-3.6-2.4-4.8c-1.4-1.2-3.1-1.9-5.1-1.9
		S520.3,403.4,518.9,404.6z"/>
	<path d="M562.4,412.5h-18.9c0.3,2.1,1.2,3.7,2.7,5c1.5,1.2,3.5,1.9,5.7,1.9c2.8,0,5-0.9,6.7-2.8l2.3,2.7c-1.1,1.2-2.4,2.2-3.9,2.8
		c-1.6,0.6-3.3,1-5.3,1c-2.5,0-4.7-0.5-6.6-1.5c-1.9-1-3.4-2.4-4.4-4.3c-1-1.8-1.6-3.9-1.6-6.2c0-2.3,0.5-4.3,1.5-6.1
		c1-1.8,2.4-3.2,4.2-4.3c1.8-1,3.8-1.5,6-1.5c2.2,0,4.2,0.5,6,1.5c1.7,1,3.1,2.4,4.1,4.3c1,1.8,1.5,3.9,1.5,6.3
		C562.5,411.5,562.5,412,562.4,412.5z M545.9,404.6c-1.4,1.2-2.2,2.8-2.4,4.8h15c-0.2-2-1-3.6-2.4-4.8c-1.4-1.2-3.1-1.9-5.1-1.9
		S547.2,403.4,545.9,404.6z"/>
	<path d="M577.4,411.9l-4.8,4.5v6.4h-4.2v-32.7h4.2v21l12.7-11.6h5.1l-9.8,9.6l10.8,13.7h-5.2L577.4,411.9z"/>
	<path d="M595.9,422.2c-1.8-0.5-3.1-1.2-4.1-2l1.8-3.3c1,0.7,2.3,1.3,3.7,1.8c1.5,0.4,3,0.7,4.4,0.7c3.7,0,5.5-1.1,5.5-3.2
		c0-0.7-0.3-1.3-0.7-1.7c-0.5-0.4-1.1-0.7-1.9-0.9c-0.7-0.2-1.8-0.4-3.2-0.6c-1.9-0.3-3.4-0.6-4.6-1c-1.2-0.4-2.2-1-3.1-1.9
		c-0.9-0.9-1.3-2.2-1.3-3.8c0-2.1,0.9-3.8,2.6-5.1c1.8-1.3,4.1-1.9,7.1-1.9c1.6,0,3.1,0.2,4.7,0.6c1.6,0.4,2.8,0.9,3.8,1.5l-1.8,3.3
		c-1.9-1.2-4.2-1.8-6.7-1.8c-1.8,0-3.2,0.3-4.1,0.9c-0.9,0.6-1.4,1.4-1.4,2.3c0,0.8,0.3,1.4,0.8,1.8c0.5,0.4,1.2,0.8,2,1
		c0.8,0.2,1.9,0.4,3.3,0.7c1.9,0.3,3.4,0.7,4.6,1c1.2,0.4,2.2,1,3,1.9c0.8,0.9,1.2,2.1,1.2,3.7c0,2.1-0.9,3.8-2.7,5
		c-1.8,1.2-4.3,1.9-7.4,1.9C599.5,423,597.7,422.8,595.9,422.2z"/>
</g>
<g>
	<path d="M156.2,514.7c1.3,1.1,2,2.6,2,4.5s-0.6,3.4-2,4.5c-1.3,1.1-3.1,1.6-5.3,1.6h-4.3v5.3H144V513h6.8
		C153.1,513,154.9,513.6,156.2,514.7z M154.4,522.1c0.8-0.7,1.3-1.6,1.3-2.9s-0.4-2.2-1.3-2.9c-0.8-0.7-2-1-3.6-1h-4.3v7.9h4.3
		C152.3,523.1,153.5,522.7,154.4,522.1z"/>
	<path d="M165.4,517.8c0.8-0.4,1.8-0.6,3-0.6v2.3c-0.1,0-0.3,0-0.5,0c-1.3,0-2.3,0.4-3.1,1.2c-0.7,0.8-1.1,1.9-1.1,3.3v6.6h-2.4
		v-13.3h2.3v2.2C163.9,518.8,164.6,518.2,165.4,517.8z"/>
	<path d="M173.3,529.8c-1-0.6-1.9-1.4-2.5-2.4c-0.6-1-0.9-2.2-0.9-3.5s0.3-2.5,0.9-3.5c0.6-1,1.4-1.8,2.5-2.4
		c1.1-0.6,2.2-0.9,3.6-0.9c1.3,0,2.5,0.3,3.5,0.9c1,0.6,1.9,1.4,2.5,2.4c0.6,1,0.9,2.2,0.9,3.5s-0.3,2.5-0.9,3.5
		c-0.6,1-1.4,1.8-2.5,2.4c-1,0.6-2.2,0.9-3.5,0.9C175.5,530.7,174.3,530.4,173.3,529.8z M179.1,528c0.7-0.4,1.2-0.9,1.6-1.6
		c0.4-0.7,0.6-1.5,0.6-2.4c0-0.9-0.2-1.7-0.6-2.4c-0.4-0.7-0.9-1.3-1.6-1.6c-0.7-0.4-1.4-0.6-2.3-0.6c-0.9,0-1.6,0.2-2.3,0.6
		c-0.7,0.4-1.2,0.9-1.6,1.6c-0.4,0.7-0.6,1.5-0.6,2.4c0,0.9,0.2,1.7,0.6,2.4c0.4,0.7,0.9,1.3,1.6,1.6c0.7,0.4,1.4,0.6,2.3,0.6
		C177.7,528.6,178.5,528.4,179.1,528z"/>
	<path d="M199.7,517.3v11.5c0,2.3-0.6,4-1.7,5.1s-2.9,1.7-5.1,1.7c-1.3,0-2.4-0.2-3.6-0.5c-1.1-0.3-2-0.8-2.8-1.5l1.1-1.9
		c0.6,0.5,1.4,1,2.3,1.3c0.9,0.3,1.8,0.5,2.8,0.5c1.5,0,2.7-0.4,3.4-1.1c0.7-0.7,1.1-1.8,1.1-3.3v-1.1c-0.6,0.7-1.3,1.2-2.1,1.5
		c-0.8,0.3-1.7,0.5-2.7,0.5c-1.3,0-2.4-0.3-3.4-0.8s-1.8-1.3-2.4-2.3c-0.6-1-0.9-2.1-0.9-3.3s0.3-2.4,0.9-3.3s1.4-1.7,2.4-2.3
		c1-0.5,2.2-0.8,3.4-0.8c1,0,1.9,0.2,2.8,0.5c0.9,0.4,1.6,0.9,2.1,1.6v-2H199.7z M195.2,527.3c0.7-0.4,1.2-0.9,1.6-1.5
		c0.4-0.7,0.6-1.4,0.6-2.2c0-1.3-0.4-2.3-1.3-3.1c-0.9-0.8-1.9-1.2-3.3-1.2c-1.3,0-2.4,0.4-3.3,1.2s-1.3,1.8-1.3,3.1
		c0,0.8,0.2,1.6,0.6,2.2s0.9,1.2,1.6,1.5c0.7,0.4,1.5,0.6,2.4,0.6C193.7,527.9,194.5,527.7,195.2,527.3z"/>
	<path d="M208.4,517.8c0.8-0.4,1.8-0.6,3-0.6v2.3c-0.1,0-0.3,0-0.5,0c-1.3,0-2.3,0.4-3.1,1.2c-0.7,0.8-1.1,1.9-1.1,3.3v6.6h-2.4
		v-13.3h2.3v2.2C207,518.8,207.6,518.2,208.4,517.8z"/>
	<path d="M223.4,518.5c1,0.9,1.5,2.2,1.5,4v8h-2.3v-1.8c-0.4,0.6-1,1.1-1.7,1.4c-0.7,0.3-1.6,0.5-2.6,0.5c-1.5,0-2.7-0.4-3.6-1.1
		s-1.3-1.7-1.3-2.8c0-1.2,0.4-2.1,1.3-2.8c0.9-0.7,2.2-1.1,4.1-1.1h3.8v-0.5c0-1-0.3-1.8-0.9-2.4c-0.6-0.5-1.5-0.8-2.6-0.8
		c-0.8,0-1.6,0.1-2.3,0.4c-0.8,0.3-1.4,0.6-1.9,1l-1-1.8c0.7-0.6,1.5-1,2.5-1.3c0.9-0.3,2-0.4,3-0.4
		C221,517.2,222.4,517.6,223.4,518.5z M221,528.2c0.7-0.4,1.2-1,1.5-1.7v-1.9h-3.7c-2,0-3,0.7-3,2c0,0.7,0.3,1.2,0.8,1.6
		s1.2,0.6,2.1,0.6S220.3,528.6,221,528.2z"/>
	<path d="M249.8,518.6c1,1,1.5,2.4,1.5,4.3v7.6h-2.4v-7.4c0-1.3-0.3-2.3-0.9-2.9s-1.4-1-2.5-1c-1.2,0-2.2,0.4-2.9,1.1
		s-1.1,1.8-1.1,3.3v6.8h-2.4v-7.4c0-1.3-0.3-2.3-0.9-2.9c-0.6-0.6-1.4-1-2.5-1c-1.2,0-2.2,0.4-2.9,1.1c-0.7,0.8-1.1,1.8-1.1,3.3v6.8
		h-2.4v-13.3h2.3v2c0.5-0.7,1.1-1.2,1.9-1.6c0.8-0.4,1.7-0.5,2.7-0.5c1,0,2,0.2,2.8,0.6c0.8,0.4,1.4,1,1.9,1.8
		c0.5-0.8,1.2-1.4,2.1-1.8c0.9-0.4,1.9-0.6,3-0.6C247.5,517.2,248.9,517.7,249.8,518.6z"/>
	<path d="M256.4,530.3c-1-0.3-1.8-0.7-2.4-1.1l1-1.9c0.6,0.4,1.3,0.8,2.1,1c0.8,0.3,1.7,0.4,2.5,0.4c2.1,0,3.1-0.6,3.1-1.8
		c0-0.4-0.1-0.7-0.4-0.9c-0.3-0.2-0.6-0.4-1.1-0.5c-0.4-0.1-1-0.2-1.8-0.4c-1.1-0.2-1.9-0.4-2.6-0.6c-0.7-0.2-1.3-0.6-1.7-1.1
		c-0.5-0.5-0.7-1.2-0.7-2.2c0-1.2,0.5-2.2,1.5-2.9s2.3-1.1,4-1.1c0.9,0,1.8,0.1,2.7,0.3c0.9,0.2,1.6,0.5,2.2,0.9l-1,1.9
		c-1.1-0.7-2.4-1.1-3.8-1.1c-1,0-1.8,0.2-2.3,0.5c-0.5,0.3-0.8,0.8-0.8,1.3c0,0.4,0.1,0.8,0.5,1c0.3,0.3,0.7,0.4,1.1,0.6
		c0.4,0.1,1.1,0.3,1.9,0.4c1.1,0.2,1.9,0.4,2.6,0.6c0.7,0.2,1.2,0.6,1.7,1.1c0.5,0.5,0.7,1.2,0.7,2.1c0,1.2-0.5,2.2-1.5,2.9
		c-1,0.7-2.4,1.1-4.2,1.1C258.4,530.7,257.4,530.6,256.4,530.3z"/>
	<path d="M284,518.5c1,0.9,1.5,2.2,1.5,4v8h-2.3v-1.8c-0.4,0.6-1,1.1-1.7,1.4c-0.7,0.3-1.6,0.5-2.6,0.5c-1.5,0-2.7-0.4-3.6-1.1
		s-1.3-1.7-1.3-2.8c0-1.2,0.4-2.1,1.3-2.8c0.9-0.7,2.2-1.1,4.1-1.1h3.8v-0.5c0-1-0.3-1.8-0.9-2.4c-0.6-0.5-1.5-0.8-2.6-0.8
		c-0.8,0-1.6,0.1-2.3,0.4c-0.8,0.3-1.4,0.6-1.9,1l-1-1.8c0.7-0.6,1.5-1,2.5-1.3c0.9-0.3,2-0.4,3-0.4
		C281.6,517.2,283,517.6,284,518.5z M281.6,528.2c0.7-0.4,1.2-1,1.5-1.7v-1.9h-3.7c-2,0-3,0.7-3,2c0,0.7,0.3,1.2,0.8,1.6
		s1.2,0.6,2.1,0.6S281,528.6,281.6,528.2z"/>
	<path d="M301,518.6c1,1,1.5,2.4,1.5,4.3v7.6h-2.4v-7.4c0-1.3-0.3-2.3-0.9-2.9s-1.5-1-2.6-1c-1.3,0-2.3,0.4-3.1,1.1
		s-1.1,1.8-1.1,3.3v6.8h-2.4v-13.3h2.3v2c0.5-0.7,1.1-1.2,2-1.6c0.8-0.4,1.8-0.5,2.8-0.5C298.7,517.2,300,517.7,301,518.6z"/>
	<path d="M319.5,512v18.5h-2.3v-2.1c-0.5,0.7-1.2,1.3-2,1.7c-0.8,0.4-1.7,0.6-2.7,0.6c-1.3,0-2.4-0.3-3.5-0.9
		c-1-0.6-1.8-1.4-2.4-2.4c-0.6-1-0.9-2.2-0.9-3.5c0-1.3,0.3-2.5,0.9-3.5c0.6-1,1.4-1.8,2.4-2.4c1-0.6,2.2-0.9,3.5-0.9
		c1,0,1.8,0.2,2.6,0.5s1.5,0.9,2,1.6V512H319.5z M315,528c0.7-0.4,1.2-0.9,1.6-1.6c0.4-0.7,0.6-1.5,0.6-2.4c0-0.9-0.2-1.7-0.6-2.4
		c-0.4-0.7-0.9-1.3-1.6-1.6c-0.7-0.4-1.4-0.6-2.3-0.6c-0.9,0-1.6,0.2-2.3,0.6c-0.7,0.4-1.2,0.9-1.6,1.6c-0.4,0.7-0.6,1.5-0.6,2.4
		c0,0.9,0.2,1.7,0.6,2.4c0.4,0.7,0.9,1.3,1.6,1.6c0.7,0.4,1.4,0.6,2.3,0.6C313.5,528.6,314.3,528.4,315,528z"/>
	<path d="M343.3,514.7c1.3,1.1,2,2.6,2,4.5s-0.6,3.4-2,4.5c-1.3,1.1-3.1,1.6-5.3,1.6h-4.3v5.3h-2.5V513h6.8
		C340.2,513,342,513.6,343.3,514.7z M341.5,522.1c0.8-0.7,1.3-1.6,1.3-2.9s-0.4-2.2-1.3-2.9c-0.8-0.7-2-1-3.6-1h-4.3v7.9h4.3
		C339.5,523.1,340.7,522.7,341.5,522.1z"/>
	<path d="M348.8,512h2.4v18.5h-2.4V512z"/>
	<path d="M364.9,518.5c1,0.9,1.5,2.2,1.5,4v8H364v-1.8c-0.4,0.6-1,1.1-1.7,1.4c-0.7,0.3-1.6,0.5-2.6,0.5c-1.5,0-2.7-0.4-3.6-1.1
		s-1.3-1.7-1.3-2.8c0-1.2,0.4-2.1,1.3-2.8c0.9-0.7,2.2-1.1,4.1-1.1h3.8v-0.5c0-1-0.3-1.8-0.9-2.4c-0.6-0.5-1.5-0.8-2.6-0.8
		c-0.8,0-1.6,0.1-2.3,0.4c-0.8,0.3-1.4,0.6-1.9,1l-1-1.8c0.7-0.6,1.5-1,2.5-1.3c0.9-0.3,2-0.4,3-0.4
		C362.5,517.2,363.9,517.6,364.9,518.5z M362.5,528.2c0.7-0.4,1.2-1,1.5-1.7v-1.9h-3.7c-2,0-3,0.7-3,2c0,0.7,0.3,1.2,0.8,1.6
		s1.2,0.6,2.1,0.6S361.8,528.6,362.5,528.2z"/>
	<path d="M378.2,529.8c-0.4,0.3-0.8,0.5-1.3,0.7s-1,0.2-1.6,0.2c-1.3,0-2.4-0.4-3.1-1.1c-0.7-0.7-1.1-1.7-1.1-3.1v-7.3h-2.3v-2h2.3
		v-2.9h2.4v2.9h3.8v2h-3.8v7.2c0,0.7,0.2,1.3,0.5,1.6c0.4,0.4,0.9,0.6,1.5,0.6c0.7,0,1.4-0.2,1.9-0.6L378.2,529.8z"/>
	<path d="M383.8,516.1v1.1h3.9v2h-3.8v11.3h-2.4v-11.3h-2.3v-2h2.3v-1.2c0-1.3,0.4-2.4,1.1-3.1s1.8-1.2,3.2-1.2c0.5,0,1,0.1,1.5,0.2
		c0.5,0.1,0.9,0.3,1.2,0.6l-0.7,1.8c-0.6-0.4-1.2-0.6-1.9-0.6C384.5,513.8,383.8,514.6,383.8,516.1z"/>
	<path d="M391.9,529.8c-1-0.6-1.9-1.4-2.5-2.4c-0.6-1-0.9-2.2-0.9-3.5s0.3-2.5,0.9-3.5c0.6-1,1.4-1.8,2.5-2.4
		c1.1-0.6,2.2-0.9,3.6-0.9c1.3,0,2.5,0.3,3.5,0.9c1,0.6,1.9,1.4,2.5,2.4c0.6,1,0.9,2.2,0.9,3.5s-0.3,2.5-0.9,3.5
		c-0.6,1-1.4,1.8-2.5,2.4c-1,0.6-2.2,0.9-3.5,0.9C394.1,530.7,392.9,530.4,391.9,529.8z M397.7,528c0.7-0.4,1.2-0.9,1.6-1.6
		c0.4-0.7,0.6-1.5,0.6-2.4c0-0.9-0.2-1.7-0.6-2.4c-0.4-0.7-0.9-1.3-1.6-1.6c-0.7-0.4-1.4-0.6-2.3-0.6c-0.9,0-1.6,0.2-2.3,0.6
		c-0.7,0.4-1.2,0.9-1.6,1.6c-0.4,0.7-0.6,1.5-0.6,2.4c0,0.9,0.2,1.7,0.6,2.4c0.4,0.7,0.9,1.3,1.6,1.6c0.7,0.4,1.4,0.6,2.3,0.6
		C396.3,528.6,397,528.4,397.7,528z"/>
	<path d="M409.8,517.8c0.8-0.4,1.8-0.6,3-0.6v2.3c-0.1,0-0.3,0-0.5,0c-1.3,0-2.3,0.4-3.1,1.2c-0.7,0.8-1.1,1.9-1.1,3.3v6.6h-2.4
		v-13.3h2.3v2.2C408.3,518.8,408.9,518.2,409.8,517.8z"/>
	<path d="M436.2,518.6c1,1,1.5,2.4,1.5,4.3v7.6h-2.4v-7.4c0-1.3-0.3-2.3-0.9-2.9s-1.4-1-2.5-1c-1.2,0-2.2,0.4-2.9,1.1
		s-1.1,1.8-1.1,3.3v6.8h-2.4v-7.4c0-1.3-0.3-2.3-0.9-2.9c-0.6-0.6-1.4-1-2.5-1c-1.2,0-2.2,0.4-2.9,1.1c-0.7,0.8-1.1,1.8-1.1,3.3v6.8
		h-2.4v-13.3h2.3v2c0.5-0.7,1.1-1.2,1.9-1.6c0.8-0.4,1.7-0.5,2.7-0.5c1,0,2,0.2,2.8,0.6c0.8,0.4,1.4,1,1.9,1.8
		c0.5-0.8,1.2-1.4,2.1-1.8c0.9-0.4,1.9-0.6,3-0.6C433.9,517.2,435.3,517.7,436.2,518.6z"/>
	<path d="M442.8,530.3c-1-0.3-1.8-0.7-2.4-1.1l1-1.9c0.6,0.4,1.3,0.8,2.1,1c0.8,0.3,1.7,0.4,2.5,0.4c2.1,0,3.1-0.6,3.1-1.8
		c0-0.4-0.1-0.7-0.4-0.9c-0.3-0.2-0.6-0.4-1.1-0.5c-0.4-0.1-1-0.2-1.8-0.4c-1.1-0.2-1.9-0.4-2.6-0.6c-0.7-0.2-1.3-0.6-1.7-1.1
		c-0.5-0.5-0.7-1.2-0.7-2.2c0-1.2,0.5-2.2,1.5-2.9s2.3-1.1,4-1.1c0.9,0,1.8,0.1,2.7,0.3c0.9,0.2,1.6,0.5,2.2,0.9l-1,1.9
		c-1.1-0.7-2.4-1.1-3.8-1.1c-1,0-1.8,0.2-2.3,0.5c-0.5,0.3-0.8,0.8-0.8,1.3c0,0.4,0.1,0.8,0.5,1c0.3,0.3,0.7,0.4,1.1,0.6
		c0.4,0.1,1.1,0.3,1.9,0.4c1.1,0.2,1.9,0.4,2.6,0.6c0.7,0.2,1.2,0.6,1.7,1.1c0.5,0.5,0.7,1.2,0.7,2.1c0,1.2-0.5,2.2-1.5,2.9
		c-1,0.7-2.4,1.1-4.2,1.1C444.8,530.7,443.8,530.6,442.8,530.3z"/>
	<path d="M126.5,560.3c-1-0.3-1.8-0.7-2.4-1.1l1-1.9c0.6,0.4,1.3,0.8,2.1,1c0.8,0.3,1.7,0.4,2.5,0.4c2.1,0,3.1-0.6,3.1-1.8
		c0-0.4-0.1-0.7-0.4-0.9c-0.3-0.2-0.6-0.4-1.1-0.5c-0.4-0.1-1-0.2-1.8-0.4c-1.1-0.2-1.9-0.4-2.6-0.6c-0.7-0.2-1.3-0.6-1.7-1.1
		c-0.5-0.5-0.7-1.2-0.7-2.2c0-1.2,0.5-2.2,1.5-2.9c1-0.7,2.3-1.1,4-1.1c0.9,0,1.8,0.1,2.7,0.3c0.9,0.2,1.6,0.5,2.2,0.9l-1,1.9
		c-1.1-0.7-2.4-1.1-3.8-1.1c-1,0-1.8,0.2-2.3,0.5c-0.5,0.3-0.8,0.8-0.8,1.3c0,0.4,0.1,0.8,0.5,1c0.3,0.3,0.7,0.4,1.1,0.6
		c0.4,0.1,1.1,0.3,1.9,0.4c1.1,0.2,1.9,0.4,2.6,0.6c0.7,0.2,1.2,0.6,1.7,1.1c0.5,0.5,0.7,1.2,0.7,2.1c0,1.2-0.5,2.2-1.5,2.9
		c-1,0.7-2.4,1.1-4.2,1.1C128.5,560.7,127.5,560.6,126.5,560.3z"/>
	<path d="M150.3,554.7h-10.8c0.1,1.2,0.7,2.1,1.5,2.8c0.9,0.7,2,1.1,3.3,1.1c1.6,0,2.9-0.5,3.8-1.6l1.3,1.5
		c-0.6,0.7-1.3,1.2-2.2,1.6c-0.9,0.4-1.9,0.5-3,0.5c-1.4,0-2.6-0.3-3.7-0.9c-1.1-0.6-1.9-1.4-2.5-2.4c-0.6-1-0.9-2.2-0.9-3.5
		c0-1.3,0.3-2.4,0.9-3.5c0.6-1,1.4-1.8,2.4-2.4c1-0.6,2.1-0.9,3.4-0.9c1.3,0,2.4,0.3,3.4,0.9c1,0.6,1.8,1.4,2.3,2.4
		c0.6,1,0.8,2.2,0.8,3.6C150.3,554.2,150.3,554.4,150.3,554.7z M140.9,550.3c-0.8,0.7-1.2,1.6-1.4,2.8h8.5c-0.1-1.1-0.6-2-1.4-2.7
		c-0.8-0.7-1.7-1.1-2.9-1.1C142.6,549.2,141.7,549.5,140.9,550.3z"/>
	<path d="M164.7,548.6c1,1,1.5,2.4,1.5,4.3v7.6h-2.4v-7.4c0-1.3-0.3-2.3-0.9-2.9s-1.5-1-2.6-1c-1.3,0-2.3,0.4-3.1,1.1
		c-0.8,0.8-1.1,1.8-1.1,3.3v6.8h-2.4v-13.3h2.3v2c0.5-0.7,1.1-1.2,2-1.6c0.8-0.4,1.8-0.5,2.8-0.5
		C162.4,547.2,163.8,547.7,164.7,548.6z"/>
	<path d="M183.3,542v18.5H181v-2.1c-0.5,0.7-1.2,1.3-2,1.7c-0.8,0.4-1.7,0.6-2.7,0.6c-1.3,0-2.4-0.3-3.5-0.8s-1.8-1.4-2.4-2.4
		c-0.6-1-0.9-2.2-0.9-3.5s0.3-2.5,0.9-3.5c0.6-1,1.4-1.8,2.4-2.4s2.2-0.9,3.5-0.9c1,0,1.8,0.2,2.6,0.5c0.8,0.4,1.5,0.9,2,1.6V542
		H183.3z M178.7,558c0.7-0.4,1.2-0.9,1.6-1.6c0.4-0.7,0.6-1.5,0.6-2.4s-0.2-1.7-0.6-2.4c-0.4-0.7-0.9-1.3-1.6-1.6
		c-0.7-0.4-1.4-0.6-2.3-0.6c-0.9,0-1.6,0.2-2.3,0.6c-0.7,0.4-1.2,0.9-1.6,1.6s-0.6,1.5-0.6,2.4s0.2,1.7,0.6,2.4s0.9,1.3,1.6,1.6
		c0.7,0.4,1.4,0.6,2.3,0.6C177.3,558.6,178,558.4,178.7,558z"/>
	<path d="M202,559.8c-0.4,0.3-0.8,0.5-1.3,0.7s-1,0.2-1.6,0.2c-1.3,0-2.4-0.4-3.1-1.1c-0.7-0.7-1.1-1.7-1.1-3.1v-7.3h-2.3v-2h2.3
		v-2.9h2.4v2.9h3.8v2h-3.8v7.2c0,0.7,0.2,1.3,0.5,1.7c0.4,0.4,0.9,0.6,1.5,0.6c0.7,0,1.4-0.2,1.9-0.6L202,559.8z"/>
	<path d="M216,548.6c1,1,1.5,2.4,1.5,4.3v7.6h-2.4v-7.4c0-1.3-0.3-2.3-0.9-2.9s-1.5-1-2.6-1c-1.3,0-2.3,0.4-3.1,1.1
		c-0.8,0.8-1.1,1.8-1.1,3.3v6.8h-2.4V542h2.4v7.2c0.5-0.6,1.2-1.1,2-1.5c0.8-0.3,1.7-0.5,2.7-0.5C213.6,547.2,215,547.7,216,548.6z"
		/>
	<path d="M233.9,554.7h-10.8c0.1,1.2,0.7,2.1,1.5,2.8c0.9,0.7,2,1.1,3.3,1.1c1.6,0,2.9-0.5,3.8-1.6l1.3,1.5
		c-0.6,0.7-1.3,1.2-2.2,1.6c-0.9,0.4-1.9,0.5-3,0.5c-1.4,0-2.6-0.3-3.7-0.9c-1.1-0.6-1.9-1.4-2.5-2.4c-0.6-1-0.9-2.2-0.9-3.5
		c0-1.3,0.3-2.4,0.9-3.5c0.6-1,1.4-1.8,2.4-2.4c1-0.6,2.1-0.9,3.4-0.9c1.3,0,2.4,0.3,3.4,0.9c1,0.6,1.8,1.4,2.3,2.4
		c0.6,1,0.8,2.2,0.8,3.6C234,554.2,233.9,554.4,233.9,554.7z M224.5,550.3c-0.8,0.7-1.2,1.6-1.4,2.8h8.5c-0.1-1.1-0.6-2-1.4-2.7
		c-0.8-0.7-1.7-1.1-2.9-1.1C226.3,549.2,225.3,549.5,224.5,550.3z"/>
	<path d="M244,544.3c-0.3-0.3-0.5-0.7-0.5-1.1c0-0.4,0.2-0.8,0.5-1.1c0.3-0.3,0.7-0.5,1.2-0.5c0.5,0,0.9,0.1,1.2,0.4
		c0.3,0.3,0.5,0.7,0.5,1.1c0,0.4-0.2,0.8-0.5,1.1c-0.3,0.3-0.7,0.5-1.2,0.5C244.7,544.8,244.4,544.6,244,544.3z M244,547.3h2.4v13.3
		H244V547.3z"/>
	<path d="M262.1,548.6c1,1,1.5,2.4,1.5,4.3v7.6h-2.4v-7.4c0-1.3-0.3-2.3-0.9-2.9s-1.5-1-2.6-1c-1.3,0-2.3,0.4-3.1,1.1
		c-0.8,0.8-1.1,1.8-1.1,3.3v6.8H251v-13.3h2.3v2c0.5-0.7,1.1-1.2,2-1.6c0.8-0.4,1.8-0.5,2.8-0.5
		C259.7,547.2,261.1,547.7,262.1,548.6z"/>
	<path d="M270.7,546.2v1.1h3.9v2h-3.8v11.3h-2.4v-11.3h-2.3v-2h2.3v-1.2c0-1.3,0.4-2.4,1.1-3.1s1.8-1.2,3.2-1.2c0.5,0,1,0.1,1.5,0.2
		c0.5,0.1,0.9,0.3,1.2,0.6l-0.7,1.8c-0.6-0.4-1.2-0.6-1.9-0.6C271.4,543.8,270.7,544.6,270.7,546.2z"/>
	<path d="M278.8,559.8c-1-0.6-1.9-1.4-2.5-2.4c-0.6-1-0.9-2.2-0.9-3.5s0.3-2.5,0.9-3.5c0.6-1,1.4-1.8,2.5-2.4
		c1.1-0.6,2.2-0.9,3.6-0.9c1.3,0,2.5,0.3,3.5,0.9c1,0.6,1.9,1.4,2.5,2.4c0.6,1,0.9,2.2,0.9,3.5s-0.3,2.5-0.9,3.5
		c-0.6,1-1.4,1.8-2.5,2.4c-1,0.6-2.2,0.9-3.5,0.9C281,560.7,279.8,560.4,278.8,559.8z M284.6,558c0.7-0.4,1.2-0.9,1.6-1.6
		c0.4-0.7,0.6-1.5,0.6-2.4s-0.2-1.7-0.6-2.4c-0.4-0.7-0.9-1.3-1.6-1.6c-0.7-0.4-1.4-0.6-2.3-0.6c-0.9,0-1.6,0.2-2.3,0.6
		c-0.7,0.4-1.2,0.9-1.6,1.6s-0.6,1.5-0.6,2.4s0.2,1.7,0.6,2.4s0.9,1.3,1.6,1.6c0.7,0.4,1.4,0.6,2.3,0.6
		C283.2,558.6,283.9,558.4,284.6,558z"/>
	<path d="M296.7,547.8c0.8-0.4,1.8-0.6,3-0.6v2.3c-0.1,0-0.3,0-0.5,0c-1.3,0-2.3,0.4-3.1,1.2c-0.7,0.8-1.1,1.9-1.1,3.3v6.6h-2.4
		v-13.3h2.3v2.2C295.2,548.8,295.8,548.2,296.7,547.8z"/>
	<path d="M323.1,548.6c1,1,1.5,2.4,1.5,4.3v7.6h-2.4v-7.4c0-1.3-0.3-2.3-0.9-2.9s-1.4-1-2.5-1c-1.2,0-2.2,0.4-2.9,1.1
		c-0.7,0.8-1.1,1.8-1.1,3.3v6.8h-2.4v-7.4c0-1.3-0.3-2.3-0.9-2.9c-0.6-0.6-1.4-1-2.5-1c-1.2,0-2.2,0.4-2.9,1.1
		c-0.7,0.8-1.1,1.8-1.1,3.3v6.8h-2.4v-13.3h2.3v2c0.5-0.7,1.1-1.2,1.9-1.6c0.8-0.4,1.7-0.5,2.7-0.5c1,0,2,0.2,2.8,0.6
		c0.8,0.4,1.4,1,1.9,1.8c0.5-0.8,1.2-1.4,2.1-1.8c0.9-0.4,1.9-0.6,3-0.6C320.8,547.2,322.1,547.7,323.1,548.6z"/>
	<path d="M338,548.5c1,0.9,1.5,2.2,1.5,4v8h-2.3v-1.8c-0.4,0.6-1,1.1-1.7,1.4c-0.7,0.3-1.6,0.5-2.6,0.5c-1.5,0-2.7-0.4-3.6-1.1
		s-1.3-1.7-1.3-2.8s0.4-2.1,1.3-2.8s2.2-1.1,4.1-1.1h3.8v-0.5c0-1-0.3-1.8-0.9-2.4c-0.6-0.5-1.5-0.8-2.6-0.8c-0.8,0-1.6,0.1-2.3,0.4
		c-0.8,0.3-1.4,0.6-1.9,1l-1-1.8c0.7-0.6,1.5-1,2.5-1.3c0.9-0.3,2-0.4,3-0.4C335.7,547.2,337.1,547.6,338,548.5z M335.7,558.2
		c0.7-0.4,1.2-1,1.5-1.7v-1.8h-3.7c-2,0-3,0.7-3,2c0,0.7,0.3,1.2,0.8,1.6c0.5,0.4,1.2,0.6,2.1,0.6S335,558.6,335.7,558.2z"/>
	<path d="M351.4,559.8c-0.4,0.3-0.8,0.5-1.3,0.7s-1,0.2-1.6,0.2c-1.3,0-2.4-0.4-3.1-1.1c-0.7-0.7-1.1-1.7-1.1-3.1v-7.3h-2.3v-2h2.3
		v-2.9h2.4v2.9h3.8v2h-3.8v7.2c0,0.7,0.2,1.3,0.5,1.7c0.4,0.4,0.9,0.6,1.5,0.6c0.7,0,1.4-0.2,1.9-0.6L351.4,559.8z"/>
	<path d="M354.3,544.3c-0.3-0.3-0.5-0.7-0.5-1.1c0-0.4,0.2-0.8,0.5-1.1c0.3-0.3,0.7-0.5,1.2-0.5c0.5,0,0.9,0.1,1.2,0.4
		c0.3,0.3,0.5,0.7,0.5,1.1c0,0.4-0.2,0.8-0.5,1.1c-0.3,0.3-0.7,0.5-1.2,0.5C355,544.8,354.6,544.6,354.3,544.3z M354.3,547.3h2.4
		v13.3h-2.4V547.3z"/>
	<path d="M363.4,559.8c-1-0.6-1.9-1.4-2.5-2.4c-0.6-1-0.9-2.2-0.9-3.5s0.3-2.5,0.9-3.5c0.6-1,1.4-1.8,2.5-2.4
		c1.1-0.6,2.2-0.9,3.6-0.9c1.3,0,2.5,0.3,3.5,0.9c1,0.6,1.9,1.4,2.5,2.4c0.6,1,0.9,2.2,0.9,3.5s-0.3,2.5-0.9,3.5
		c-0.6,1-1.4,1.8-2.5,2.4c-1,0.6-2.2,0.9-3.5,0.9C365.6,560.7,364.5,560.4,363.4,559.8z M369.2,558c0.7-0.4,1.2-0.9,1.6-1.6
		c0.4-0.7,0.6-1.5,0.6-2.4s-0.2-1.7-0.6-2.4c-0.4-0.7-0.9-1.3-1.6-1.6c-0.7-0.4-1.4-0.6-2.3-0.6c-0.9,0-1.6,0.2-2.3,0.6
		c-0.7,0.4-1.2,0.9-1.6,1.6s-0.6,1.5-0.6,2.4s0.2,1.7,0.6,2.4s0.9,1.3,1.6,1.6c0.7,0.4,1.4,0.6,2.3,0.6
		C367.8,558.6,368.6,558.4,369.2,558z"/>
	<path d="M388.2,548.6c1,1,1.5,2.4,1.5,4.3v7.6h-2.4v-7.4c0-1.3-0.3-2.3-0.9-2.9s-1.5-1-2.6-1c-1.3,0-2.3,0.4-3.1,1.1
		c-0.8,0.8-1.1,1.8-1.1,3.3v6.8h-2.4v-13.3h2.3v2c0.5-0.7,1.1-1.2,2-1.6c0.8-0.4,1.8-0.5,2.8-0.5
		C385.9,547.2,387.2,547.7,388.2,548.6z"/>
	<path d="M408.4,559.8c-0.4,0.3-0.8,0.5-1.3,0.7s-1,0.2-1.6,0.2c-1.3,0-2.4-0.4-3.1-1.1c-0.7-0.7-1.1-1.7-1.1-3.1v-7.3H399v-2h2.3
		v-2.9h2.4v2.9h3.8v2h-3.8v7.2c0,0.7,0.2,1.3,0.5,1.7c0.4,0.4,0.9,0.6,1.5,0.6c0.7,0,1.4-0.2,1.9-0.6L408.4,559.8z"/>
	<path d="M412.9,559.8c-1-0.6-1.9-1.4-2.5-2.4c-0.6-1-0.9-2.2-0.9-3.5s0.3-2.5,0.9-3.5c0.6-1,1.4-1.8,2.5-2.4
		c1.1-0.6,2.2-0.9,3.6-0.9c1.3,0,2.5,0.3,3.5,0.9c1,0.6,1.9,1.4,2.5,2.4c0.6,1,0.9,2.2,0.9,3.5s-0.3,2.5-0.9,3.5
		c-0.6,1-1.4,1.8-2.5,2.4c-1,0.6-2.2,0.9-3.5,0.9C415.2,560.7,414,560.4,412.9,559.8z M418.8,558c0.7-0.4,1.2-0.9,1.6-1.6
		c0.4-0.7,0.6-1.5,0.6-2.4s-0.2-1.7-0.6-2.4c-0.4-0.7-0.9-1.3-1.6-1.6c-0.7-0.4-1.4-0.6-2.3-0.6c-0.9,0-1.6,0.2-2.3,0.6
		c-0.7,0.4-1.2,0.9-1.6,1.6s-0.6,1.5-0.6,2.4s0.2,1.7,0.6,2.4s0.9,1.3,1.6,1.6c0.7,0.4,1.4,0.6,2.3,0.6
		C417.3,558.6,418.1,558.4,418.8,558z"/>
	<path d="M451.8,562.2c-0.6,0.7-1.2,1.2-2,1.5s-1.6,0.5-2.4,0.5c-1.1,0-2.1-0.3-3.1-0.8c-1-0.5-2.1-1.4-3.3-2.7
		c-1.6-0.1-3.1-0.5-4.5-1.3c-1.3-0.8-2.4-1.9-3.1-3.2c-0.7-1.3-1.1-2.8-1.1-4.4c0-1.7,0.4-3.2,1.2-4.6c0.8-1.4,1.9-2.4,3.3-3.2
		c1.4-0.8,3-1.2,4.8-1.2c1.8,0,3.3,0.4,4.8,1.2c1.4,0.8,2.5,1.8,3.3,3.2c0.8,1.4,1.2,2.9,1.2,4.6c0,1.4-0.3,2.8-0.9,4
		c-0.6,1.2-1.4,2.2-2.4,3c-1,0.8-2.2,1.4-3.6,1.7c0.6,0.6,1.1,1.1,1.7,1.3s1.1,0.4,1.7,0.4c1.2,0,2.3-0.5,3.2-1.5L451.8,562.2z
		 M435.7,555.2c0.6,1,1.4,1.8,2.5,2.4c1,0.6,2.2,0.9,3.5,0.9c1.3,0,2.4-0.3,3.5-0.9c1-0.6,1.8-1.4,2.4-2.4c0.6-1,0.9-2.2,0.9-3.4
		s-0.3-2.4-0.9-3.4c-0.6-1-1.4-1.8-2.4-2.4c-1-0.6-2.2-0.9-3.5-0.9c-1.3,0-2.4,0.3-3.5,0.9c-1,0.6-1.9,1.4-2.5,2.4
		c-0.6,1-0.9,2.2-0.9,3.4S435.1,554.2,435.7,555.2z"/>
	<path d="M465.7,556.2h-9.3l-1.9,4.4h-2.6l7.9-17.5h2.5l8,17.5h-2.6L465.7,556.2z M464.8,554.2l-3.8-8.6l-3.8,8.6H464.8z"/>
</g>
<g>
	<rect x="558" y="470.4" class="st2" width="370" height="121.6"/>
</g>
<g>
	<g>
		<path d="M606.3,526.2H597l-1.9,4.4h-2.6l7.9-17.5h2.5l8,17.5h-2.6L606.3,526.2z M605.4,524.2l-3.8-8.6l-3.8,8.6H605.4z"/>
		<path d="M613.6,530.3c-1-0.3-1.8-0.7-2.4-1.1l1-1.9c0.6,0.4,1.3,0.8,2.1,1c0.8,0.3,1.7,0.4,2.5,0.4c2.1,0,3.1-0.6,3.1-1.8
			c0-0.4-0.1-0.7-0.4-0.9c-0.3-0.2-0.6-0.4-1.1-0.5c-0.4-0.1-1-0.2-1.8-0.4c-1.1-0.2-1.9-0.4-2.6-0.6c-0.7-0.2-1.3-0.6-1.7-1.1
			c-0.5-0.5-0.7-1.2-0.7-2.2c0-1.2,0.5-2.2,1.5-2.9s2.3-1.1,4-1.1c0.9,0,1.8,0.1,2.7,0.3c0.9,0.2,1.6,0.5,2.2,0.9l-1,1.9
			c-1.1-0.7-2.4-1.1-3.8-1.1c-1,0-1.8,0.2-2.3,0.5c-0.5,0.3-0.8,0.8-0.8,1.3c0,0.4,0.1,0.8,0.5,1c0.3,0.3,0.7,0.4,1.1,0.6
			c0.4,0.1,1.1,0.3,1.9,0.4c1.1,0.2,1.9,0.4,2.6,0.6c0.7,0.2,1.2,0.6,1.7,1.1c0.5,0.5,0.7,1.2,0.7,2.1c0,1.2-0.5,2.2-1.5,2.9
			c-1,0.7-2.4,1.1-4.2,1.1C615.7,530.7,614.6,530.6,613.6,530.3z"/>
		<path d="M626.2,530.3c-1-0.3-1.8-0.7-2.4-1.1l1-1.9c0.6,0.4,1.3,0.8,2.1,1c0.8,0.3,1.7,0.4,2.5,0.4c2.1,0,3.1-0.6,3.1-1.8
			c0-0.4-0.1-0.7-0.4-0.9c-0.3-0.2-0.6-0.4-1.1-0.5c-0.4-0.1-1-0.2-1.8-0.4c-1.1-0.2-1.9-0.4-2.6-0.6c-0.7-0.2-1.3-0.6-1.7-1.1
			c-0.5-0.5-0.7-1.2-0.7-2.2c0-1.2,0.5-2.2,1.5-2.9s2.3-1.1,4-1.1c0.9,0,1.8,0.1,2.7,0.3c0.9,0.2,1.6,0.5,2.2,0.9l-1,1.9
			c-1.1-0.7-2.4-1.1-3.8-1.1c-1,0-1.8,0.2-2.3,0.5c-0.5,0.3-0.8,0.8-0.8,1.3c0,0.4,0.1,0.8,0.5,1c0.3,0.3,0.7,0.4,1.1,0.6
			c0.4,0.1,1.1,0.3,1.9,0.4c1.1,0.2,1.9,0.4,2.6,0.6c0.7,0.2,1.2,0.6,1.7,1.1c0.5,0.5,0.7,1.2,0.7,2.1c0,1.2-0.5,2.2-1.5,2.9
			c-1,0.7-2.4,1.1-4.2,1.1C628.2,530.7,627.2,530.6,626.2,530.3z"/>
		<path d="M649.9,524.7h-10.8c0.1,1.2,0.7,2.1,1.5,2.8c0.9,0.7,2,1.1,3.3,1.1c1.6,0,2.9-0.5,3.8-1.6l1.3,1.5
			c-0.6,0.7-1.3,1.2-2.2,1.6c-0.9,0.4-1.9,0.5-3,0.5c-1.4,0-2.6-0.3-3.7-0.9c-1.1-0.6-1.9-1.4-2.5-2.4c-0.6-1-0.9-2.2-0.9-3.5
			c0-1.3,0.3-2.4,0.9-3.5c0.6-1,1.4-1.8,2.4-2.4c1-0.6,2.1-0.9,3.4-0.9c1.3,0,2.4,0.3,3.4,0.9c1,0.6,1.8,1.4,2.3,2.4
			c0.6,1,0.8,2.2,0.8,3.6C650,524.2,650,524.4,649.9,524.7z M640.6,520.3c-0.8,0.7-1.2,1.6-1.4,2.8h8.5c-0.1-1.1-0.6-2-1.4-2.7
			c-0.8-0.7-1.7-1.1-2.9-1.1C642.3,519.2,641.3,519.5,640.6,520.3z"/>
		<path d="M654,530.3c-1-0.3-1.8-0.7-2.4-1.1l1-1.9c0.6,0.4,1.3,0.8,2.1,1c0.8,0.3,1.7,0.4,2.5,0.4c2.1,0,3.1-0.6,3.1-1.8
			c0-0.4-0.1-0.7-0.4-0.9c-0.3-0.2-0.6-0.4-1.1-0.5c-0.4-0.1-1-0.2-1.8-0.4c-1.1-0.2-1.9-0.4-2.6-0.6c-0.7-0.2-1.3-0.6-1.7-1.1
			c-0.5-0.5-0.7-1.2-0.7-2.2c0-1.2,0.5-2.2,1.5-2.9s2.3-1.1,4-1.1c0.9,0,1.8,0.1,2.7,0.3c0.9,0.2,1.6,0.5,2.2,0.9l-1,1.9
			c-1.1-0.7-2.4-1.1-3.8-1.1c-1,0-1.8,0.2-2.3,0.5c-0.5,0.3-0.8,0.8-0.8,1.3c0,0.4,0.1,0.8,0.5,1c0.3,0.3,0.7,0.4,1.1,0.6
			c0.4,0.1,1.1,0.3,1.9,0.4c1.1,0.2,1.9,0.4,2.6,0.6c0.7,0.2,1.2,0.6,1.7,1.1c0.5,0.5,0.7,1.2,0.7,2.1c0,1.2-0.5,2.2-1.5,2.9
			c-1,0.7-2.4,1.1-4.2,1.1C656,530.7,655,530.6,654,530.3z"/>
		<path d="M666.5,530.3c-1-0.3-1.8-0.7-2.4-1.1l1-1.9c0.6,0.4,1.3,0.8,2.1,1c0.8,0.3,1.7,0.4,2.5,0.4c2.1,0,3.1-0.6,3.1-1.8
			c0-0.4-0.1-0.7-0.4-0.9c-0.3-0.2-0.6-0.4-1.1-0.5c-0.4-0.1-1-0.2-1.8-0.4c-1.1-0.2-1.9-0.4-2.6-0.6c-0.7-0.2-1.3-0.6-1.7-1.1
			c-0.5-0.5-0.7-1.2-0.7-2.2c0-1.2,0.5-2.2,1.5-2.9s2.3-1.1,4-1.1c0.9,0,1.8,0.1,2.7,0.3c0.9,0.2,1.6,0.5,2.2,0.9l-1,1.9
			c-1.1-0.7-2.4-1.1-3.8-1.1c-1,0-1.8,0.2-2.3,0.5c-0.5,0.3-0.8,0.8-0.8,1.3c0,0.4,0.1,0.8,0.5,1c0.3,0.3,0.7,0.4,1.1,0.6
			c0.4,0.1,1.1,0.3,1.9,0.4c1.1,0.2,1.9,0.4,2.6,0.6c0.7,0.2,1.2,0.6,1.7,1.1c0.5,0.5,0.7,1.2,0.7,2.1c0,1.2-0.5,2.2-1.5,2.9
			c-1,0.7-2.4,1.1-4.2,1.1C668.6,530.7,667.5,530.6,666.5,530.3z"/>
		<path d="M680.5,529.8c-1-0.6-1.9-1.4-2.5-2.4c-0.6-1-0.9-2.2-0.9-3.5s0.3-2.5,0.9-3.5c0.6-1,1.4-1.8,2.5-2.4
			c1.1-0.6,2.2-0.9,3.6-0.9c1.3,0,2.5,0.3,3.5,0.9c1,0.6,1.9,1.4,2.5,2.4c0.6,1,0.9,2.2,0.9,3.5s-0.3,2.5-0.9,3.5
			c-0.6,1-1.4,1.8-2.5,2.4c-1,0.6-2.2,0.9-3.5,0.9C682.7,530.7,681.5,530.4,680.5,529.8z M686.3,528c0.7-0.4,1.2-0.9,1.6-1.6
			c0.4-0.7,0.6-1.5,0.6-2.4c0-0.9-0.2-1.7-0.6-2.4c-0.4-0.7-0.9-1.3-1.6-1.6c-0.7-0.4-1.4-0.6-2.3-0.6c-0.9,0-1.6,0.2-2.3,0.6
			c-0.7,0.4-1.2,0.9-1.6,1.6c-0.4,0.7-0.6,1.5-0.6,2.4c0,0.9,0.2,1.7,0.6,2.4c0.4,0.7,0.9,1.3,1.6,1.6c0.7,0.4,1.4,0.6,2.3,0.6
			C684.9,528.6,685.7,528.4,686.3,528z"/>
		<path d="M698.4,517.8c0.8-0.4,1.8-0.6,3-0.6v2.3c-0.1,0-0.3,0-0.5,0c-1.3,0-2.3,0.4-3.1,1.2c-0.7,0.8-1.1,1.9-1.1,3.3v6.6h-2.4
			v-13.3h2.3v2.2C697,518.8,697.6,518.2,698.4,517.8z"/>
		<path d="M705.1,530.3c-1-0.3-1.8-0.7-2.4-1.1l1-1.9c0.6,0.4,1.3,0.8,2.1,1c0.8,0.3,1.7,0.4,2.5,0.4c2.1,0,3.1-0.6,3.1-1.8
			c0-0.4-0.1-0.7-0.4-0.9c-0.3-0.2-0.6-0.4-1.1-0.5c-0.4-0.1-1-0.2-1.8-0.4c-1.1-0.2-1.9-0.4-2.6-0.6c-0.7-0.2-1.3-0.6-1.7-1.1
			c-0.5-0.5-0.7-1.2-0.7-2.2c0-1.2,0.5-2.2,1.5-2.9s2.3-1.1,4-1.1c0.9,0,1.8,0.1,2.7,0.3c0.9,0.2,1.6,0.5,2.2,0.9l-1,1.9
			c-1.1-0.7-2.4-1.1-3.8-1.1c-1,0-1.8,0.2-2.3,0.5c-0.5,0.3-0.8,0.8-0.8,1.3c0,0.4,0.1,0.8,0.5,1c0.3,0.3,0.7,0.4,1.1,0.6
			c0.4,0.1,1.1,0.3,1.9,0.4c1.1,0.2,1.9,0.4,2.6,0.6c0.7,0.2,1.2,0.6,1.7,1.1c0.5,0.5,0.7,1.2,0.7,2.1c0,1.2-0.5,2.2-1.5,2.9
			c-1,0.7-2.4,1.1-4.2,1.1C707.1,530.7,706.1,530.6,705.1,530.3z"/>
		<path d="M724.3,530.3c-1-0.3-1.8-0.7-2.4-1.1l1-1.9c0.6,0.4,1.3,0.8,2.1,1c0.8,0.3,1.7,0.4,2.5,0.4c2.1,0,3.1-0.6,3.1-1.8
			c0-0.4-0.1-0.7-0.4-0.9c-0.3-0.2-0.6-0.4-1.1-0.5c-0.4-0.1-1-0.2-1.8-0.4c-1.1-0.2-1.9-0.4-2.6-0.6c-0.7-0.2-1.3-0.6-1.7-1.1
			c-0.5-0.5-0.7-1.2-0.7-2.2c0-1.2,0.5-2.2,1.5-2.9s2.3-1.1,4-1.1c0.9,0,1.8,0.1,2.7,0.3c0.9,0.2,1.6,0.5,2.2,0.9l-1,1.9
			c-1.1-0.7-2.4-1.1-3.8-1.1c-1,0-1.8,0.2-2.3,0.5c-0.5,0.3-0.8,0.8-0.8,1.3c0,0.4,0.1,0.8,0.5,1c0.3,0.3,0.7,0.4,1.1,0.6
			c0.4,0.1,1.1,0.3,1.9,0.4c1.1,0.2,1.9,0.4,2.6,0.6c0.7,0.2,1.2,0.6,1.7,1.1c0.5,0.5,0.7,1.2,0.7,2.1c0,1.2-0.5,2.2-1.5,2.9
			c-1,0.7-2.4,1.1-4.2,1.1C726.4,530.7,725.3,530.6,724.3,530.3z"/>
		<path d="M743.6,529.8c-0.4,0.3-0.8,0.5-1.3,0.7s-1,0.2-1.6,0.2c-1.3,0-2.4-0.4-3.1-1.1c-0.7-0.7-1.1-1.7-1.1-3.1v-7.3h-2.3v-2h2.3
			v-2.9h2.4v2.9h3.8v2h-3.8v7.2c0,0.7,0.2,1.3,0.5,1.6c0.4,0.4,0.9,0.6,1.5,0.6c0.7,0,1.4-0.2,1.9-0.6L743.6,529.8z"/>
		<path d="M755.6,518.5c1,0.9,1.5,2.2,1.5,4v8h-2.3v-1.8c-0.4,0.6-1,1.1-1.7,1.4c-0.7,0.3-1.6,0.5-2.6,0.5c-1.5,0-2.7-0.4-3.6-1.1
			s-1.3-1.7-1.3-2.8c0-1.2,0.4-2.1,1.3-2.8c0.9-0.7,2.2-1.1,4.1-1.1h3.8v-0.5c0-1-0.3-1.8-0.9-2.4c-0.6-0.5-1.5-0.8-2.6-0.8
			c-0.8,0-1.6,0.1-2.3,0.4c-0.8,0.3-1.4,0.6-1.9,1l-1-1.8c0.7-0.6,1.5-1,2.5-1.3c0.9-0.3,2-0.4,3-0.4
			C753.2,517.2,754.6,517.6,755.6,518.5z M753.2,528.2c0.7-0.4,1.2-1,1.5-1.7v-1.9h-3.7c-2,0-3,0.7-3,2c0,0.7,0.3,1.2,0.8,1.6
			s1.2,0.6,2.1,0.6S752.5,528.6,753.2,528.2z"/>
		<path d="M765.6,517.8c0.8-0.4,1.8-0.6,3-0.6v2.3c-0.1,0-0.3,0-0.5,0c-1.3,0-2.3,0.4-3.1,1.2c-0.7,0.8-1.1,1.9-1.1,3.3v6.6h-2.4
			v-13.3h2.3v2.2C764.2,518.8,764.8,518.2,765.6,517.8z"/>
		<path d="M779.6,529.8c-0.4,0.3-0.8,0.5-1.3,0.7s-1,0.2-1.6,0.2c-1.3,0-2.4-0.4-3.1-1.1c-0.7-0.7-1.1-1.7-1.1-3.1v-7.3h-2.3v-2h2.3
			v-2.9h2.4v2.9h3.8v2h-3.8v7.2c0,0.7,0.2,1.3,0.5,1.6c0.4,0.4,0.9,0.6,1.5,0.6c0.7,0,1.4-0.2,1.9-0.6L779.6,529.8z"/>
		<path d="M809.2,517.3l-5,13.3H802l-3.8-10l-3.9,10H792l-4.9-13.3h2.3l3.9,10.5l4-10.5h2l3.9,10.6l3.9-10.6H809.2z"/>
		<path d="M811.7,514.3c-0.3-0.3-0.5-0.7-0.5-1.1c0-0.4,0.2-0.8,0.5-1.1c0.3-0.3,0.7-0.5,1.2-0.5c0.5,0,0.9,0.1,1.2,0.4
			c0.3,0.3,0.5,0.7,0.5,1.1c0,0.4-0.2,0.8-0.5,1.1c-0.3,0.3-0.7,0.5-1.2,0.5C812.4,514.8,812,514.6,811.7,514.3z M811.7,517.3h2.4
			v13.3h-2.4V517.3z"/>
		<path d="M826.1,529.8c-0.4,0.3-0.8,0.5-1.3,0.7s-1,0.2-1.6,0.2c-1.3,0-2.4-0.4-3.1-1.1c-0.7-0.7-1.1-1.7-1.1-3.1v-7.3h-2.3v-2h2.3
			v-2.9h2.4v2.9h3.8v2h-3.8v7.2c0,0.7,0.2,1.3,0.5,1.6c0.4,0.4,0.9,0.6,1.5,0.6c0.7,0,1.4-0.2,1.9-0.6L826.1,529.8z"/>
		<path d="M840.1,518.6c1,1,1.5,2.4,1.5,4.3v7.6h-2.4v-7.4c0-1.3-0.3-2.3-0.9-2.9s-1.5-1-2.6-1c-1.3,0-2.3,0.4-3.1,1.1
			s-1.1,1.8-1.1,3.3v6.8H829V512h2.4v7.2c0.5-0.6,1.2-1.1,2-1.5c0.8-0.4,1.7-0.5,2.7-0.5C837.7,517.2,839.1,517.7,840.1,518.6z"/>
		<path d="M860.2,529.8c-0.4,0.3-0.8,0.5-1.3,0.7s-1,0.2-1.6,0.2c-1.3,0-2.4-0.4-3.1-1.1c-0.7-0.7-1.1-1.7-1.1-3.1v-7.3h-2.3v-2h2.3
			v-2.9h2.4v2.9h3.8v2h-3.8v7.2c0,0.7,0.2,1.3,0.5,1.6c0.4,0.4,0.9,0.6,1.5,0.6c0.7,0,1.4-0.2,1.9-0.6L860.2,529.8z"/>
		<path d="M874.2,518.6c1,1,1.5,2.4,1.5,4.3v7.6h-2.4v-7.4c0-1.3-0.3-2.3-0.9-2.9s-1.5-1-2.6-1c-1.3,0-2.3,0.4-3.1,1.1
			s-1.1,1.8-1.1,3.3v6.8h-2.4V512h2.4v7.2c0.5-0.6,1.2-1.1,2-1.5c0.8-0.4,1.7-0.5,2.7-0.5C871.8,517.2,873.2,517.7,874.2,518.6z"/>
		<path d="M892.1,524.7h-10.8c0.1,1.2,0.7,2.1,1.5,2.8c0.9,0.7,2,1.1,3.3,1.1c1.6,0,2.9-0.5,3.8-1.6l1.3,1.5
			c-0.6,0.7-1.3,1.2-2.2,1.6c-0.9,0.4-1.9,0.5-3,0.5c-1.4,0-2.6-0.3-3.7-0.9c-1.1-0.6-1.9-1.4-2.5-2.4c-0.6-1-0.9-2.2-0.9-3.5
			c0-1.3,0.3-2.4,0.9-3.5c0.6-1,1.4-1.8,2.4-2.4c1-0.6,2.1-0.9,3.4-0.9c1.3,0,2.4,0.3,3.4,0.9c1,0.6,1.8,1.4,2.3,2.4
			c0.6,1,0.8,2.2,0.8,3.6C892.2,524.2,892.1,524.4,892.1,524.7z M882.7,520.3c-0.8,0.7-1.2,1.6-1.4,2.8h8.5c-0.1-1.1-0.6-2-1.4-2.7
			c-0.8-0.7-1.7-1.1-2.9-1.1C884.5,519.2,883.5,519.5,882.7,520.3z"/>
		<path d="M638.3,562.2c-0.6,0.7-1.2,1.2-2,1.5s-1.6,0.5-2.4,0.5c-1.1,0-2.1-0.3-3.1-0.8c-1-0.5-2.1-1.4-3.3-2.7
			c-1.6-0.1-3.1-0.5-4.5-1.3c-1.3-0.8-2.4-1.9-3.1-3.2c-0.7-1.3-1.1-2.8-1.1-4.4c0-1.7,0.4-3.2,1.2-4.6c0.8-1.4,1.9-2.4,3.3-3.2
			c1.4-0.8,3-1.2,4.8-1.2c1.8,0,3.3,0.4,4.8,1.2c1.4,0.8,2.5,1.8,3.3,3.2c0.8,1.4,1.2,2.9,1.2,4.6c0,1.4-0.3,2.8-0.9,4
			c-0.6,1.2-1.4,2.2-2.4,3c-1,0.8-2.2,1.4-3.6,1.7c0.6,0.6,1.1,1.1,1.7,1.3s1.1,0.4,1.7,0.4c1.2,0,2.3-0.5,3.2-1.5L638.3,562.2z
			 M622.3,555.2c0.6,1,1.4,1.8,2.5,2.4c1,0.6,2.2,0.9,3.5,0.9c1.3,0,2.4-0.3,3.5-0.9c1-0.6,1.8-1.4,2.4-2.4c0.6-1,0.9-2.2,0.9-3.4
			s-0.3-2.4-0.9-3.4c-0.6-1-1.4-1.8-2.4-2.4c-1-0.6-2.2-0.9-3.5-0.9c-1.3,0-2.4,0.3-3.5,0.9c-1,0.6-1.9,1.4-2.5,2.4
			c-0.6,1-0.9,2.2-0.9,3.4S621.7,554.2,622.3,555.2z"/>
		<path d="M653.3,547.3v13.3H651v-2c-0.5,0.7-1.1,1.2-1.9,1.6c-0.8,0.4-1.7,0.6-2.6,0.6c-1.8,0-3.2-0.5-4.2-1.5s-1.5-2.4-1.5-4.3
			v-7.6h2.4v7.4c0,1.3,0.3,2.3,0.9,2.9c0.6,0.7,1.5,1,2.6,1c1.3,0,2.3-0.4,3-1.1c0.7-0.8,1.1-1.9,1.1-3.3v-6.9H653.3z"/>
		<path d="M666.9,548.5c1,0.9,1.5,2.2,1.5,4v8h-2.3v-1.8c-0.4,0.6-1,1.1-1.7,1.4c-0.7,0.3-1.6,0.5-2.6,0.5c-1.5,0-2.7-0.4-3.6-1.1
			s-1.3-1.7-1.3-2.8s0.4-2.1,1.3-2.8s2.2-1.1,4.1-1.1h3.8v-0.5c0-1-0.3-1.8-0.9-2.4c-0.6-0.5-1.5-0.8-2.6-0.8
			c-0.8,0-1.6,0.1-2.3,0.4c-0.8,0.3-1.4,0.6-1.9,1l-1-1.8c0.7-0.6,1.5-1,2.5-1.3c0.9-0.3,2-0.4,3-0.4
			C664.5,547.2,665.9,547.6,666.9,548.5z M664.5,558.2c0.7-0.4,1.2-1,1.5-1.7v-1.8h-3.7c-2,0-3,0.7-3,2c0,0.7,0.3,1.2,0.8,1.6
			c0.5,0.4,1.2,0.6,2.1,0.6S663.9,558.6,664.5,558.2z"/>
		<path d="M672.8,542h2.4v18.5h-2.4V542z"/>
		<path d="M679.8,544.3c-0.3-0.3-0.5-0.7-0.5-1.1c0-0.4,0.2-0.8,0.5-1.1c0.3-0.3,0.7-0.5,1.2-0.5c0.5,0,0.9,0.1,1.2,0.4
			c0.3,0.3,0.5,0.7,0.5,1.1c0,0.4-0.2,0.8-0.5,1.1c-0.3,0.3-0.7,0.5-1.2,0.5C680.5,544.8,680.2,544.6,679.8,544.3z M679.8,547.3h2.4
			v13.3h-2.4V547.3z"/>
		<path d="M694.2,559.8c-0.4,0.3-0.8,0.5-1.3,0.7s-1,0.2-1.6,0.2c-1.3,0-2.4-0.4-3.1-1.1c-0.7-0.7-1.1-1.7-1.1-3.1v-7.3h-2.3v-2h2.3
			v-2.9h2.4v2.9h3.8v2h-3.8v7.2c0,0.7,0.2,1.3,0.5,1.7c0.4,0.4,0.9,0.6,1.5,0.6c0.7,0,1.4-0.2,1.9-0.6L694.2,559.8z"/>
		<path d="M708.6,547.3l-6.4,14.6c-0.6,1.3-1.2,2.3-2,2.8c-0.8,0.6-1.7,0.8-2.7,0.8c-0.6,0-1.3-0.1-1.9-0.3s-1.1-0.5-1.5-0.9l1-1.8
			c0.7,0.6,1.5,1,2.4,1c0.6,0,1.1-0.2,1.5-0.5s0.7-0.8,1.1-1.6l0.4-0.9l-5.8-13.2h2.5l4.6,10.6l4.6-10.6H708.6z"/>
		<path d="M729.1,556.2h-9.3l-1.9,4.4h-2.6l7.9-17.5h2.5l8,17.5H731L729.1,556.2z M728.2,554.2l-3.8-8.6l-3.8,8.6H728.2z"/>
		<path d="M736.4,560.3c-1-0.3-1.8-0.7-2.4-1.1l1-1.9c0.6,0.4,1.3,0.8,2.1,1c0.8,0.3,1.7,0.4,2.5,0.4c2.1,0,3.1-0.6,3.1-1.8
			c0-0.4-0.1-0.7-0.4-0.9c-0.3-0.2-0.6-0.4-1.1-0.5c-0.4-0.1-1-0.2-1.8-0.4c-1.1-0.2-1.9-0.4-2.6-0.6c-0.7-0.2-1.3-0.6-1.7-1.1
			c-0.5-0.5-0.7-1.2-0.7-2.2c0-1.2,0.5-2.2,1.5-2.9c1-0.7,2.3-1.1,4-1.1c0.9,0,1.8,0.1,2.7,0.3c0.9,0.2,1.6,0.5,2.2,0.9l-1,1.9
			c-1.1-0.7-2.4-1.1-3.8-1.1c-1,0-1.8,0.2-2.3,0.5c-0.5,0.3-0.8,0.8-0.8,1.3c0,0.4,0.1,0.8,0.5,1c0.3,0.3,0.7,0.4,1.1,0.6
			c0.4,0.1,1.1,0.3,1.9,0.4c1.1,0.2,1.9,0.4,2.6,0.6c0.7,0.2,1.2,0.6,1.7,1.1c0.5,0.5,0.7,1.2,0.7,2.1c0,1.2-0.5,2.2-1.5,2.9
			c-1,0.7-2.4,1.1-4.2,1.1C738.5,560.7,737.4,560.6,736.4,560.3z"/>
		<path d="M749,560.3c-1-0.3-1.8-0.7-2.4-1.1l1-1.9c0.6,0.4,1.3,0.8,2.1,1c0.8,0.3,1.7,0.4,2.5,0.4c2.1,0,3.1-0.6,3.1-1.8
			c0-0.4-0.1-0.7-0.4-0.9c-0.3-0.2-0.6-0.4-1.1-0.5c-0.4-0.1-1-0.2-1.8-0.4c-1.1-0.2-1.9-0.4-2.6-0.6c-0.7-0.2-1.3-0.6-1.7-1.1
			c-0.5-0.5-0.7-1.2-0.7-2.2c0-1.2,0.5-2.2,1.5-2.9c1-0.7,2.3-1.1,4-1.1c0.9,0,1.8,0.1,2.7,0.3c0.9,0.2,1.6,0.5,2.2,0.9l-1,1.9
			c-1.1-0.7-2.4-1.1-3.8-1.1c-1,0-1.8,0.2-2.3,0.5c-0.5,0.3-0.8,0.8-0.8,1.3c0,0.4,0.1,0.8,0.5,1c0.3,0.3,0.7,0.4,1.1,0.6
			c0.4,0.1,1.1,0.3,1.9,0.4c1.1,0.2,1.9,0.4,2.6,0.6c0.7,0.2,1.2,0.6,1.7,1.1c0.5,0.5,0.7,1.2,0.7,2.1c0,1.2-0.5,2.2-1.5,2.9
			c-1,0.7-2.4,1.1-4.2,1.1C751,560.7,750,560.6,749,560.3z"/>
		<path d="M772.7,554.7H762c0.1,1.2,0.7,2.1,1.5,2.8c0.9,0.7,2,1.1,3.3,1.1c1.6,0,2.9-0.5,3.8-1.6l1.3,1.5c-0.6,0.7-1.3,1.2-2.2,1.6
			c-0.9,0.4-1.9,0.5-3,0.5c-1.4,0-2.6-0.3-3.7-0.9c-1.1-0.6-1.9-1.4-2.5-2.4c-0.6-1-0.9-2.2-0.9-3.5c0-1.3,0.3-2.4,0.9-3.5
			c0.6-1,1.4-1.8,2.4-2.4c1-0.6,2.1-0.9,3.4-0.9c1.3,0,2.4,0.3,3.4,0.9c1,0.6,1.8,1.4,2.3,2.4c0.6,1,0.8,2.2,0.8,3.6
			C772.8,554.2,772.8,554.4,772.7,554.7z M763.3,550.3c-0.8,0.7-1.2,1.6-1.4,2.8h8.5c-0.1-1.1-0.6-2-1.4-2.7
			c-0.8-0.7-1.7-1.1-2.9-1.1C765.1,549.2,764.1,549.5,763.3,550.3z"/>
		<path d="M776.8,560.3c-1-0.3-1.8-0.7-2.4-1.1l1-1.9c0.6,0.4,1.3,0.8,2.1,1c0.8,0.3,1.7,0.4,2.5,0.4c2.1,0,3.1-0.6,3.1-1.8
			c0-0.4-0.1-0.7-0.4-0.9c-0.3-0.2-0.6-0.4-1.1-0.5c-0.4-0.1-1-0.2-1.8-0.4c-1.1-0.2-1.9-0.4-2.6-0.6c-0.7-0.2-1.3-0.6-1.7-1.1
			c-0.5-0.5-0.7-1.2-0.7-2.2c0-1.2,0.5-2.2,1.5-2.9c1-0.7,2.3-1.1,4-1.1c0.9,0,1.8,0.1,2.7,0.3c0.9,0.2,1.6,0.5,2.2,0.9l-1,1.9
			c-1.1-0.7-2.4-1.1-3.8-1.1c-1,0-1.8,0.2-2.3,0.5c-0.5,0.3-0.8,0.8-0.8,1.3c0,0.4,0.1,0.8,0.5,1c0.3,0.3,0.7,0.4,1.1,0.6
			c0.4,0.1,1.1,0.3,1.9,0.4c1.1,0.2,1.9,0.4,2.6,0.6c0.7,0.2,1.2,0.6,1.7,1.1c0.5,0.5,0.7,1.2,0.7,2.1c0,1.2-0.5,2.2-1.5,2.9
			c-1,0.7-2.4,1.1-4.2,1.1C778.8,560.7,777.8,560.6,776.8,560.3z"/>
		<path d="M789.3,560.3c-1-0.3-1.8-0.7-2.4-1.1l1-1.9c0.6,0.4,1.3,0.8,2.1,1c0.8,0.3,1.7,0.4,2.5,0.4c2.1,0,3.1-0.6,3.1-1.8
			c0-0.4-0.1-0.7-0.4-0.9c-0.3-0.2-0.6-0.4-1.1-0.5c-0.4-0.1-1-0.2-1.8-0.4c-1.1-0.2-1.9-0.4-2.6-0.6c-0.7-0.2-1.3-0.6-1.7-1.1
			c-0.5-0.5-0.7-1.2-0.7-2.2c0-1.2,0.5-2.2,1.5-2.9c1-0.7,2.3-1.1,4-1.1c0.9,0,1.8,0.1,2.7,0.3c0.9,0.2,1.6,0.5,2.2,0.9l-1,1.9
			c-1.1-0.7-2.4-1.1-3.8-1.1c-1,0-1.8,0.2-2.3,0.5c-0.5,0.3-0.8,0.8-0.8,1.3c0,0.4,0.1,0.8,0.5,1c0.3,0.3,0.7,0.4,1.1,0.6
			c0.4,0.1,1.1,0.3,1.9,0.4c1.1,0.2,1.9,0.4,2.6,0.6c0.7,0.2,1.2,0.6,1.7,1.1c0.5,0.5,0.7,1.2,0.7,2.1c0,1.2-0.5,2.2-1.5,2.9
			c-1,0.7-2.4,1.1-4.2,1.1C791.3,560.7,790.3,560.6,789.3,560.3z"/>
		<path d="M821.7,548.6c1,1,1.5,2.4,1.5,4.3v7.6h-2.4v-7.4c0-1.3-0.3-2.3-0.9-2.9s-1.4-1-2.5-1c-1.2,0-2.2,0.4-2.9,1.1
			c-0.7,0.8-1.1,1.8-1.1,3.3v6.8H811v-7.4c0-1.3-0.3-2.3-0.9-2.9c-0.6-0.6-1.4-1-2.5-1c-1.2,0-2.2,0.4-2.9,1.1
			c-0.7,0.8-1.1,1.8-1.1,3.3v6.8h-2.4v-13.3h2.3v2c0.5-0.7,1.1-1.2,1.9-1.6c0.8-0.4,1.7-0.5,2.7-0.5c1,0,2,0.2,2.8,0.6
			c0.8,0.4,1.4,1,1.9,1.8c0.5-0.8,1.2-1.4,2.1-1.8c0.9-0.4,1.9-0.6,3-0.6C819.4,547.2,820.7,547.7,821.7,548.6z"/>
		<path d="M839.6,554.7h-10.8c0.1,1.2,0.7,2.1,1.5,2.8c0.9,0.7,2,1.1,3.3,1.1c1.6,0,2.9-0.5,3.8-1.6l1.3,1.5
			c-0.6,0.7-1.3,1.2-2.2,1.6c-0.9,0.4-1.9,0.5-3,0.5c-1.4,0-2.6-0.3-3.7-0.9c-1.1-0.6-1.9-1.4-2.5-2.4c-0.6-1-0.9-2.2-0.9-3.5
			c0-1.3,0.3-2.4,0.9-3.5c0.6-1,1.4-1.8,2.4-2.4c1-0.6,2.1-0.9,3.4-0.9c1.3,0,2.4,0.3,3.4,0.9c1,0.6,1.8,1.4,2.3,2.4
			c0.6,1,0.8,2.2,0.8,3.6C839.6,554.2,839.6,554.4,839.6,554.7z M830.2,550.3c-0.8,0.7-1.2,1.6-1.4,2.8h8.5c-0.1-1.1-0.6-2-1.4-2.7
			c-0.8-0.7-1.7-1.1-2.9-1.1C831.9,549.2,831,549.5,830.2,550.3z"/>
		<path d="M854,548.6c1,1,1.5,2.4,1.5,4.3v7.6h-2.4v-7.4c0-1.3-0.3-2.3-0.9-2.9s-1.5-1-2.6-1c-1.3,0-2.3,0.4-3.1,1.1
			c-0.8,0.8-1.1,1.8-1.1,3.3v6.8H843v-13.3h2.3v2c0.5-0.7,1.1-1.2,2-1.6c0.8-0.4,1.8-0.5,2.8-0.5C851.7,547.2,853,547.7,854,548.6z"
			/>
		<path d="M867.4,559.8c-0.4,0.3-0.8,0.5-1.3,0.7s-1,0.2-1.6,0.2c-1.3,0-2.4-0.4-3.1-1.1c-0.7-0.7-1.1-1.7-1.1-3.1v-7.3h-2.3v-2h2.3
			v-2.9h2.4v2.9h3.8v2h-3.8v7.2c0,0.7,0.2,1.3,0.5,1.7c0.4,0.4,0.9,0.6,1.5,0.6c0.7,0,1.4-0.2,1.9-0.6L867.4,559.8z"/>
	</g>
</g>
<g>
	<path class="st0" d="M1918,415.1h-12v1h12V415.1L1918,415.1z M1894,415.1h-12v1h12V415.1L1894,415.1z M1870,415.1h-12v1h12V415.1
		L1870,415.1z M1846,415.1h-12v1h12V415.1L1846,415.1z M1822,415.1h-12v1h12V415.1L1822,415.1z M1798,415.1h-12v1h12V415.1
		L1798,415.1z M1774,415.1h-12v1h12V415.1L1774,415.1z M1750,415.1h-12v1h12V415.1L1750,415.1z M1726,415.1h-12v1h12V415.1
		L1726,415.1z M1702,415.1h-12v1h12V415.1L1702,415.1z M1678,415.1h-12v1h12V415.1L1678,415.1z M1654,415.1h-12v1h12V415.1
		L1654,415.1z M1630,415.1h-12v1h12V415.1L1630,415.1z M1606,415.1h-12v1h12V415.1L1606,415.1z M1582,415.1h-12v1h12V415.1
		L1582,415.1z M1558,415.1h-12v1h12V415.1L1558,415.1z M1534,415.1h-12v1h12V415.1L1534,415.1z M1510,415.1h-12v1h12V415.1
		L1510,415.1z M1486,415.1h-12v1h12V415.1L1486,415.1z M1462,415.1h-12v1h12V415.1L1462,415.1z M1438,415.1h-12v1h12V415.1
		L1438,415.1z M1414,415.1h-12v1h12V415.1L1414,415.1z M1390,415.1h-12v1h12V415.1L1390,415.1z M1366,415.1h-12v1h12V415.1
		L1366,415.1z M1342,415.1h-12v1h12V415.1L1342,415.1z M1318,415.1h-12v1h12V415.1L1318,415.1z M1294,415.1h-12v1h12V415.1
		L1294,415.1z M1270,415.1h-12v1h12V415.1L1270,415.1z M1246,415.1h-12v1h12V415.1L1246,415.1z M1222,415.1h-12v1h12V415.1
		L1222,415.1z M1198,415.1h-12v1h12V415.1L1198,415.1z M1174,415.1h-12v1h12V415.1L1174,415.1z M1150,415.1h-12v1h12V415.1
		L1150,415.1z M1126,415.1h-12v1h12V415.1L1126,415.1z M1102,415.1h-12v1h12V415.1L1102,415.1z M1078,415.1h-12v1h12V415.1
		L1078,415.1z M1054,415.1h-12v1h12V415.1L1054,415.1z M1030,415.1h-3v1l0,0c0,2.3,0,8,0,8h1v-8h2V415.1L1030,415.1z M1028,436.1h-1
		v12h1V436.1L1028,436.1z M1028,460.1h-1v12h1V460.1L1028,460.1z M1028,484.1h-1v12h1V484.1L1028,484.1z M1028,508.1h-1v12h1V508.1
		L1028,508.1z M1028,532.1h-1v12h1V532.1L1028,532.1z M1028,556.1h-1v12h1V556.1L1028,556.1z M1028,580.1h-1v12h1V580.1L1028,580.1z
		 M1028,604.1h-1v12h1V604.1L1028,604.1z M1028,628.1h-1v12h1V628.1L1028,628.1z M1028,652.1h-1v2.9h1l0,0l0,0l0,0l0,0
		c2.4,0,8.1,0,8.1,0v-1h-8.1V652.1L1028,652.1z M1060,654h-12v1h12V654L1060,654z M1084,654h-12v1h12V654L1084,654z M1108,654h-12v1
		h12V654L1108,654z M1132,654h-12v1h12V654L1132,654z M1156,654h-12v1h12V654L1156,654z M1180,654h-12v1h12V654L1180,654z M1204,654
		h-12v1h12V654L1204,654z M1228,654h-12v1h12V654L1228,654z M1252,654h-12v1h12V654L1252,654z M1276,654h-12v1h12V654L1276,654z
		 M1300,654h-12v1h12V654L1300,654z M1324,654h-12v1h12V654L1324,654z M1348,654h-12v1h12V654L1348,654z M1372,654h-12v1h12V654
		L1372,654z M1396,654h-12v1h12V654L1396,654z M1420,654h-12v1h12V654L1420,654z M1444,654h-12v1h12V654L1444,654z M1468,654h-12v1
		h12V654L1468,654z M1492,654h-12v1h12V654L1492,654z M1516,654h-12v1h12V654L1516,654z M1540,654h-12v1h12V654L1540,654z M1564,654
		h-12v1h12V654L1564,654z M1588,654h-12v1h12V654L1588,654z M1612,654h-12v1h12V654L1612,654z M1636,654h-12v1h12V654L1636,654z
		 M1660,654h-12v1h12V654L1660,654z M1684,654h-12v1h12V654L1684,654z M1708,654h-12v1h12V654L1708,654z M1732,654h-12v1h12V654
		L1732,654z M1756,654h-12v1h12V654L1756,654z M1780,654h-12v1h12V654L1780,654z M1804,654h-12v1h12V654L1804,654z M1828,654h-12v1
		h12V654L1828,654z M1852,654h-12v1h12V654L1852,654z M1876,654h-12v1h12V654L1876,654z M1900,654h-12v1h12V654L1900,654z M1924,654
		h-12v1h12V654L1924,654z M1942,649h-1v5h-5v1h6V649L1942,649z M1942,625h-1v12h1V625L1942,625z M1942,601h-1v12h1V601L1942,601z
		 M1942,577h-1v12h1V577L1942,577z M1942,553h-1v12h1V553L1942,553z M1942,529h-1v12h1V529L1942,529z M1942,505h-1v12h1V505
		L1942,505z M1942,481h-1v12h1V481L1942,481z M1942,457h-1v12h1V457L1942,457z M1942,433h-1v12h1V433L1942,433z M1942,415.1h-12v1
		h11v4.8h1V415.1L1942,415.1z"/>
</g>
<rect x="1375" y="389" class="st1" width="218" height="51"/>
<g>
	<rect x="1075" y="470.4" class="st2" width="370" height="121.6"/>
</g>
<g>
	<g>
		<rect x="1447" y="523.2" class="st3" width="46.9" height="15"/>
	</g>
	<g>
		<polygon class="st3" points="1506.4,522 1494,512.7 1494,531.2 1494,549.6 1506.4,540.4 1518.7,531.2 		"/>
	</g>
</g>
<g>
	<g>
		<rect x="1893" y="523.2" class="st3" width="114.9" height="15.4"/>
	</g>
	<g>
		<polygon class="st3" points="2020.4,522 2008,512.7 2008,531.2 2008,549.6 2020.4,540.4 2032.7,531.2 		"/>
	</g>
</g>
<g>
	<g>
		<path d="M1119.2,514.7c1.3,1.1,2,2.6,2,4.5s-0.6,3.4-2,4.5c-1.3,1.1-3.1,1.6-5.3,1.6h-4.3v5.3h-2.5V513h6.8
			C1116.1,513,1117.9,513.6,1119.2,514.7z M1117.4,522.1c0.8-0.7,1.3-1.6,1.3-2.9s-0.4-2.2-1.3-2.9c-0.8-0.7-2-1-3.6-1h-4.3v7.9h4.3
			C1115.3,523.1,1116.5,522.7,1117.4,522.1z"/>
		<path d="M1128.4,517.8c0.8-0.4,1.8-0.6,3-0.6v2.3c-0.1,0-0.3,0-0.5,0c-1.3,0-2.3,0.4-3.1,1.2c-0.7,0.8-1.1,1.9-1.1,3.3v6.6h-2.4
			v-13.3h2.3v2.2C1126.9,518.8,1127.6,518.2,1128.4,517.8z"/>
		<path d="M1136.3,529.8c-1-0.6-1.9-1.4-2.5-2.4c-0.6-1-0.9-2.2-0.9-3.5s0.3-2.5,0.9-3.5c0.6-1,1.4-1.8,2.5-2.4
			c1.1-0.6,2.2-0.9,3.6-0.9c1.3,0,2.5,0.3,3.5,0.9c1,0.6,1.9,1.4,2.5,2.4c0.6,1,0.9,2.2,0.9,3.5s-0.3,2.5-0.9,3.5
			c-0.6,1-1.4,1.8-2.5,2.4c-1,0.6-2.2,0.9-3.5,0.9C1138.5,530.7,1137.3,530.4,1136.3,529.8z M1142.1,528c0.7-0.4,1.2-0.9,1.6-1.6
			c0.4-0.7,0.6-1.5,0.6-2.4c0-0.9-0.2-1.7-0.6-2.4c-0.4-0.7-0.9-1.3-1.6-1.6c-0.7-0.4-1.4-0.6-2.3-0.6c-0.9,0-1.6,0.2-2.3,0.6
			c-0.7,0.4-1.2,0.9-1.6,1.6c-0.4,0.7-0.6,1.5-0.6,2.4c0,0.9,0.2,1.7,0.6,2.4c0.4,0.7,0.9,1.3,1.6,1.6c0.7,0.4,1.4,0.6,2.3,0.6
			C1140.7,528.6,1141.5,528.4,1142.1,528z"/>
		<path d="M1162.7,517.3v11.5c0,2.3-0.6,4-1.7,5.1s-2.9,1.7-5.1,1.7c-1.3,0-2.4-0.2-3.6-0.5c-1.1-0.3-2-0.8-2.8-1.5l1.1-1.9
			c0.6,0.5,1.4,1,2.3,1.3c0.9,0.3,1.8,0.5,2.8,0.5c1.5,0,2.7-0.4,3.4-1.1c0.7-0.7,1.1-1.8,1.1-3.3v-1.1c-0.6,0.7-1.3,1.2-2.1,1.5
			c-0.8,0.3-1.7,0.5-2.7,0.5c-1.3,0-2.4-0.3-3.4-0.8s-1.8-1.3-2.4-2.3c-0.6-1-0.9-2.1-0.9-3.3s0.3-2.4,0.9-3.3s1.4-1.7,2.4-2.3
			c1-0.5,2.2-0.8,3.4-0.8c1,0,1.9,0.2,2.8,0.5c0.9,0.4,1.6,0.9,2.1,1.6v-2H1162.7z M1158.2,527.3c0.7-0.4,1.2-0.9,1.6-1.5
			c0.4-0.7,0.6-1.4,0.6-2.2c0-1.3-0.4-2.3-1.3-3.1c-0.9-0.8-1.9-1.2-3.3-1.2c-1.3,0-2.4,0.4-3.3,1.2s-1.3,1.8-1.3,3.1
			c0,0.8,0.2,1.6,0.6,2.2s0.9,1.2,1.6,1.5c0.7,0.4,1.5,0.6,2.4,0.6C1156.7,527.9,1157.5,527.7,1158.2,527.3z"/>
		<path d="M1171.4,517.8c0.8-0.4,1.8-0.6,3-0.6v2.3c-0.1,0-0.3,0-0.5,0c-1.3,0-2.3,0.4-3.1,1.2c-0.7,0.8-1.1,1.9-1.1,3.3v6.6h-2.4
			v-13.3h2.3v2.2C1170,518.8,1170.6,518.2,1171.4,517.8z"/>
		<path d="M1186.4,518.5c1,0.9,1.5,2.2,1.5,4v8h-2.3v-1.8c-0.4,0.6-1,1.1-1.7,1.4c-0.7,0.3-1.6,0.5-2.6,0.5c-1.5,0-2.7-0.4-3.6-1.1
			s-1.3-1.7-1.3-2.8c0-1.2,0.4-2.1,1.3-2.8c0.9-0.7,2.2-1.1,4.1-1.1h3.8v-0.5c0-1-0.3-1.8-0.9-2.4c-0.6-0.5-1.5-0.8-2.6-0.8
			c-0.8,0-1.6,0.1-2.3,0.4c-0.8,0.3-1.4,0.6-1.9,1l-1-1.8c0.7-0.6,1.5-1,2.5-1.3c0.9-0.3,2-0.4,3-0.4
			C1184,517.2,1185.4,517.6,1186.4,518.5z M1184,528.2c0.7-0.4,1.2-1,1.5-1.7v-1.9h-3.7c-2,0-3,0.7-3,2c0,0.7,0.3,1.2,0.8,1.6
			s1.2,0.6,2.1,0.6S1183.3,528.6,1184,528.2z"/>
		<path d="M1212.8,518.6c1,1,1.5,2.4,1.5,4.3v7.6h-2.4v-7.4c0-1.3-0.3-2.3-0.9-2.9s-1.4-1-2.5-1c-1.2,0-2.2,0.4-2.9,1.1
			s-1.1,1.8-1.1,3.3v6.8h-2.4v-7.4c0-1.3-0.3-2.3-0.9-2.9c-0.6-0.6-1.4-1-2.5-1c-1.2,0-2.2,0.4-2.9,1.1c-0.7,0.8-1.1,1.8-1.1,3.3
			v6.8h-2.4v-13.3h2.3v2c0.5-0.7,1.1-1.2,1.9-1.6c0.8-0.4,1.7-0.5,2.7-0.5c1,0,2,0.2,2.8,0.6c0.8,0.4,1.4,1,1.9,1.8
			c0.5-0.8,1.2-1.4,2.1-1.8c0.9-0.4,1.9-0.6,3-0.6C1210.5,517.2,1211.9,517.7,1212.8,518.6z"/>
		<path d="M1219.4,530.3c-1-0.3-1.8-0.7-2.4-1.1l1-1.9c0.6,0.4,1.3,0.8,2.1,1c0.8,0.3,1.7,0.4,2.5,0.4c2.1,0,3.1-0.6,3.1-1.8
			c0-0.4-0.1-0.7-0.4-0.9c-0.3-0.2-0.6-0.4-1.1-0.5c-0.4-0.1-1-0.2-1.8-0.4c-1.1-0.2-1.9-0.4-2.6-0.6c-0.7-0.2-1.3-0.6-1.7-1.1
			c-0.5-0.5-0.7-1.2-0.7-2.2c0-1.2,0.5-2.2,1.5-2.9s2.3-1.1,4-1.1c0.9,0,1.8,0.1,2.7,0.3c0.9,0.2,1.6,0.5,2.2,0.9l-1,1.9
			c-1.1-0.7-2.4-1.1-3.8-1.1c-1,0-1.8,0.2-2.3,0.5c-0.5,0.3-0.8,0.8-0.8,1.3c0,0.4,0.1,0.8,0.5,1c0.3,0.3,0.7,0.4,1.1,0.6
			c0.4,0.1,1.1,0.3,1.9,0.4c1.1,0.2,1.9,0.4,2.6,0.6c0.7,0.2,1.2,0.6,1.7,1.1c0.5,0.5,0.7,1.2,0.7,2.1c0,1.2-0.5,2.2-1.5,2.9
			c-1,0.7-2.4,1.1-4.2,1.1C1221.4,530.7,1220.4,530.6,1219.4,530.3z"/>
		<path d="M1247,518.5c1,0.9,1.5,2.2,1.5,4v8h-2.3v-1.8c-0.4,0.6-1,1.1-1.7,1.4c-0.7,0.3-1.6,0.5-2.6,0.5c-1.5,0-2.7-0.4-3.6-1.1
			s-1.3-1.7-1.3-2.8c0-1.2,0.4-2.1,1.3-2.8c0.9-0.7,2.2-1.1,4.1-1.1h3.8v-0.5c0-1-0.3-1.8-0.9-2.4c-0.6-0.5-1.5-0.8-2.6-0.8
			c-0.8,0-1.6,0.1-2.3,0.4c-0.8,0.3-1.4,0.6-1.9,1l-1-1.8c0.7-0.6,1.5-1,2.5-1.3c0.9-0.3,2-0.4,3-0.4
			C1244.6,517.2,1246,517.6,1247,518.5z M1244.6,528.2c0.7-0.4,1.2-1,1.5-1.7v-1.9h-3.7c-2,0-3,0.7-3,2c0,0.7,0.3,1.2,0.8,1.6
			s1.2,0.6,2.1,0.6S1244,528.6,1244.6,528.2z"/>
		<path d="M1264,518.6c1,1,1.5,2.4,1.5,4.3v7.6h-2.4v-7.4c0-1.3-0.3-2.3-0.9-2.9c-0.6-0.6-1.5-1-2.7-1c-1.3,0-2.3,0.4-3.1,1.1
			s-1.1,1.8-1.1,3.3v6.8h-2.4v-13.3h2.3v2c0.5-0.7,1.1-1.2,2-1.6c0.8-0.4,1.8-0.5,2.8-0.5C1261.7,517.2,1263,517.7,1264,518.6z"/>
		<path d="M1282.5,512v18.5h-2.3v-2.1c-0.5,0.7-1.2,1.3-2,1.7c-0.8,0.4-1.7,0.6-2.7,0.6c-1.3,0-2.4-0.3-3.5-0.9
			c-1-0.6-1.8-1.4-2.4-2.4c-0.6-1-0.9-2.2-0.9-3.5c0-1.3,0.3-2.5,0.9-3.5c0.6-1,1.4-1.8,2.4-2.4c1-0.6,2.2-0.9,3.5-0.9
			c1,0,1.8,0.2,2.6,0.5s1.5,0.9,2,1.6V512H1282.5z M1278,528c0.7-0.4,1.2-0.9,1.6-1.6c0.4-0.7,0.6-1.5,0.6-2.4
			c0-0.9-0.2-1.7-0.6-2.4c-0.4-0.7-0.9-1.3-1.6-1.6c-0.7-0.4-1.4-0.6-2.3-0.6c-0.9,0-1.6,0.2-2.3,0.6c-0.7,0.4-1.2,0.9-1.6,1.6
			c-0.4,0.7-0.6,1.5-0.6,2.4c0,0.9,0.2,1.7,0.6,2.4c0.4,0.7,0.9,1.3,1.6,1.6c0.7,0.4,1.4,0.6,2.3,0.6
			C1276.5,528.6,1277.3,528.4,1278,528z"/>
		<path d="M1306.3,514.7c1.3,1.1,2,2.6,2,4.5s-0.7,3.4-2,4.5c-1.3,1.1-3.1,1.6-5.3,1.6h-4.3v5.3h-2.5V513h6.8
			C1303.2,513,1305,513.6,1306.3,514.7z M1304.5,522.1c0.8-0.7,1.3-1.6,1.3-2.9s-0.4-2.2-1.3-2.9c-0.8-0.7-2-1-3.6-1h-4.3v7.9h4.3
			C1302.5,523.1,1303.7,522.7,1304.5,522.1z"/>
		<path d="M1311.8,512h2.4v18.5h-2.4V512z"/>
		<path d="M1327.9,518.5c1,0.9,1.5,2.2,1.5,4v8h-2.3v-1.8c-0.4,0.6-1,1.1-1.7,1.4c-0.7,0.3-1.6,0.5-2.6,0.5c-1.5,0-2.7-0.4-3.6-1.1
			s-1.3-1.7-1.3-2.8c0-1.2,0.4-2.1,1.3-2.8c0.8-0.7,2.2-1.1,4.1-1.1h3.8v-0.5c0-1-0.3-1.8-0.9-2.4c-0.6-0.5-1.5-0.8-2.6-0.8
			c-0.8,0-1.6,0.1-2.3,0.4c-0.8,0.3-1.4,0.6-1.9,1l-1-1.8c0.7-0.6,1.5-1,2.5-1.3c0.9-0.3,2-0.4,3-0.4
			C1325.5,517.2,1326.9,517.6,1327.9,518.5z M1325.5,528.2c0.7-0.4,1.2-1,1.4-1.7v-1.9h-3.7c-2,0-3.1,0.7-3.1,2
			c0,0.7,0.3,1.2,0.8,1.6s1.2,0.6,2.2,0.6C1324,528.8,1324.8,528.6,1325.5,528.2z"/>
		<path d="M1341.2,529.8c-0.4,0.3-0.8,0.5-1.3,0.7s-1,0.2-1.6,0.2c-1.3,0-2.4-0.4-3.1-1.1c-0.7-0.7-1.1-1.7-1.1-3.1v-7.3h-2.3v-2
			h2.3v-2.9h2.4v2.9h3.8v2h-3.8v7.2c0,0.7,0.2,1.3,0.5,1.6c0.4,0.4,0.9,0.6,1.5,0.6c0.7,0,1.4-0.2,1.9-0.6L1341.2,529.8z"/>
		<path d="M1346.8,516.1v1.1h3.8v2h-3.8v11.3h-2.4v-11.3h-2.3v-2h2.3v-1.2c0-1.3,0.4-2.4,1.1-3.1c0.8-0.8,1.8-1.2,3.2-1.2
			c0.5,0,1,0.1,1.5,0.2c0.5,0.1,0.9,0.3,1.2,0.6l-0.7,1.8c-0.6-0.4-1.2-0.6-1.9-0.6C1347.5,513.8,1346.8,514.6,1346.8,516.1z"/>
		<path d="M1354.9,529.8c-1-0.6-1.9-1.4-2.5-2.4c-0.6-1-0.9-2.2-0.9-3.5s0.3-2.5,0.9-3.5c0.6-1,1.4-1.8,2.5-2.4
			c1.1-0.6,2.2-0.9,3.6-0.9s2.5,0.3,3.5,0.9c1,0.6,1.9,1.4,2.5,2.4c0.6,1,0.9,2.2,0.9,3.5s-0.3,2.5-0.9,3.5c-0.6,1-1.4,1.8-2.5,2.4
			c-1,0.6-2.2,0.9-3.5,0.9S1355.9,530.4,1354.9,529.8z M1360.7,528c0.7-0.4,1.2-0.9,1.6-1.6c0.4-0.7,0.6-1.5,0.6-2.4
			c0-0.9-0.2-1.7-0.6-2.4c-0.4-0.7-0.9-1.3-1.6-1.6c-0.7-0.4-1.4-0.6-2.3-0.6s-1.6,0.2-2.3,0.6c-0.7,0.4-1.2,0.9-1.6,1.6
			c-0.4,0.7-0.6,1.5-0.6,2.4c0,0.9,0.2,1.7,0.6,2.4c0.4,0.7,0.9,1.3,1.6,1.6c0.7,0.4,1.4,0.6,2.3,0.6S1360,528.4,1360.7,528z"/>
		<path d="M1372.8,517.8c0.8-0.4,1.8-0.6,3-0.6v2.3c-0.1,0-0.3,0-0.5,0c-1.3,0-2.3,0.4-3.1,1.2c-0.7,0.8-1.1,1.9-1.1,3.3v6.6h-2.4
			v-13.3h2.3v2.2C1371.3,518.8,1371.9,518.2,1372.8,517.8z"/>
		<path d="M1399.2,518.6c1,1,1.5,2.4,1.5,4.3v7.6h-2.4v-7.4c0-1.3-0.3-2.3-0.9-2.9s-1.4-1-2.5-1c-1.2,0-2.2,0.4-2.9,1.1
			s-1.1,1.8-1.1,3.3v6.8h-2.4v-7.4c0-1.3-0.3-2.3-0.9-2.9c-0.6-0.6-1.4-1-2.5-1c-1.2,0-2.2,0.4-2.9,1.1c-0.7,0.8-1.1,1.8-1.1,3.3
			v6.8h-2.4v-13.3h2.3v2c0.5-0.7,1.1-1.2,1.9-1.6s1.7-0.5,2.7-0.5c1,0,2,0.2,2.8,0.6c0.8,0.4,1.4,1,1.9,1.8c0.5-0.8,1.2-1.4,2.1-1.8
			c0.9-0.4,1.9-0.6,3-0.6C1396.9,517.2,1398.3,517.7,1399.2,518.6z"/>
		<path d="M1405.8,530.3c-1-0.3-1.8-0.7-2.4-1.1l1-1.9c0.6,0.4,1.3,0.8,2.1,1s1.7,0.4,2.5,0.4c2.1,0,3.2-0.6,3.2-1.8
			c0-0.4-0.1-0.7-0.4-0.9c-0.3-0.2-0.6-0.4-1.1-0.5s-1-0.2-1.8-0.4c-1.1-0.2-1.9-0.4-2.6-0.6c-0.7-0.2-1.3-0.6-1.7-1.1
			c-0.5-0.5-0.7-1.2-0.7-2.2c0-1.2,0.5-2.2,1.5-2.9s2.3-1.1,4-1.1c0.9,0,1.8,0.1,2.7,0.3c0.9,0.2,1.6,0.5,2.2,0.9l-1,1.9
			c-1.1-0.7-2.4-1.1-3.8-1.1c-1,0-1.8,0.2-2.3,0.5c-0.5,0.3-0.8,0.8-0.8,1.3c0,0.4,0.2,0.8,0.5,1s0.7,0.4,1.1,0.6s1.1,0.3,1.9,0.4
			c1.1,0.2,1.9,0.4,2.6,0.6c0.7,0.2,1.2,0.6,1.7,1.1c0.5,0.5,0.7,1.2,0.7,2.1c0,1.2-0.5,2.2-1.5,2.9c-1,0.7-2.4,1.1-4.2,1.1
			C1407.8,530.7,1406.8,530.6,1405.8,530.3z"/>
		<path d="M1098.4,547.8c0.8-0.4,1.8-0.6,3-0.6v2.3c-0.1,0-0.3,0-0.5,0c-1.3,0-2.3,0.4-3.1,1.2c-0.7,0.8-1.1,1.9-1.1,3.3v6.6h-2.4
			v-13.3h2.3v2.2C1097,548.8,1097.6,548.2,1098.4,547.8z"/>
		<path d="M1116.1,554.7h-10.8c0.1,1.2,0.7,2.1,1.5,2.8c0.9,0.7,2,1.1,3.3,1.1c1.6,0,2.9-0.5,3.8-1.6l1.3,1.5
			c-0.6,0.7-1.3,1.2-2.2,1.6c-0.9,0.4-1.9,0.5-3,0.5c-1.4,0-2.6-0.3-3.7-0.9c-1.1-0.6-1.9-1.4-2.5-2.4c-0.6-1-0.9-2.2-0.9-3.5
			c0-1.3,0.3-2.4,0.9-3.5c0.6-1,1.4-1.8,2.4-2.4c1-0.6,2.1-0.9,3.4-0.9c1.3,0,2.4,0.3,3.4,0.9c1,0.6,1.8,1.4,2.3,2.4
			c0.6,1,0.8,2.2,0.8,3.6C1116.2,554.2,1116.2,554.4,1116.1,554.7z M1106.7,550.3c-0.8,0.7-1.2,1.6-1.4,2.8h8.5
			c-0.1-1.1-0.6-2-1.4-2.7c-0.8-0.7-1.7-1.1-2.9-1.1C1108.5,549.2,1107.5,549.5,1106.7,550.3z"/>
		<path d="M1130,548c1,0.6,1.8,1.4,2.4,2.4c0.6,1,0.9,2.2,0.9,3.5s-0.3,2.5-0.9,3.5c-0.6,1-1.4,1.8-2.4,2.4s-2.2,0.8-3.5,0.8
			c-0.9,0-1.8-0.2-2.6-0.5c-0.8-0.4-1.5-0.9-2-1.6v6.9h-2.4v-18.1h2.3v2.1c0.5-0.7,1.2-1.3,2-1.7c0.8-0.4,1.7-0.6,2.7-0.6
			C1127.8,547.2,1129,547.5,1130,548z M1128.6,558c0.7-0.4,1.2-0.9,1.6-1.6s0.6-1.5,0.6-2.4s-0.2-1.7-0.6-2.4s-0.9-1.3-1.6-1.6
			c-0.7-0.4-1.4-0.6-2.3-0.6c-0.8,0-1.6,0.2-2.3,0.6c-0.7,0.4-1.2,0.9-1.6,1.6c-0.4,0.7-0.6,1.5-0.6,2.4s0.2,1.7,0.6,2.4
			c0.4,0.7,0.9,1.3,1.6,1.6c0.7,0.4,1.4,0.6,2.3,0.6C1127.2,558.6,1127.9,558.4,1128.6,558z"/>
		<path d="M1136.5,542h2.4v18.5h-2.4V542z"/>
		<path d="M1155.2,547.3l-6.4,14.6c-0.6,1.3-1.2,2.3-2,2.8c-0.8,0.6-1.7,0.8-2.7,0.8c-0.6,0-1.3-0.1-1.9-0.3s-1.1-0.5-1.5-0.9l1-1.8
			c0.7,0.6,1.5,1,2.4,1c0.6,0,1.1-0.2,1.5-0.5s0.7-0.8,1.1-1.6l0.4-0.9l-5.8-13.2h2.5l4.6,10.6l4.6-10.6H1155.2z"/>
		<path d="M1171.7,559.8c-0.4,0.3-0.8,0.5-1.3,0.7s-1,0.2-1.6,0.2c-1.3,0-2.4-0.4-3.1-1.1c-0.7-0.7-1.1-1.7-1.1-3.1v-7.3h-2.3v-2
			h2.3v-2.9h2.4v2.9h3.8v2h-3.8v7.2c0,0.7,0.2,1.3,0.5,1.7c0.4,0.4,0.9,0.6,1.5,0.6c0.7,0,1.4-0.2,1.9-0.6L1171.7,559.8z"/>
		<path d="M1176.2,559.8c-1-0.6-1.9-1.4-2.5-2.4c-0.6-1-0.9-2.2-0.9-3.5s0.3-2.5,0.9-3.5c0.6-1,1.4-1.8,2.5-2.4
			c1.1-0.6,2.2-0.9,3.6-0.9c1.3,0,2.5,0.3,3.5,0.9c1,0.6,1.9,1.4,2.5,2.4c0.6,1,0.9,2.2,0.9,3.5s-0.3,2.5-0.9,3.5
			c-0.6,1-1.4,1.8-2.5,2.4c-1,0.6-2.2,0.9-3.5,0.9C1178.5,560.7,1177.3,560.4,1176.2,559.8z M1182.1,558c0.7-0.4,1.2-0.9,1.6-1.6
			c0.4-0.7,0.6-1.5,0.6-2.4s-0.2-1.7-0.6-2.4c-0.4-0.7-0.9-1.3-1.6-1.6c-0.7-0.4-1.4-0.6-2.3-0.6c-0.9,0-1.6,0.2-2.3,0.6
			c-0.7,0.4-1.2,0.9-1.6,1.6s-0.6,1.5-0.6,2.4s0.2,1.7,0.6,2.4s0.9,1.3,1.6,1.6c0.7,0.4,1.4,0.6,2.3,0.6
			C1180.6,558.6,1181.4,558.4,1182.1,558z"/>
		<path d="M1204.2,559.8c-0.4,0.3-0.8,0.5-1.3,0.7s-1,0.2-1.6,0.2c-1.3,0-2.4-0.4-3.1-1.1c-0.7-0.7-1.1-1.7-1.1-3.1v-7.3h-2.3v-2
			h2.3v-2.9h2.4v2.9h3.8v2h-3.8v7.2c0,0.7,0.2,1.3,0.5,1.7c0.4,0.4,0.9,0.6,1.5,0.6c0.7,0,1.4-0.2,1.9-0.6L1204.2,559.8z"/>
		<path d="M1218.2,548.6c1,1,1.5,2.4,1.5,4.3v7.6h-2.4v-7.4c0-1.3-0.3-2.3-0.9-2.9s-1.5-1-2.6-1c-1.3,0-2.3,0.4-3.1,1.1
			c-0.8,0.8-1.1,1.8-1.1,3.3v6.8h-2.4V542h2.4v7.2c0.5-0.6,1.2-1.1,2-1.5c0.8-0.3,1.7-0.5,2.7-0.5
			C1215.8,547.2,1217.2,547.7,1218.2,548.6z"/>
		<path d="M1236.1,554.7h-10.8c0.1,1.2,0.7,2.1,1.5,2.8c0.9,0.7,2,1.1,3.3,1.1c1.6,0,2.9-0.5,3.8-1.6l1.3,1.5
			c-0.6,0.7-1.3,1.2-2.2,1.6c-0.9,0.4-1.9,0.5-3,0.5c-1.4,0-2.6-0.3-3.7-0.9c-1.1-0.6-1.9-1.4-2.5-2.4c-0.6-1-0.9-2.2-0.9-3.5
			c0-1.3,0.3-2.4,0.9-3.5c0.6-1,1.4-1.8,2.4-2.4c1-0.6,2.1-0.9,3.4-0.9c1.3,0,2.4,0.3,3.4,0.9c1,0.6,1.8,1.4,2.3,2.4
			c0.6,1,0.8,2.2,0.8,3.6C1236.1,554.2,1236.1,554.4,1236.1,554.7z M1226.7,550.3c-0.8,0.7-1.2,1.6-1.4,2.8h8.5
			c-0.1-1.1-0.6-2-1.4-2.7c-0.8-0.7-1.7-1.1-2.9-1.1C1228.4,549.2,1227.5,549.5,1226.7,550.3z"/>
		<path d="M1264.6,562.2c-0.6,0.7-1.2,1.2-2,1.5s-1.6,0.5-2.4,0.5c-1.1,0-2.1-0.3-3.1-0.8c-1-0.5-2.1-1.4-3.3-2.7
			c-1.6-0.1-3.1-0.5-4.5-1.3c-1.3-0.8-2.4-1.9-3.1-3.2c-0.7-1.3-1.1-2.8-1.1-4.4c0-1.7,0.4-3.2,1.2-4.6c0.8-1.4,1.9-2.4,3.3-3.2
			c1.4-0.8,3-1.2,4.8-1.2c1.8,0,3.3,0.4,4.8,1.2c1.4,0.8,2.5,1.8,3.3,3.2c0.8,1.4,1.2,2.9,1.2,4.6c0,1.4-0.3,2.8-0.9,4
			c-0.6,1.2-1.4,2.2-2.4,3c-1,0.8-2.2,1.4-3.6,1.7c0.6,0.6,1.1,1.1,1.7,1.3s1.1,0.4,1.7,0.4c1.2,0,2.3-0.5,3.2-1.5L1264.6,562.2z
			 M1248.5,555.2c0.6,1,1.4,1.8,2.5,2.4c1,0.6,2.2,0.9,3.5,0.9c1.3,0,2.4-0.3,3.5-0.9c1-0.6,1.8-1.4,2.4-2.4c0.6-1,0.9-2.2,0.9-3.4
			s-0.3-2.4-0.9-3.4c-0.6-1-1.4-1.8-2.4-2.4c-1-0.6-2.2-0.9-3.5-0.9c-1.3,0-2.4,0.3-3.5,0.9c-1,0.6-1.9,1.4-2.5,2.4
			c-0.6,1-0.9,2.2-0.9,3.4S1247.9,554.2,1248.5,555.2z"/>
		<path d="M1278.4,556.2h-9.3l-1.9,4.4h-2.6l7.9-17.5h2.5l8,17.5h-2.6L1278.4,556.2z M1277.6,554.2l-3.8-8.6l-3.8,8.6H1277.6z"/>
		<path d="M1294.1,559.8c-1.1-0.6-1.9-1.4-2.5-2.4c-0.6-1-0.9-2.2-0.9-3.5s0.3-2.5,0.9-3.5c0.6-1,1.4-1.8,2.5-2.4
			c1.1-0.6,2.3-0.9,3.6-0.9c1.2,0,2.3,0.2,3.2,0.7c0.9,0.5,1.7,1.2,2.2,2.1l-1.8,1.2c-0.4-0.6-0.9-1.1-1.5-1.4
			c-0.6-0.3-1.3-0.5-2.1-0.5c-0.9,0-1.6,0.2-2.3,0.6c-0.7,0.4-1.2,0.9-1.6,1.6c-0.4,0.7-0.6,1.5-0.6,2.4c0,0.9,0.2,1.8,0.6,2.5
			c0.4,0.7,0.9,1.3,1.6,1.6c0.7,0.4,1.5,0.6,2.3,0.6c0.8,0,1.4-0.2,2.1-0.5c0.6-0.3,1.1-0.8,1.5-1.4l1.8,1.2
			c-0.5,0.9-1.2,1.6-2.2,2.1c-0.9,0.5-2,0.7-3.2,0.7C1296.4,560.7,1295.2,560.4,1294.1,559.8z"/>
		<path d="M1308.2,559.8c-1-0.6-1.9-1.4-2.5-2.4c-0.6-1-0.9-2.2-0.9-3.5s0.3-2.5,0.9-3.5c0.6-1,1.4-1.8,2.5-2.4
			c1-0.6,2.2-0.9,3.5-0.9s2.5,0.3,3.5,0.9c1,0.6,1.9,1.4,2.5,2.4c0.6,1,0.9,2.2,0.9,3.5s-0.3,2.5-0.9,3.5c-0.6,1-1.4,1.8-2.5,2.4
			c-1,0.6-2.2,0.9-3.5,0.9S1309.2,560.4,1308.2,559.8z M1314,558c0.7-0.4,1.2-0.9,1.6-1.6s0.6-1.5,0.6-2.4s-0.2-1.7-0.6-2.4
			s-0.9-1.3-1.6-1.6c-0.7-0.4-1.4-0.6-2.3-0.6s-1.6,0.2-2.3,0.6c-0.7,0.4-1.2,0.9-1.6,1.6c-0.4,0.7-0.6,1.5-0.6,2.4s0.2,1.7,0.6,2.4
			c0.4,0.7,0.9,1.3,1.6,1.6c0.7,0.4,1.4,0.6,2.3,0.6S1313.3,558.4,1314,558z"/>
		<path d="M1342.5,548.6c1,1,1.5,2.4,1.5,4.3v7.6h-2.4v-7.4c0-1.3-0.3-2.3-0.9-2.9s-1.4-1-2.5-1c-1.2,0-2.2,0.4-2.9,1.1
			c-0.7,0.8-1.1,1.8-1.1,3.3v6.8h-2.4v-7.4c0-1.3-0.3-2.3-0.9-2.9c-0.6-0.6-1.4-1-2.5-1c-1.2,0-2.2,0.4-2.9,1.1
			c-0.7,0.8-1.1,1.8-1.1,3.3v6.8h-2.4v-13.3h2.3v2c0.5-0.7,1.1-1.2,1.9-1.6c0.8-0.4,1.7-0.5,2.7-0.5c1,0,2,0.2,2.8,0.6
			s1.4,1,1.9,1.8c0.5-0.8,1.2-1.4,2.1-1.8c0.9-0.4,1.9-0.6,3-0.6C1340.2,547.2,1341.5,547.7,1342.5,548.6z"/>
		<path d="M1368.9,548.6c1,1,1.5,2.4,1.5,4.3v7.6h-2.4v-7.4c0-1.3-0.3-2.3-0.9-2.9s-1.4-1-2.5-1c-1.2,0-2.2,0.4-2.9,1.1
			c-0.7,0.8-1.1,1.8-1.1,3.3v6.8h-2.4v-7.4c0-1.3-0.3-2.3-0.9-2.9s-1.4-1-2.5-1c-1.2,0-2.2,0.4-2.9,1.1c-0.7,0.8-1.1,1.8-1.1,3.3
			v6.8h-2.4v-13.3h2.3v2c0.5-0.7,1.1-1.2,1.9-1.6c0.8-0.4,1.7-0.5,2.7-0.5c1,0,2,0.2,2.8,0.6c0.8,0.4,1.4,1,1.8,1.8
			c0.5-0.8,1.2-1.4,2.1-1.8c0.9-0.4,1.9-0.6,3-0.6C1366.6,547.2,1367.9,547.7,1368.9,548.6z"/>
		<path d="M1386.8,554.7H1376c0.1,1.2,0.7,2.1,1.5,2.8c0.9,0.7,2,1.1,3.3,1.1c1.6,0,2.9-0.5,3.8-1.6l1.3,1.5
			c-0.6,0.7-1.3,1.2-2.2,1.6c-0.9,0.4-1.9,0.5-3,0.5c-1.4,0-2.6-0.3-3.7-0.9c-1.1-0.6-1.9-1.4-2.5-2.4c-0.6-1-0.9-2.2-0.9-3.5
			c0-1.3,0.3-2.4,0.9-3.5c0.6-1,1.4-1.8,2.4-2.4c1-0.6,2.1-0.9,3.4-0.9s2.4,0.3,3.4,0.9c1,0.6,1.8,1.4,2.3,2.4
			c0.6,1,0.8,2.2,0.8,3.6C1386.8,554.2,1386.8,554.4,1386.8,554.7z M1377.4,550.3c-0.8,0.7-1.2,1.6-1.4,2.8h8.5
			c-0.1-1.1-0.6-2-1.4-2.7c-0.8-0.7-1.7-1.1-2.9-1.1C1379.1,549.2,1378.2,549.5,1377.4,550.3z"/>
		<path d="M1401.2,548.6c1,1,1.5,2.4,1.5,4.3v7.6h-2.4v-7.4c0-1.3-0.3-2.3-0.9-2.9c-0.6-0.6-1.5-1-2.6-1c-1.3,0-2.3,0.4-3.1,1.1
			c-0.8,0.8-1.1,1.8-1.1,3.3v6.8h-2.4v-13.3h2.3v2c0.5-0.7,1.1-1.2,2-1.6c0.8-0.4,1.8-0.5,2.8-0.5
			C1398.9,547.2,1400.2,547.7,1401.2,548.6z"/>
		<path d="M1414.6,559.8c-0.4,0.3-0.8,0.5-1.3,0.7c-0.5,0.2-1.1,0.2-1.6,0.2c-1.3,0-2.4-0.4-3.1-1.1s-1.1-1.7-1.1-3.1v-7.3h-2.3v-2
			h2.3v-2.9h2.4v2.9h3.8v2h-3.8v7.2c0,0.7,0.2,1.3,0.5,1.7c0.4,0.4,0.9,0.6,1.5,0.6c0.7,0,1.4-0.2,1.9-0.6L1414.6,559.8z"/>
		<path d="M1418.2,560.3c-1-0.3-1.8-0.7-2.4-1.1l1-1.9c0.6,0.4,1.3,0.8,2.1,1s1.7,0.4,2.5,0.4c2.1,0,3.2-0.6,3.2-1.8
			c0-0.4-0.1-0.7-0.4-0.9c-0.3-0.2-0.6-0.4-1.1-0.5s-1-0.2-1.8-0.4c-1.1-0.2-1.9-0.4-2.6-0.6c-0.7-0.2-1.3-0.6-1.7-1.1
			c-0.5-0.5-0.7-1.2-0.7-2.2c0-1.2,0.5-2.2,1.5-2.9c1-0.7,2.3-1.1,4-1.1c0.9,0,1.8,0.1,2.7,0.3c0.9,0.2,1.6,0.5,2.2,0.9l-1,1.9
			c-1.1-0.7-2.4-1.1-3.8-1.1c-1,0-1.8,0.2-2.3,0.5c-0.5,0.3-0.8,0.8-0.8,1.3c0,0.4,0.2,0.8,0.5,1s0.7,0.4,1.1,0.6s1.1,0.3,1.9,0.4
			c1.1,0.2,1.9,0.4,2.6,0.6c0.7,0.2,1.2,0.6,1.7,1.1c0.5,0.5,0.7,1.2,0.7,2.1c0,1.2-0.5,2.2-1.5,2.9c-1,0.7-2.4,1.1-4.2,1.1
			C1420.2,560.7,1419.2,560.6,1418.2,560.3z"/>
	</g>
</g>
<g>
	<rect x="1521" y="470.4" class="st2" width="370" height="121.6"/>
</g>
<g>
	<g>
		<path d="M1588.5,538.2h-9.3l-1.9,4.4h-2.6l7.9-17.5h2.5l8,17.5h-2.6L1588.5,538.2z M1587.6,536.2l-3.8-8.6l-3.8,8.6H1587.6z"/>
		<path d="M1607.8,526.7c1.3,1.1,2,2.6,2,4.5s-0.6,3.4-2,4.5c-1.3,1.1-3.1,1.6-5.3,1.6h-4.3v5.3h-2.5V525h6.8
			C1604.8,525,1606.5,525.6,1607.8,526.7z M1606,534.1c0.8-0.7,1.3-1.6,1.3-2.9s-0.4-2.2-1.3-2.9s-2-1-3.6-1h-4.3v7.9h4.3
			C1604,535.1,1605.2,534.7,1606,534.1z"/>
		<path d="M1625.2,542.5l-3.8-5.4c-0.5,0-0.8,0-1.1,0h-4.3v5.3h-2.5V525h6.8c2.3,0,4,0.5,5.3,1.6c1.3,1.1,2,2.6,2,4.5
			c0,1.4-0.3,2.5-1,3.4c-0.7,1-1.6,1.6-2.8,2.1l4.1,5.9H1625.2z M1623.8,534.1c0.8-0.7,1.3-1.7,1.3-2.9s-0.4-2.2-1.3-2.9
			c-0.8-0.7-2-1-3.6-1h-4.3v7.9h4.3C1621.8,535.1,1623,534.8,1623.8,534.1z"/>
		<path d="M1650.5,524v18.5h-2.3v-2.1c-0.5,0.7-1.2,1.3-2,1.7s-1.7,0.6-2.7,0.6c-1.3,0-2.4-0.3-3.5-0.8c-1-0.6-1.8-1.4-2.4-2.4
			c-0.6-1-0.9-2.2-0.9-3.5c0-1.3,0.3-2.5,0.9-3.5c0.6-1,1.4-1.8,2.4-2.4c1-0.6,2.2-0.9,3.5-0.9c0.9,0,1.8,0.2,2.6,0.5
			c0.8,0.4,1.5,0.9,2,1.6V524H1650.5z M1646,540c0.7-0.4,1.2-0.9,1.6-1.6c0.4-0.7,0.6-1.5,0.6-2.4c0-0.9-0.2-1.7-0.6-2.4
			c-0.4-0.7-0.9-1.3-1.6-1.6c-0.7-0.4-1.4-0.6-2.3-0.6c-0.8,0-1.6,0.2-2.3,0.6c-0.7,0.4-1.2,0.9-1.6,1.6c-0.4,0.7-0.6,1.5-0.6,2.4
			c0,0.9,0.2,1.7,0.6,2.4c0.4,0.7,0.9,1.3,1.6,1.6c0.7,0.4,1.4,0.6,2.3,0.6C1644.5,540.6,1645.3,540.4,1646,540z"/>
		<path d="M1657.2,541.8c-1-0.6-1.9-1.4-2.5-2.4c-0.6-1-0.9-2.2-0.9-3.5s0.3-2.5,0.9-3.5c0.6-1,1.4-1.8,2.5-2.4
			c1.1-0.6,2.2-0.9,3.6-0.9c1.3,0,2.5,0.3,3.5,0.9c1,0.6,1.9,1.4,2.4,2.4c0.6,1,0.9,2.2,0.9,3.5s-0.3,2.5-0.9,3.5
			c-0.6,1-1.4,1.8-2.4,2.4c-1,0.6-2.2,0.9-3.5,0.9C1659.4,542.7,1658.2,542.4,1657.2,541.8z M1663,540c0.7-0.4,1.2-0.9,1.6-1.6
			c0.4-0.7,0.6-1.5,0.6-2.4c0-0.9-0.2-1.7-0.6-2.4c-0.4-0.7-0.9-1.3-1.6-1.6c-0.7-0.4-1.4-0.6-2.3-0.6c-0.9,0-1.6,0.2-2.3,0.6
			c-0.7,0.4-1.2,0.9-1.6,1.6c-0.4,0.7-0.6,1.5-0.6,2.4c0,0.9,0.2,1.7,0.6,2.4c0.4,0.7,0.9,1.3,1.6,1.6c0.7,0.4,1.4,0.6,2.3,0.6
			C1661.6,540.6,1662.4,540.4,1663,540z"/>
		<path d="M1673.1,541.8c-1.1-0.6-1.9-1.4-2.5-2.4c-0.6-1-0.9-2.2-0.9-3.5s0.3-2.5,0.9-3.5c0.6-1,1.4-1.8,2.5-2.4
			c1.1-0.6,2.3-0.9,3.6-0.9c1.2,0,2.3,0.2,3.2,0.7c0.9,0.5,1.7,1.2,2.2,2.1l-1.8,1.2c-0.4-0.6-0.9-1.1-1.5-1.4
			c-0.6-0.3-1.3-0.5-2.1-0.5c-0.9,0-1.6,0.2-2.3,0.6c-0.7,0.4-1.2,0.9-1.6,1.6c-0.4,0.7-0.6,1.5-0.6,2.4c0,0.9,0.2,1.8,0.6,2.5
			c0.4,0.7,0.9,1.3,1.6,1.6s1.5,0.6,2.3,0.6c0.8,0,1.4-0.2,2.1-0.5c0.6-0.3,1.1-0.8,1.5-1.4l1.8,1.1c-0.5,0.9-1.2,1.6-2.2,2.1
			c-0.9,0.5-2,0.7-3.2,0.7C1675.4,542.7,1674.2,542.4,1673.1,541.8z"/>
		<path d="M1697.6,529.3v13.3h-2.3v-2c-0.5,0.7-1.1,1.2-1.9,1.6c-0.8,0.4-1.7,0.6-2.6,0.6c-1.8,0-3.2-0.5-4.2-1.5
			c-1-1-1.5-2.4-1.5-4.3v-7.6h2.4v7.4c0,1.3,0.3,2.3,0.9,2.9c0.6,0.7,1.5,1,2.7,1c1.3,0,2.3-0.4,3-1.1s1.1-1.9,1.1-3.3v-6.9H1697.6z
			"/>
		<path d="M1722.7,530.6c1,1,1.5,2.4,1.5,4.3v7.6h-2.4v-7.4c0-1.3-0.3-2.3-0.9-2.9s-1.4-1-2.5-1c-1.2,0-2.2,0.4-2.9,1.1
			s-1.1,1.8-1.1,3.3v6.8h-2.4v-7.4c0-1.3-0.3-2.3-0.9-2.9c-0.6-0.6-1.4-1-2.5-1c-1.2,0-2.2,0.4-2.9,1.1c-0.7,0.8-1.1,1.8-1.1,3.3
			v6.8h-2.4v-13.3h2.3v2c0.5-0.7,1.1-1.2,1.9-1.6c0.8-0.4,1.7-0.5,2.7-0.5c1,0,2,0.2,2.8,0.6c0.8,0.4,1.4,1,1.9,1.8
			c0.5-0.8,1.2-1.4,2.1-1.8c0.9-0.4,1.9-0.6,3-0.6C1720.4,529.2,1721.7,529.7,1722.7,530.6z"/>
		<path d="M1740.6,536.7h-10.8c0.1,1.2,0.7,2.1,1.5,2.8c0.9,0.7,2,1.1,3.3,1.1c1.6,0,2.9-0.5,3.8-1.6l1.3,1.5
			c-0.6,0.7-1.3,1.2-2.2,1.6c-0.9,0.4-1.9,0.5-3,0.5c-1.4,0-2.6-0.3-3.7-0.9c-1.1-0.6-1.9-1.4-2.5-2.4c-0.6-1-0.9-2.2-0.9-3.5
			c0-1.3,0.3-2.4,0.9-3.5c0.6-1,1.4-1.8,2.4-2.4c1-0.6,2.1-0.9,3.4-0.9c1.3,0,2.4,0.3,3.4,0.9c1,0.6,1.8,1.4,2.3,2.4
			c0.6,1,0.8,2.2,0.8,3.6C1740.6,536.2,1740.6,536.4,1740.6,536.7z M1731.2,532.3c-0.8,0.7-1.2,1.6-1.4,2.8h8.5
			c-0.1-1.1-0.6-2-1.4-2.7c-0.8-0.7-1.7-1.1-2.9-1.1C1732.9,531.2,1732,531.5,1731.2,532.3z"/>
		<path d="M1755,530.6c1,1,1.5,2.4,1.5,4.3v7.6h-2.4v-7.4c0-1.3-0.3-2.3-0.9-2.9s-1.5-1-2.6-1c-1.3,0-2.3,0.4-3.1,1.1
			s-1.1,1.8-1.1,3.3v6.8h-2.4v-13.3h2.3v2c0.5-0.7,1.1-1.2,2-1.6c0.8-0.4,1.8-0.5,2.8-0.5C1752.7,529.2,1754,529.7,1755,530.6z"/>
		<path d="M1768.4,541.8c-0.4,0.3-0.8,0.5-1.3,0.7s-1,0.2-1.6,0.2c-1.3,0-2.4-0.4-3.1-1.1c-0.7-0.7-1.1-1.7-1.1-3.1v-7.3h-2.3v-2
			h2.3v-2.9h2.4v2.9h3.8v2h-3.8v7.2c0,0.7,0.2,1.3,0.5,1.6c0.4,0.4,0.9,0.6,1.5,0.6c0.7,0,1.4-0.2,1.9-0.6L1768.4,541.8z"/>
		<path d="M1790.5,524v18.5h-2.3v-2.1c-0.5,0.7-1.2,1.3-2,1.7s-1.7,0.6-2.7,0.6c-1.3,0-2.4-0.3-3.5-0.8c-1-0.6-1.8-1.4-2.4-2.4
			c-0.6-1-0.9-2.2-0.9-3.5c0-1.3,0.3-2.5,0.9-3.5c0.6-1,1.4-1.8,2.4-2.4c1-0.6,2.2-0.9,3.5-0.9c0.9,0,1.8,0.2,2.6,0.5
			c0.8,0.4,1.5,0.9,2,1.6V524H1790.5z M1786,540c0.7-0.4,1.2-0.9,1.6-1.6c0.4-0.7,0.6-1.5,0.6-2.4c0-0.9-0.2-1.7-0.6-2.4
			c-0.4-0.7-0.9-1.3-1.6-1.6c-0.7-0.4-1.4-0.6-2.3-0.6c-0.8,0-1.6,0.2-2.3,0.6c-0.7,0.4-1.2,0.9-1.6,1.6c-0.4,0.7-0.6,1.5-0.6,2.4
			c0,0.9,0.2,1.7,0.6,2.4c0.4,0.7,0.9,1.3,1.6,1.6c0.7,0.4,1.4,0.6,2.3,0.6C1784.6,540.6,1785.3,540.4,1786,540z"/>
		<path d="M1799.2,529.8c0.8-0.4,1.8-0.6,3-0.6v2.3c-0.1,0-0.3,0-0.5,0c-1.3,0-2.3,0.4-3.1,1.2s-1.1,1.9-1.1,3.3v6.6h-2.4v-13.3h2.3
			v2.2C1797.8,530.8,1798.4,530.2,1799.2,529.8z"/>
		<path d="M1814.2,530.5c1,0.9,1.5,2.2,1.5,4v8h-2.3v-1.8c-0.4,0.6-1,1.1-1.7,1.4c-0.7,0.3-1.6,0.5-2.6,0.5c-1.5,0-2.7-0.4-3.6-1.1
			s-1.3-1.7-1.3-2.8c0-1.2,0.4-2.1,1.3-2.8c0.9-0.7,2.2-1.1,4-1.1h3.8v-0.5c0-1-0.3-1.8-0.9-2.4c-0.6-0.5-1.5-0.8-2.7-0.8
			c-0.8,0-1.5,0.1-2.3,0.4c-0.8,0.3-1.4,0.6-1.9,1l-1-1.8c0.7-0.6,1.5-1,2.4-1.3c1-0.3,2-0.4,3-0.4
			C1811.8,529.2,1813.2,529.6,1814.2,530.5z M1811.8,540.2c0.7-0.4,1.2-1,1.5-1.7v-1.9h-3.7c-2,0-3,0.7-3,2c0,0.7,0.3,1.2,0.8,1.6
			s1.2,0.6,2.1,0.6C1810.3,540.8,1811.1,540.6,1811.8,540.2z"/>
		<path d="M1822.8,528.1v1.1h3.9v2h-3.8v11.3h-2.4v-11.3h-2.3v-2h2.3v-1.2c0-1.3,0.4-2.4,1.2-3.1c0.8-0.8,1.8-1.2,3.2-1.2
			c0.5,0,1,0.1,1.5,0.2c0.5,0.1,0.9,0.3,1.2,0.6l-0.7,1.8c-0.5-0.4-1.2-0.6-1.8-0.6C1823.5,525.8,1822.8,526.6,1822.8,528.1z"/>
		<path d="M1836.4,541.8c-0.4,0.3-0.8,0.5-1.3,0.7c-0.5,0.2-1.1,0.2-1.6,0.2c-1.3,0-2.4-0.4-3.1-1.1s-1.1-1.7-1.1-3.1v-7.3h-2.3v-2
			h2.3v-2.9h2.4v2.9h3.8v2h-3.8v7.2c0,0.7,0.2,1.3,0.5,1.6c0.4,0.4,0.9,0.6,1.5,0.6c0.7,0,1.4-0.2,1.9-0.6L1836.4,541.8z"/>
	</g>
</g>
<g>
	<rect x="2040" y="469.4" class="st2" width="370" height="121.6"/>
</g>
<g>
	<g>
		<path d="M2109.8,537.2h-9.3l-1.9,4.4h-2.6l7.9-17.5h2.5l8,17.5h-2.6L2109.8,537.2z M2108.9,535.2l-3.8-8.6l-3.8,8.6H2108.9z"/>
		<path d="M2129.1,525.7c1.3,1.1,2,2.6,2,4.5s-0.7,3.4-2,4.5s-3.1,1.6-5.3,1.6h-4.3v5.3h-2.5V524h6.8
			C2126,524,2127.8,524.6,2129.1,525.7z M2127.3,533.1c0.8-0.7,1.3-1.6,1.3-2.9s-0.4-2.2-1.3-2.9c-0.8-0.7-2-1-3.6-1h-4.3v7.9h4.3
			C2125.2,534.1,2126.4,533.7,2127.3,533.1z"/>
		<path d="M2146.4,541.5l-3.8-5.4c-0.5,0-0.8,0-1.1,0h-4.3v5.3h-2.5V524h6.8c2.3,0,4,0.5,5.3,1.6c1.3,1.1,2,2.6,2,4.5
			c0,1.4-0.3,2.5-1,3.4c-0.7,1-1.6,1.6-2.9,2.1l4.2,5.9H2146.4z M2145.1,533.1c0.8-0.7,1.3-1.7,1.3-2.9s-0.4-2.2-1.3-2.9s-2-1-3.6-1
			h-4.3v7.9h4.3C2143,534.1,2144.2,533.8,2145.1,533.1z"/>
		<path d="M2162,527.1v1.1h3.9v2h-3.8v11.3h-2.4v-11.3h-2.3v-2h2.3v-1.2c0-1.3,0.4-2.4,1.2-3.1s1.8-1.2,3.2-1.2c0.5,0,1,0.1,1.5,0.2
			c0.5,0.1,0.9,0.3,1.2,0.6l-0.7,1.8c-0.5-0.4-1.2-0.6-1.9-0.6C2162.7,524.8,2162,525.6,2162,527.1z M2170.1,525.3
			c-0.3-0.3-0.5-0.7-0.5-1.1c0-0.4,0.2-0.8,0.5-1.1c0.3-0.3,0.7-0.5,1.2-0.5s0.9,0.1,1.2,0.4s0.5,0.7,0.5,1.1c0,0.4-0.2,0.8-0.5,1.1
			c-0.3,0.3-0.7,0.5-1.2,0.5S2170.4,525.6,2170.1,525.3z M2170.1,528.3h2.4v13.3h-2.4V528.3z"/>
		<path d="M2188.1,529.6c1,1,1.5,2.4,1.5,4.3v7.6h-2.4v-7.4c0-1.3-0.3-2.3-0.9-2.9s-1.5-1-2.6-1c-1.3,0-2.3,0.4-3.1,1.1
			s-1.1,1.8-1.1,3.3v6.8h-2.4v-13.3h2.3v2c0.5-0.7,1.1-1.2,2-1.6c0.8-0.4,1.8-0.5,2.8-0.5C2185.8,528.2,2187.2,528.7,2188.1,529.6z"
			/>
		<path d="M2203.1,529.5c1,0.9,1.5,2.2,1.5,4v8h-2.3v-1.8c-0.4,0.6-1,1.1-1.7,1.4c-0.7,0.3-1.6,0.5-2.6,0.5c-1.5,0-2.7-0.4-3.6-1.1
			c-0.9-0.7-1.3-1.7-1.3-2.8c0-1.2,0.4-2.1,1.3-2.8c0.9-0.7,2.2-1.1,4.1-1.1h3.8v-0.5c0-1-0.3-1.8-0.9-2.4c-0.6-0.5-1.5-0.8-2.7-0.8
			c-0.8,0-1.6,0.1-2.3,0.4c-0.8,0.3-1.4,0.6-1.9,1l-1-1.8c0.7-0.6,1.5-1,2.5-1.3c0.9-0.3,2-0.4,3-0.4
			C2200.7,528.2,2202.1,528.6,2203.1,529.5z M2200.7,539.2c0.7-0.4,1.2-1,1.5-1.7v-1.9h-3.7c-2,0-3,0.7-3,2c0,0.7,0.3,1.2,0.8,1.6
			c0.5,0.4,1.2,0.6,2.2,0.6S2200.1,539.6,2200.7,539.2z"/>
		<path d="M2209,523h2.4v18.5h-2.4V523z"/>
		<path d="M2235.2,523v18.5h-2.3v-2.1c-0.5,0.7-1.2,1.3-2,1.7c-0.8,0.4-1.7,0.6-2.7,0.6c-1.3,0-2.4-0.3-3.5-0.8s-1.8-1.4-2.4-2.4
			c-0.6-1-0.9-2.2-0.9-3.5c0-1.3,0.3-2.5,0.9-3.5c0.6-1,1.4-1.8,2.4-2.4c1-0.6,2.2-0.9,3.5-0.9c1,0,1.8,0.2,2.6,0.5s1.5,0.9,2,1.6
			V523H2235.2z M2230.7,539c0.7-0.4,1.2-0.9,1.6-1.6c0.4-0.7,0.6-1.5,0.6-2.4c0-0.9-0.2-1.7-0.6-2.4c-0.4-0.7-0.9-1.3-1.6-1.6
			c-0.7-0.4-1.4-0.6-2.3-0.6c-0.9,0-1.6,0.2-2.3,0.6c-0.7,0.4-1.2,0.9-1.6,1.6c-0.4,0.7-0.6,1.5-0.6,2.4c0,0.9,0.2,1.7,0.6,2.4
			c0.4,0.7,0.9,1.3,1.6,1.6c0.7,0.4,1.4,0.6,2.3,0.6C2229.2,539.6,2230,539.4,2230.7,539z"/>
		<path d="M2241.9,540.8c-1-0.6-1.9-1.4-2.5-2.4c-0.6-1-0.9-2.2-0.9-3.5s0.3-2.5,0.9-3.5c0.6-1,1.4-1.8,2.5-2.4
			c1.1-0.6,2.2-0.9,3.6-0.9s2.5,0.3,3.5,0.9c1,0.6,1.9,1.4,2.5,2.4c0.6,1,0.9,2.2,0.9,3.5s-0.3,2.5-0.9,3.5c-0.6,1-1.4,1.8-2.5,2.4
			c-1,0.6-2.2,0.9-3.5,0.9S2243,541.4,2241.9,540.8z M2247.7,539c0.7-0.4,1.2-0.9,1.6-1.6c0.4-0.7,0.6-1.5,0.6-2.4
			c0-0.9-0.2-1.7-0.6-2.4c-0.4-0.7-0.9-1.3-1.6-1.6c-0.7-0.4-1.4-0.6-2.3-0.6s-1.6,0.2-2.3,0.6c-0.7,0.4-1.2,0.9-1.6,1.6
			c-0.4,0.7-0.6,1.5-0.6,2.4c0,0.9,0.2,1.7,0.6,2.4c0.4,0.7,0.9,1.3,1.6,1.6c0.7,0.4,1.4,0.6,2.3,0.6S2247.1,539.4,2247.7,539z"/>
		<path d="M2257.8,540.8c-1.1-0.6-1.9-1.4-2.5-2.4c-0.6-1-0.9-2.2-0.9-3.5s0.3-2.5,0.9-3.5c0.6-1,1.4-1.8,2.5-2.4
			c1.1-0.6,2.3-0.9,3.6-0.9c1.2,0,2.3,0.2,3.2,0.7s1.7,1.2,2.2,2.1l-1.8,1.2c-0.4-0.6-0.9-1.1-1.5-1.4c-0.6-0.3-1.3-0.5-2.1-0.5
			c-0.9,0-1.6,0.2-2.3,0.6c-0.7,0.4-1.2,0.9-1.6,1.6c-0.4,0.7-0.6,1.5-0.6,2.4c0,0.9,0.2,1.8,0.6,2.5c0.4,0.7,0.9,1.3,1.6,1.6
			c0.7,0.4,1.5,0.6,2.3,0.6c0.8,0,1.4-0.2,2.1-0.5c0.6-0.3,1.1-0.8,1.5-1.4l1.8,1.1c-0.5,0.9-1.2,1.6-2.2,2.1s-2,0.7-3.2,0.7
			C2260.1,541.7,2258.9,541.4,2257.8,540.8z"/>
		<path d="M2282.3,528.3v13.3h-2.3v-2c-0.5,0.7-1.1,1.2-1.9,1.6c-0.8,0.4-1.7,0.6-2.6,0.6c-1.8,0-3.2-0.5-4.2-1.5
			c-1-1-1.5-2.4-1.5-4.3v-7.6h2.4v7.4c0,1.3,0.3,2.3,0.9,2.9s1.5,1,2.6,1c1.3,0,2.3-0.4,3-1.1c0.7-0.8,1.1-1.9,1.1-3.3v-6.9H2282.3z
			"/>
		<path d="M2307.4,529.6c1,1,1.5,2.4,1.5,4.3v7.6h-2.4v-7.4c0-1.3-0.3-2.3-0.9-2.9s-1.4-1-2.5-1c-1.2,0-2.2,0.4-2.9,1.1
			s-1.1,1.8-1.1,3.3v6.8h-2.4v-7.4c0-1.3-0.3-2.3-0.9-2.9c-0.6-0.6-1.4-1-2.5-1c-1.2,0-2.2,0.4-2.9,1.1c-0.7,0.8-1.1,1.8-1.1,3.3
			v6.8h-2.4v-13.3h2.3v2c0.5-0.7,1.1-1.2,1.9-1.6s1.7-0.5,2.7-0.5c1,0,2,0.2,2.8,0.6c0.8,0.4,1.4,1,1.9,1.8c0.5-0.8,1.2-1.4,2.1-1.8
			c0.9-0.4,1.9-0.6,3-0.6C2305.1,528.2,2306.4,528.7,2307.4,529.6z"/>
		<path d="M2325.3,535.7h-10.8c0.2,1.2,0.7,2.1,1.5,2.8c0.9,0.7,2,1.1,3.3,1.1c1.6,0,2.9-0.5,3.8-1.6l1.3,1.5
			c-0.6,0.7-1.3,1.2-2.2,1.6c-0.9,0.4-1.9,0.5-3,0.5c-1.4,0-2.6-0.3-3.7-0.9c-1.1-0.6-1.9-1.4-2.5-2.4c-0.6-1-0.9-2.2-0.9-3.5
			c0-1.3,0.3-2.4,0.9-3.5c0.6-1,1.4-1.8,2.4-2.4c1-0.6,2.1-0.9,3.4-0.9c1.3,0,2.4,0.3,3.4,0.9c1,0.6,1.8,1.4,2.3,2.4
			c0.6,1,0.8,2.2,0.8,3.6C2325.3,535.2,2325.3,535.4,2325.3,535.7z M2315.9,531.3c-0.8,0.7-1.2,1.6-1.4,2.8h8.5
			c-0.1-1.1-0.6-2-1.4-2.7c-0.8-0.7-1.7-1.1-2.9-1.1S2316.7,530.5,2315.9,531.3z"/>
		<path d="M2339.7,529.6c1,1,1.5,2.4,1.5,4.3v7.6h-2.4v-7.4c0-1.3-0.3-2.3-0.9-2.9c-0.6-0.6-1.5-1-2.7-1c-1.3,0-2.3,0.4-3.1,1.1
			s-1.1,1.8-1.1,3.3v6.8h-2.4v-13.3h2.3v2c0.5-0.7,1.1-1.2,2-1.6c0.8-0.4,1.8-0.5,2.8-0.5C2337.4,528.2,2338.8,528.7,2339.7,529.6z"
			/>
		<path d="M2353.1,540.8c-0.3,0.3-0.8,0.5-1.3,0.7c-0.5,0.2-1,0.2-1.6,0.2c-1.3,0-2.4-0.4-3.1-1.1c-0.7-0.7-1.1-1.7-1.1-3.1v-7.3
			h-2.3v-2h2.3v-2.9h2.4v2.9h3.8v2h-3.8v7.2c0,0.7,0.2,1.3,0.5,1.6c0.4,0.4,0.9,0.6,1.5,0.6c0.7,0,1.4-0.2,1.9-0.6L2353.1,540.8z"/>
	</g>
</g>
<rect x="1278" y="340" class="st1" width="196" height="51"/>
<g>
	<path d="M1420.1,422.9v2.8h-21.6v-2.2l12.8-12.6c1.6-1.6,2.7-3,3.3-4.1c0.6-1.2,0.9-2.3,0.9-3.5c0-1.8-0.6-3.2-1.9-4.3
		c-1.2-1-3-1.5-5.4-1.5c-3.6,0-6.4,1.1-8.4,3.4l-2.2-1.9c1.2-1.4,2.7-2.5,4.6-3.3c1.9-0.8,4-1.1,6.3-1.1c3.1,0,5.6,0.7,7.5,2.2
		c1.8,1.5,2.8,3.5,2.8,6.1c0,1.6-0.4,3.1-1.1,4.6c-0.7,1.5-2,3.2-4,5.1l-10.5,10.3H1420.1z"/>
	<path d="M1471.7,402.6l-8.8,23.2h-3l-7.3-19l-7.3,19h-3l-8.7-23.2h3l7.3,19.7l7.4-19.7h2.7l7.4,19.7l7.4-19.7H1471.7z"/>
	<path d="M1495.9,415.1h-19.4c0.2,2.4,1.1,4.4,2.8,5.8c1.7,1.5,3.8,2.2,6.3,2.2c1.4,0,2.8-0.3,4-0.8c1.2-0.5,2.2-1.3,3.1-2.3l1.8,2
		c-1,1.2-2.3,2.2-3.9,2.8c-1.5,0.6-3.2,1-5.1,1c-2.4,0-4.5-0.5-6.3-1.5c-1.8-1-3.3-2.4-4.3-4.2c-1-1.8-1.5-3.8-1.5-6.1
		c0-2.3,0.5-4.3,1.5-6.1c1-1.8,2.3-3.2,4.1-4.2c1.7-1,3.6-1.5,5.8-1.5s4.1,0.5,5.8,1.5c1.7,1,3,2.4,4,4.2c1,1.8,1.5,3.8,1.5,6.1
		L1495.9,415.1z M1479.1,407.2c-1.5,1.4-2.4,3.3-2.6,5.6h16.4c-0.2-2.3-1.1-4.1-2.6-5.6c-1.5-1.4-3.4-2.1-5.7-2.1
		C1482.5,405.1,1480.6,405.8,1479.1,407.2z"/>
	<path d="M1522.5,415.1h-19.4c0.2,2.4,1.1,4.4,2.8,5.8c1.7,1.5,3.8,2.2,6.3,2.2c1.4,0,2.8-0.3,4-0.8c1.2-0.5,2.2-1.3,3.1-2.3l1.8,2
		c-1,1.2-2.3,2.2-3.9,2.8c-1.5,0.6-3.2,1-5.1,1c-2.4,0-4.5-0.5-6.3-1.5c-1.8-1-3.3-2.4-4.3-4.2c-1-1.8-1.5-3.8-1.5-6.1
		c0-2.3,0.5-4.3,1.5-6.1c1-1.8,2.3-3.2,4.1-4.2c1.7-1,3.6-1.5,5.8-1.5c2.1,0,4.1,0.5,5.8,1.5c1.7,1,3,2.4,4,4.2
		c1,1.8,1.5,3.8,1.5,6.1L1522.5,415.1z M1505.7,407.2c-1.5,1.4-2.4,3.3-2.6,5.6h16.4c-0.2-2.3-1.1-4.1-2.6-5.6
		c-1.5-1.4-3.4-2.1-5.7-2.1C1509.1,405.1,1507.2,405.8,1505.7,407.2z"/>
	<path d="M1537.5,414.1l-5.5,5v6.6h-3.1v-32.7h3.1v22.2l13.8-12.6h3.9l-9.9,9.5l10.8,13.7h-3.8L1537.5,414.1z"/>
	<path d="M1555.5,425.2c-1.7-0.5-3.1-1.2-4-2l1.4-2.5c1,0.8,2.2,1.4,3.7,1.9c1.5,0.5,3,0.7,4.6,0.7c2.1,0,3.7-0.3,4.7-1
		s1.5-1.6,1.5-2.8c0-0.9-0.3-1.5-0.8-2c-0.6-0.5-1.3-0.9-2.1-1.1s-2-0.5-3.4-0.7c-1.9-0.4-3.4-0.7-4.5-1.1c-1.1-0.4-2.1-1-2.9-1.9
		s-1.2-2.1-1.2-3.7c0-1.9,0.8-3.5,2.4-4.8c1.6-1.2,3.9-1.8,6.7-1.8c1.5,0,3,0.2,4.5,0.6c1.5,0.4,2.7,0.9,3.7,1.6l-1.4,2.5
		c-1.9-1.3-4.2-2-6.8-2c-2,0-3.5,0.4-4.5,1.1c-1,0.7-1.5,1.6-1.5,2.8c0,0.9,0.3,1.6,0.9,2.1c0.6,0.5,1.3,0.9,2.1,1.2
		c0.9,0.3,2,0.5,3.5,0.8c1.9,0.4,3.3,0.7,4.4,1.1c1.1,0.4,2.1,1,2.9,1.8c0.8,0.9,1.2,2,1.2,3.5c0,2-0.8,3.6-2.5,4.8
		c-1.7,1.2-4,1.8-7,1.8C1559,426,1557.2,425.7,1555.5,425.2z"/>
</g>
<g>
	<g>
		<path class="st2" d="M760.7,445.5c1.9,0,1.9-3,0-3C758.7,442.5,758.7,445.5,760.7,445.5L760.7,445.5z"/>
	</g>
</g>
<g>
	<line class="st4" x1="1514.2" y1="639.1" x2="2425.3" y2="639.1"/>
	<g>
		<line class="st4" x1="1513.5" y1="638.2" x2="1513.5" y2="610.5"/>
		<line class="st4" x1="2426" y1="639.1" x2="2426" y2="611.3"/>
	</g>
</g>
<g>
	<rect x="1830" y="610" class="st1" width="307" height="40.6"/>
</g>
<g>
	<g>
		<path d="M1855.3,639.9l-3.8-5.4c-0.5,0-0.8,0-1.1,0h-4.3v5.3h-2.5v-17.5h6.8c2.3,0,4,0.5,5.3,1.6c1.3,1.1,2,2.6,2,4.5
			c0,1.4-0.3,2.5-1,3.5c-0.7,1-1.6,1.6-2.8,2.1l4.1,5.9H1855.3z M1854,631.4c0.8-0.7,1.3-1.7,1.3-2.9c0-1.3-0.4-2.2-1.3-2.9
			c-0.8-0.7-2-1-3.6-1h-4.3v7.9h4.3C1852,632.4,1853.2,632.1,1854,631.4z"/>
		<path d="M1873.4,634.1h-10.8c0.1,1.2,0.7,2.1,1.5,2.8c0.9,0.7,2,1.1,3.3,1.1c1.6,0,2.9-0.5,3.8-1.6l1.3,1.5
			c-0.6,0.7-1.3,1.2-2.2,1.6c-0.9,0.4-1.9,0.6-3,0.6c-1.4,0-2.6-0.3-3.7-0.9c-1.1-0.6-1.9-1.4-2.5-2.4s-0.9-2.2-0.9-3.5
			c0-1.3,0.3-2.4,0.9-3.5c0.6-1,1.4-1.8,2.4-2.4c1-0.6,2.1-0.9,3.4-0.9s2.4,0.3,3.4,0.9c1,0.6,1.8,1.4,2.3,2.4s0.8,2.2,0.8,3.5
			C1873.4,633.5,1873.4,633.8,1873.4,634.1z M1864,629.6c-0.8,0.7-1.2,1.6-1.4,2.8h8.5c-0.1-1.1-0.6-2-1.4-2.7
			c-0.8-0.7-1.7-1.1-2.9-1.1C1865.7,628.5,1864.8,628.9,1864,629.6z"/>
		<path d="M1888.2,626.6l-5.8,13.3h-2.5l-5.8-13.3h2.5l4.5,10.6l4.7-10.6H1888.2z"/>
		<path d="M1890.5,623.6c-0.3-0.3-0.5-0.7-0.5-1.1s0.2-0.8,0.5-1.1c0.3-0.3,0.7-0.5,1.2-0.5s0.9,0.1,1.2,0.4
			c0.3,0.3,0.5,0.7,0.5,1.1c0,0.5-0.2,0.8-0.5,1.1c-0.3,0.3-0.7,0.5-1.2,0.5S1890.8,623.9,1890.5,623.6z M1890.5,626.6h2.4v13.3
			h-2.4V626.6z"/>
		<path d="M1909.4,634.1h-10.8c0.1,1.2,0.7,2.1,1.5,2.8c0.9,0.7,2,1.1,3.3,1.1c1.6,0,2.9-0.5,3.8-1.6l1.3,1.5
			c-0.6,0.7-1.3,1.2-2.2,1.6c-0.9,0.4-1.9,0.6-3,0.6c-1.4,0-2.6-0.3-3.7-0.9c-1.1-0.6-1.9-1.4-2.5-2.4s-0.9-2.2-0.9-3.5
			c0-1.3,0.3-2.4,0.9-3.5c0.6-1,1.4-1.8,2.4-2.4c1-0.6,2.1-0.9,3.4-0.9s2.4,0.3,3.4,0.9c1,0.6,1.8,1.4,2.3,2.4s0.8,2.2,0.8,3.5
			C1909.4,633.5,1909.4,633.8,1909.4,634.1z M1900,629.6c-0.8,0.7-1.2,1.6-1.4,2.8h8.5c-0.1-1.1-0.6-2-1.4-2.7
			c-0.8-0.7-1.7-1.1-2.9-1.1C1901.7,628.5,1900.8,628.9,1900,629.6z"/>
		<path d="M1932.6,626.6l-5,13.3h-2.3l-3.8-10l-3.9,10h-2.3l-4.9-13.3h2.3l3.9,10.5l4-10.5h2l3.9,10.6l4-10.6H1932.6z"/>
		<path d="M1946.5,634.1h-10.8c0.1,1.2,0.7,2.1,1.5,2.8c0.9,0.7,2,1.1,3.3,1.1c1.6,0,2.9-0.5,3.8-1.6l1.3,1.5
			c-0.6,0.7-1.3,1.2-2.2,1.6c-0.9,0.4-1.9,0.6-3,0.6c-1.4,0-2.6-0.3-3.7-0.9c-1.1-0.6-1.9-1.4-2.5-2.4s-0.9-2.2-0.9-3.5
			c0-1.3,0.3-2.4,0.9-3.5c0.6-1,1.4-1.8,2.4-2.4c1-0.6,2.1-0.9,3.4-0.9s2.4,0.3,3.4,0.9c1,0.6,1.8,1.4,2.3,2.4s0.8,2.2,0.8,3.5
			C1946.6,633.5,1946.6,633.8,1946.5,634.1z M1937.1,629.6c-0.8,0.7-1.2,1.6-1.4,2.8h8.5c-0.1-1.1-0.6-2-1.4-2.7
			c-0.8-0.7-1.7-1.1-2.9-1.1C1938.9,628.5,1937.9,628.9,1937.1,629.6z"/>
		<path d="M1962.4,621.3v18.5h-2.3v-2.1c-0.5,0.7-1.2,1.3-2,1.7c-0.8,0.4-1.7,0.6-2.7,0.6c-1.3,0-2.4-0.3-3.5-0.9
			c-1-0.6-1.8-1.4-2.4-2.4c-0.6-1-0.9-2.2-0.9-3.5c0-1.3,0.3-2.5,0.9-3.5c0.6-1,1.4-1.8,2.4-2.4c1-0.6,2.2-0.8,3.5-0.8
			c1,0,1.8,0.2,2.6,0.5c0.8,0.4,1.5,0.9,2,1.6v-7.3H1962.4z M1957.9,637.3c0.7-0.4,1.2-0.9,1.6-1.7c0.4-0.7,0.6-1.5,0.6-2.4
			c0-0.9-0.2-1.7-0.6-2.4c-0.4-0.7-0.9-1.3-1.6-1.6c-0.7-0.4-1.4-0.6-2.3-0.6c-0.9,0-1.6,0.2-2.3,0.6c-0.7,0.4-1.2,0.9-1.6,1.6
			c-0.4,0.7-0.6,1.5-0.6,2.4c0,0.9,0.2,1.7,0.6,2.4c0.4,0.7,0.9,1.3,1.6,1.7c0.7,0.4,1.4,0.6,2.3,0.6
			C1956.4,637.9,1957.2,637.7,1957.9,637.3z"/>
		<path d="M1984.2,627.4c1,0.6,1.8,1.4,2.4,2.4c0.6,1,0.9,2.2,0.9,3.5c0,1.3-0.3,2.5-0.9,3.5c-0.6,1-1.4,1.8-2.4,2.4
			c-1,0.6-2.2,0.9-3.5,0.9c-1,0-1.9-0.2-2.7-0.6s-1.5-0.9-2-1.7v2.1h-2.3v-18.5h2.4v7.3c0.5-0.7,1.2-1.2,2-1.6
			c0.8-0.4,1.7-0.5,2.6-0.5C1982,626.5,1983.1,626.8,1984.2,627.4z M1982.8,637.3c0.7-0.4,1.2-0.9,1.6-1.7c0.4-0.7,0.6-1.5,0.6-2.4
			c0-0.9-0.2-1.7-0.6-2.4c-0.4-0.7-0.9-1.3-1.6-1.6c-0.7-0.4-1.4-0.6-2.3-0.6c-0.8,0-1.6,0.2-2.3,0.6c-0.7,0.4-1.2,0.9-1.6,1.6
			c-0.4,0.7-0.6,1.5-0.6,2.4c0,0.9,0.2,1.7,0.6,2.4c0.4,0.7,0.9,1.3,1.6,1.7c0.7,0.4,1.4,0.6,2.3,0.6
			C1981.4,637.9,1982.1,637.7,1982.8,637.3z"/>
		<path d="M2002.1,626.6l-6.4,14.6c-0.6,1.3-1.2,2.3-2,2.8c-0.8,0.5-1.7,0.8-2.7,0.8c-0.6,0-1.3-0.1-1.9-0.3
			c-0.6-0.2-1.1-0.5-1.5-0.9l1-1.8c0.7,0.7,1.5,1,2.4,1c0.6,0,1.1-0.2,1.5-0.5s0.7-0.8,1.1-1.6l0.4-0.9l-5.8-13.2h2.5l4.6,10.6
			l4.6-10.6H2002.1z"/>
		<path d="M2018.5,639.1c-0.3,0.3-0.8,0.5-1.3,0.7s-1,0.2-1.6,0.2c-1.3,0-2.4-0.4-3.1-1.1s-1.1-1.7-1.1-3.1v-7.3h-2.3v-2h2.3v-2.9
			h2.4v2.9h3.8v2h-3.8v7.2c0,0.7,0.2,1.3,0.5,1.6c0.4,0.4,0.9,0.6,1.5,0.6c0.7,0,1.4-0.2,1.9-0.6L2018.5,639.1z"/>
		<path d="M2032.5,628c1,1,1.5,2.4,1.5,4.3v7.6h-2.4v-7.3c0-1.3-0.3-2.3-0.9-2.9c-0.6-0.7-1.5-1-2.7-1c-1.3,0-2.3,0.4-3.1,1.1
			c-0.8,0.8-1.1,1.8-1.1,3.3v6.8h-2.4v-18.5h2.4v7.2c0.5-0.6,1.2-1.1,2-1.5c0.8-0.4,1.7-0.5,2.7-0.5
			C2030.2,626.5,2031.5,627,2032.5,628z"/>
		<path d="M2050.4,634.1h-10.8c0.1,1.2,0.7,2.1,1.5,2.8c0.9,0.7,2,1.1,3.3,1.1c1.6,0,2.9-0.5,3.8-1.6l1.3,1.5
			c-0.6,0.7-1.3,1.2-2.2,1.6c-0.9,0.4-1.9,0.6-3,0.6c-1.4,0-2.6-0.3-3.7-0.9c-1.1-0.6-1.9-1.4-2.5-2.4s-0.9-2.2-0.9-3.5
			c0-1.3,0.3-2.4,0.9-3.5c0.6-1,1.4-1.8,2.4-2.4c1-0.6,2.1-0.9,3.4-0.9s2.4,0.3,3.4,0.9c1,0.6,1.8,1.4,2.3,2.4s0.8,2.2,0.8,3.5
			C2050.5,633.5,2050.5,633.8,2050.4,634.1z M2041,629.6c-0.8,0.7-1.2,1.6-1.4,2.8h8.5c-0.1-1.1-0.6-2-1.4-2.7
			c-0.8-0.7-1.7-1.1-2.9-1.1C2042.8,628.5,2041.8,628.9,2041,629.6z"/>
		<path d="M2062.2,639.5c-1.2-0.4-2.2-0.9-2.9-1.6l0.9-2c0.7,0.6,1.5,1.1,2.6,1.5c1,0.4,2.1,0.6,3.2,0.6c1.5,0,2.5-0.2,3.3-0.7
			c0.7-0.5,1.1-1.1,1.1-2c0-0.6-0.2-1.1-0.6-1.5c-0.4-0.4-0.9-0.7-1.5-0.9s-1.4-0.4-2.4-0.7c-1.3-0.3-2.4-0.6-3.2-1
			c-0.8-0.3-1.5-0.8-2.1-1.5s-0.9-1.5-0.9-2.7c0-0.9,0.2-1.8,0.7-2.5c0.5-0.8,1.2-1.4,2.2-1.8c1-0.4,2.2-0.7,3.7-0.7
			c1,0,2,0.1,3,0.4s1.9,0.6,2.6,1.1l-0.8,2c-0.7-0.5-1.5-0.8-2.4-1.1c-0.8-0.2-1.6-0.4-2.4-0.4c-1.4,0-2.5,0.3-3.2,0.8
			c-0.7,0.5-1.1,1.2-1.1,2c0,0.6,0.2,1.1,0.6,1.5s0.9,0.7,1.5,0.9c0.6,0.2,1.4,0.4,2.4,0.7c1.3,0.3,2.4,0.6,3.2,1s1.5,0.8,2.1,1.4
			c0.6,0.7,0.9,1.5,0.9,2.6c0,0.9-0.3,1.8-0.8,2.5c-0.5,0.8-1.3,1.4-2.3,1.8c-1,0.4-2.3,0.7-3.8,0.7
			C2064.7,640.1,2063.4,639.9,2062.2,639.5z"/>
		<path d="M2092.6,639.9l0-12.8l-6.3,10.6h-1.2l-6.3-10.5v12.7h-2.4v-17.5h2l7.3,12.3l7.2-12.3h2l0,17.5H2092.6z"/>
		<path d="M2103.4,638.9c-1.4-0.8-2.5-1.8-3.3-3.2s-1.2-2.9-1.2-4.6s0.4-3.2,1.2-4.6c0.8-1.4,1.9-2.4,3.3-3.2c1.4-0.8,3-1.2,4.8-1.2
			c1.8,0,3.3,0.4,4.8,1.2c1.4,0.8,2.5,1.8,3.3,3.2c0.8,1.4,1.2,2.9,1.2,4.6s-0.4,3.2-1.2,4.6c-0.8,1.4-1.9,2.4-3.3,3.2
			c-1.4,0.8-3,1.2-4.8,1.2C2106.4,640.1,2104.8,639.7,2103.4,638.9z M2111.6,637c1-0.6,1.8-1.4,2.4-2.4s0.9-2.2,0.9-3.4
			s-0.3-2.4-0.9-3.4s-1.4-1.8-2.4-2.4c-1-0.6-2.2-0.9-3.5-0.9c-1.3,0-2.4,0.3-3.5,0.9c-1,0.6-1.9,1.4-2.4,2.4
			c-0.6,1-0.9,2.2-0.9,3.4s0.3,2.4,0.9,3.4c0.6,1,1.4,1.8,2.4,2.4c1,0.6,2.2,0.9,3.5,0.9C2109.5,637.9,2110.6,637.6,2111.6,637z"/>
	</g>
</g>
<g>
	<g>
		<rect x="930" y="523.2" class="st3" width="114.9" height="15.4"/>
	</g>
	<g>
		<polygon class="st3" points="1057.4,522 1045,512.7 1045,531.2 1045,549.6 1057.4,540.4 1069.7,531.2 		"/>
	</g>
</g>
</svg>
