<?xml version="1.0" encoding="utf-8"?>
<!-- Generator: Adobe Illustrator 16.0.0, SVG Export Plug-In . SVG Version: 6.00 Build 0)  -->
<!DOCTYPE svg PUBLIC "-//W3C//DTD SVG 1.1//EN" "http://www.w3.org/Graphics/SVG/1.1/DTD/svg11.dtd">
<svg version="1.1" id="Capa_1" xmlns="http://www.w3.org/2000/svg" xmlns:xlink="http://www.w3.org/1999/xlink" x="0px" y="0px"
	 width="1000px" height="1000px" viewBox="0 0 1000 1000" enable-background="new 0 0 1000 1000" xml:space="preserve">
<path d="M474.813,340.974c-8.939-11.49-30.338-30.338-41.503-41.503c-17.245-17.227-21.704-22.345-21.704-51.714V122.643
	c0-17.883-27.452-15.314-27.452,0.63c0,0-1.917,217.701,0,236.213c1.912,18.498-7.255,32.955,22.334,51.696
	c32.761,20.765,79.796,34.472,79.796,34.472s0.638-47.867,1.29-65.753C488.218,362.037,483.73,352.456,474.813,340.974
	 M460.975,409.009c0,0.09-0.09,0.175-0.09,0.175c-45.869-18.677-53.906-15.072-48.202-84.777
	C466.909,357.623,463.129,369.836,460.975,409.009 M514.799,379.901c0.656,17.887,1.274,65.753,1.274,65.753
	s47.058-13.708,79.786-34.472c29.614-18.741,20.459-33.198,22.367-51.696c1.908-18.513,0-236.213,0-236.213
	c0-15.945-27.438-18.513-27.438-0.63v125.114c0,29.369-4.481,34.465-21.73,51.714c-11.176,11.166-32.556,30.014-41.474,41.503
	C518.639,352.456,514.161,362.037,514.799,379.901 M589.667,324.407c5.737,69.705-2.304,66.082-48.177,84.777
	c0,0-0.086-0.085-0.086-0.175C539.25,369.836,535.447,357.623,589.667,324.407 M537.465,213.702c-16.012-28.556,0,0-22.077-37.212
	V38.388c0-21.637-27.259-19.926-27.259,0l0.32,137.878c0,0-23.273,39.177-29.76,54.767c-6.479,15.579-15.243,34.271,6.833,59.382
	c1.648,1.935,4.437,7.232,36.642,37.421c0,0.019,0.683-0.708,0.683-0.708s-0.172-0.171,28.12-28.165
	C566.035,264.339,553.494,242.243,537.465,213.702 M501.967,294.2c-52.854-28.295-15.068-66.633,0-92.024l1.35,2.128
	C542.15,262.471,531.578,271.194,501.967,294.2 M485.508,509.712c-1.357-27.106-10.934-51.05-66.41-71.837
	c-46.595-17.461-112.521-21.242-160.387-28.903c-47.896-7.721-127.425-20.809-167.191-58.752
	c29.831,99.078,104.509,140.559,180.276,156.791c85.833,18.371,162.814,26.103,209.607,58.614l4.742,3.28
	C483.514,546.026,486.876,536.825,485.508,509.712 M461.746,522.875c-41.067-15.758-68.415-19.821-142.363-34.669
	c-73.951-14.897-118.146-28.497-158.091-70.54c64.176,24.623,167.03,33.547,223.117,45.455
	c56.117,11.907,71.401,26.431,77.374,59.733L461.746,522.875z M515.544,568.923l4.742-3.325
	c46.793-32.512,123.798-40.217,209.607-58.61c75.774-16.209,150.467-57.69,180.276-156.768
	c-39.767,37.965-119.272,51.051-167.158,58.723c-47.893,7.691-113.799,11.471-160.398,28.933
	c-55.468,20.757-65.071,44.731-66.409,71.837C514.836,536.825,518.229,546.056,515.544,568.923 M539.906,522.831
	c5.998-33.28,21.29-47.804,77.373-59.711c56.109-11.907,158.971-20.832,223.122-45.455c-39.935,42.043-84.14,55.669-158.065,70.518
	c-73.974,14.871-101.325,18.934-142.381,34.692L539.906,522.831z M482.701,635.68c0.57-53.295-29.946-68.255-75.461-80.244
	c-45.5-11.956-108.942-20.943-162.855-36.516c-53.895-15.553-83.837-25.749-120.349-65.272
	c7.769,77.243,61.649,131.724,128.122,155.104c66.458,23.33,62.879,18.559,98.794,27.523c35.945,8.988,42.532,22.167,42.532,44.307
	v45.504h89.217C484.483,623.12,482.082,688.959,482.701,635.68 M456.773,697.18h-36.377c0,0,0.832-15.031-1.297-40.93
	c-2.837-34.141-42.64-37.148-108.151-55.363c-44.948-12.481-103.674-28.646-129.9-73.598c15.952,7.009,47.934,20.519,100.088,31.244
	c49.648,10.207,77.992,15.993,123.66,25.48c43.482,9.059,51.979,35.695,51.979,65.022V697.18z M517.39,726.22h89.19v-45.503
	c0-22.145,6.592-35.322,42.514-44.307c35.964-8.98,32.355-4.176,98.82-27.527c66.447-23.355,120.364-77.843,128.122-155.079
	c-36.515,39.516-66.477,49.694-120.346,65.265C701.796,534.63,638.35,543.61,592.832,555.61
	c-45.522,11.948-76.062,26.904-75.442,80.229C517.982,689.09,515.589,623.254,517.39,726.22 M543.291,649.197
	c0-29.31,8.508-55.998,51.956-65.034c45.69-9.488,74.037-15.285,123.664-25.478c52.184-10.743,84.162-24.257,100.095-31.266
	c-26.215,44.97-84.934,61.119-129.885,73.619c-65.489,18.219-105.349,21.193-108.151,55.36c-2.133,25.879-1.298,40.929-1.298,40.929
	h-36.381V649.197z M302.47,975.545c-11.426,2.703-23.777,4.943-35.654,4.943c-50.73,0-85.966-25.372-85.966-78.32
	c0-53.627,32.776-83.678,85.966-83.678c10.319,0,23.986,1.998,35.431,6.498l-2.237,26.476c-11.885-6.726-22.651-8.302-33.88-8.302
	c-32.313,0-52.504,24.668-52.504,56.766c0,31.873,19.754,55.866,53.19,55.866c12.317,0,26.931-2.698,34.309-6.501L302.47,975.545z
	 M447.875,851.464c-12.12-5.625-27.811-8.302-40.374-8.302c-36.579,0-56.77,24.668-56.77,56.766
	c0,31.852,19.729,55.866,53.168,55.866c8.544,0,15.266-0.876,20.646-2.244v-40.836h-33.216v-24.668h63.3v84.338
	c-16.612,4.529-33.909,8.104-50.73,8.104c-50.726,0-85.944-25.372-85.944-78.32c0-53.627,32.776-83.678,85.944-83.678
	c18.192,0,32.538,2.453,45.999,6.498L447.875,851.464z M484.9,821.167h31.412v156.614H484.9V821.167z M634.794,917.218h-45.761
	l22.647-64.628h0.447L634.794,917.218z M533.822,977.808h32.533l13.675-35.922h63.502l13.491,35.922h34.759l-61.47-156.641h-35.456
	L533.822,977.808z M740.682,845.839h10.327c15.735,0,33.238,1.584,33.238,20.429c0,19.531-17.753,21.778-33.238,21.778h-10.327
	V845.839z M709.289,977.808h31.393v-65.094h10.11c13.242,0,17.31,4.504,21.768,16.149l18.845,48.944h35.021l-25.134-61.269
	c-3.154-6.945-8.101-15.467-16.611-16.176v-0.436c19.981-2.703,32.324-17.947,32.324-36.363c0-43.512-40.183-42.397-73.843-42.397
	h-33.872V977.808z"/>
</svg>
