<?xml version="1.0" encoding="utf-8"?>
<!-- Generator: Adobe Illustrator 24.1.1, SVG Export Plug-In . SVG Version: 6.00 Build 0)  -->
<svg version="1.1" id="Layer_1" xmlns="http://www.w3.org/2000/svg" xmlns:xlink="http://www.w3.org/1999/xlink" x="0px" y="0px"
	 viewBox="0 0 500 500" style="enable-background:new 0 0 500 500;" xml:space="preserve">
<style type="text/css">
	.st0{fill:#FFFFFF;}
</style>
<path class="st0" d="M110.2,375.4h29.6l-29.6,37l-25.3,31.6c-1.5,1.9-4.3,0.7-4.3-1.9v-66.7H110.2z"/>
<g>
	<polygon class="st0" points="278.5,252.8 290.3,252.8 284.4,237.6 	"/>
	<path class="st0" d="M434.5,120.1H56.6c-6,0-10.9,4.9-10.9,10.9v233.4c0,6,4.9,10.9,10.9,10.9h377.8c6,0,10.9-4.9,10.9-10.9V131.1
		C445.4,125,440.5,120.1,434.5,120.1z M143,258.8c2.6,2.7,6,4.1,10.3,4.1c5.1,0,9.5-2.4,13.2-7.1l12.9,11.5c-3,3.9-6.8,6.9-11.4,9
		c-4.6,2.1-9.8,3.1-15.7,3.1c-6.4,0-12.2-1.3-17.3-4c-5.1-2.7-9.1-6.4-12-11.2c-2.9-4.8-4.4-10.3-4.4-16.4c0-6.1,1.5-11.6,4.4-16.4
		c2.9-4.8,6.9-8.6,12-11.2c5.1-2.7,10.9-4,17.3-4c5.9,0,11.1,1,15.7,3.1c4.6,2.1,8.4,5.1,11.4,9l-12.9,11.5
		c-3.7-4.7-8.1-7.1-13.2-7.1c-4.3,0-7.7,1.4-10.3,4.1c-2.6,2.7-3.9,6.4-3.9,11C139.1,252.4,140.4,256.1,143,258.8z M244.9,278h-20.4
		v-22.3h-18.8V278h-20.4v-60.5h20.4V239h18.8v-21.4h20.4V278z M300,278l-4.1-10.5h-23l-4.1,10.5h-20.7l26.4-60.5h20L321,278H300z
		 M372.5,233.4h-17.7V278h-20.4v-44.7h-17.7v-15.8h55.8V233.4z"/>
</g>
</svg>
