<?xml version="1.0" encoding="utf-8"?>
<!-- Generator: Adobe Illustrator 16.0.3, SVG Export Plug-In . SVG Version: 6.00 Build 0)  -->
<!DOCTYPE svg PUBLIC "-//W3C//DTD SVG 1.1//EN" "http://www.w3.org/Graphics/SVG/1.1/DTD/svg11.dtd">
<svg version="1.1" id="Layer_1" xmlns="http://www.w3.org/2000/svg" xmlns:xlink="http://www.w3.org/1999/xlink" x="0px" y="0px"
	 width="500px" height="500px" viewBox="0 0 500 500" enable-background="new 0 0 500 500" xml:space="preserve">
<path d="M441.147,461.971c-17.864,8.242-38.083,4.097-53.482-11.252c-39.946-39.819-79.962-79.574-119.563-119.736
	c-5.876-5.957-8.751-5.492-14.329,0.155c-39.89,40.368-80.073,80.447-120.316,120.464c-14.84,14.758-35.12,18.469-52.779,10.283
	c-17.984-8.341-28.259-26.402-26.481-46.754c1.05-12.021,6.881-21.574,15.297-29.955c39.973-39.797,79.709-79.827,119.896-119.403
	c5.597-5.513,5.426-8.069-0.044-13.462c-40.648-40.1-81.119-80.383-121.241-121.009C44.553,107.451,51.209,69.755,80.752,56.19
	c17.953-8.244,38.164-4.212,53.54,11.1c39.967,39.802,79.95,79.589,119.569,119.732c5.735,5.813,8.605,5.773,14.318-0.014
	c40.121-40.627,80.567-80.937,121.074-121.18c14-13.909,33.881-17.844,51.021-10.019c17.755,8.109,26.854,22.401,27.774,39.583
	c0.032,15.955-5.235,27.198-14.839,36.765c-40.199,40.062-80.168,80.354-120.583,120.194c-5.629,5.55-5.378,8.083,0.112,13.498
	c40.647,40.099,81.063,80.438,121.217,121.038C477.448,410.634,470.768,448.297,441.147,461.971z"/>
</svg>
