<?xml version="1.0" encoding="utf-8"?>
<!-- Generator: Adobe Illustrator 16.0.3, SVG Export Plug-In . SVG Version: 6.00 Build 0)  -->
<!DOCTYPE svg PUBLIC "-//W3C//DTD SVG 1.1//EN" "http://www.w3.org/Graphics/SVG/1.1/DTD/svg11.dtd">
<svg version="1.1" id="Layer_1" xmlns="http://www.w3.org/2000/svg" xmlns:xlink="http://www.w3.org/1999/xlink" x="0px" y="0px"
	 width="500px" height="500px" viewBox="0 0 500 500" enable-background="new 0 0 500 500" xml:space="preserve">
<path fill="#FFC84F" d="M74.968,91.885c-11.655,0-21.135,9.48-21.135,21.126v204.13c0,11.655,9.48,21.136,21.135,21.136h27.64
	v50.892l50.883-50.892h270.933c11.655,0,21.134-9.48,21.134-21.136v-204.13c0-11.646-9.479-21.126-21.134-21.126H74.968z
	 M89.561,420.662v-69.338H74.968c-18.846,0-34.183-15.335-34.183-34.183v-204.13c0-18.837,15.337-34.173,34.183-34.173h349.455
	c18.846,0,34.183,15.336,34.183,34.173v204.13c0,18.848-15.337,34.183-34.183,34.183H158.898L89.561,420.662z"/>
<rect x="93.146" y="133.85" fill="#FFC84F" width="316.836" height="21.602"/>
<rect x="93.146" y="176.454" fill="#FFC84F" width="316.836" height="21.603"/>
<rect x="93.146" y="219.039" fill="#FFC84F" width="316.836" height="21.602"/>
<rect x="93.146" y="261.634" fill="#FFC84F" width="147.956" height="21.593"/>
</svg>
