<?xml version="1.0" encoding="utf-8"?>
<!-- Generator: Adobe Illustrator 24.1.1, SVG Export Plug-In . SVG Version: 6.00 Build 0)  -->
<svg version="1.1" id="Layer_1" xmlns="http://www.w3.org/2000/svg" xmlns:xlink="http://www.w3.org/1999/xlink" x="0px" y="0px"
	 viewBox="0 0 500 500" style="enable-background:new 0 0 500 500;" xml:space="preserve">
<style type="text/css">
	.st0{fill:#FFFFFF;}
</style>
<path class="st0" d="M75,91.9c-11.7,0-21.1,9.5-21.1,21.1v204.1c0,11.7,9.5,21.1,21.1,21.1h27.6v50.9l50.9-50.9h270.9
	c11.7,0,21.1-9.5,21.1-21.1V113c0-11.6-9.5-21.1-21.1-21.1L75,91.9L75,91.9z M89.6,420.7v-69.3H75c-18.8,0-34.2-15.3-34.2-34.2V113
	c0-18.8,15.3-34.2,34.2-34.2h349.5c18.8,0,34.2,15.3,34.2,34.2v204.1c0,18.8-15.3,34.2-34.2,34.2H158.9L89.6,420.7z"/>
<rect x="93.1" y="133.9" class="st0" width="316.8" height="21.6"/>
<rect x="93.1" y="176.5" class="st0" width="316.8" height="21.6"/>
<rect x="93.1" y="219" class="st0" width="316.8" height="21.6"/>
<rect x="93.1" y="261.6" class="st0" width="148" height="21.6"/>
</svg>
