<svg width="500" height="500" xmlns="http://www.w3.org/2000/svg">

 <g>
  <title>background</title>
  <rect fill="none" id="canvas_background" height="402" width="582" y="-1" x="-1"/>
 </g>
 <g>
  <title>Layer 1</title>
  <path id="svg_1" d="m74.968,91.885c-11.655,0 -21.135,9.48 -21.135,21.126l0,204.13c0,11.655 9.48,21.136 21.135,21.136l27.64,0l0,50.892l50.883,-50.892l270.933,0c11.655,0 21.134,-9.48 21.134,-21.136l0,-204.13c0,-11.646 -9.479,-21.126 -21.134,-21.126l-349.456,0zm14.593,328.777l0,-69.338l-14.593,0c-18.846,0 -34.183,-15.335 -34.183,-34.183l0,-204.13c0,-18.837 15.337,-34.173 34.183,-34.173l349.455,0c18.846,0 34.183,15.336 34.183,34.173l0,204.13c0,18.848 -15.337,34.183 -34.183,34.183l-265.525,0l-69.337,69.338z" fill="#e1dddd"/>
  <rect id="svg_2" height="21.602" width="316.836" fill="#e1dddd" y="133.85" x="93.146"/>
  <rect id="svg_3" height="21.603" width="316.836" fill="#e1dddd" y="176.454" x="93.146"/>
  <rect id="svg_4" height="21.602" width="316.836" fill="#e1dddd" y="219.039" x="93.146"/>
  <rect id="svg_5" height="21.593" width="147.956" fill="#e1dddd" y="261.634" x="93.146"/>
 </g>
</svg>