<?xml version="1.0" encoding="utf-8"?>
<!-- Generator: Adobe Illustrator 16.0.3, SVG Export Plug-In . SVG Version: 6.00 Build 0)  -->
<!DOCTYPE svg PUBLIC "-//W3C//DTD SVG 1.1//EN" "http://www.w3.org/Graphics/SVG/1.1/DTD/svg11.dtd">
<svg version="1.1" id="Layer_1" xmlns="http://www.w3.org/2000/svg" xmlns:xlink="http://www.w3.org/1999/xlink" x="0px" y="0px"
	 width="500px" height="500px" viewBox="0 0 500 500" enable-background="new 0 0 500 500" xml:space="preserve">
<g>
	<path fill-rule="evenodd" clip-rule="evenodd" d="M378.567,242c-0.011,0-0.019,0-0.027,0c0-46-0.015-92.042,0.007-137.96
		c0.007-14.459-13.168-28.546-27.695-28.594c-49.883-0.167-99.765-0.104-149.646-0.148c-2.82-0.003-5.199,0.412-7.4,2.462
		c-27.999,26.085-56.039,52.116-84.152,78.078c-3.014,2.784-4.117,6.109-4.105,9.885c0.12,39.745,0.365,79.486,0.462,119.23
		c0.074,30.373,0.208,60.748-0.138,91.118c-0.145,12.737,6.056,23.897,17.446,29.136c5.396,2.481,11.042,2.143,16.709,2.143
		c69.637-0.005,139.274,0.013,208.913,0.016c15.836,0,29.573-12.66,29.6-27.807C378.616,333.638,378.567,288,378.567,242z
		 M195.972,96.756c0,19.564-0.076,37.278,0.053,54.991c0.032,4.361-1.687,6.127-6.012,6.108
		c-19.367-0.085-38.735-0.038-60.028-0.038C152.385,137.09,173.533,117.519,195.972,96.756z M362.885,378.293
		c-0.015,10.222-3.615,13.957-13.72,13.967c-71.366,0.066-142.733,0.063-214.099,0.002c-9.965-0.009-13.68-3.608-13.694-13.184
		c-0.098-66.921-0.044-133.842-0.276-200.763c-0.018-5.11,2.064-5.387,6.072-5.356c20.989,0.162,41.979,0.086,62.97,0.111
		c12.938,0.016,21.573-8.961,21.441-21.859c-0.187-18.272,0.104-36.549-0.243-54.817c-0.097-5.123,1.706-6.068,6.344-6.052
		c42.227,0.155,84.454,0.085,126.681,0.106c2.218,0.001,4.44,0.17,6.651,0.355c8.619,0.716,11.847,3.965,11.858,12.646
		c0.067,45.93,0.031,91.862,0.036,137.792C362.91,286.926,362.942,332.609,362.885,378.293z"/>
	<path fill-rule="evenodd" clip-rule="evenodd" d="M317.145,194.176c-1.821-0.04-3.676,0.114-5.517,0.114
		c-19.483-0.003-112.156-0.003-131.638,0c-1.839,0-3.688-0.151-5.517,0.014c-3.061,0.276-4.634,2.258-4.859,5.012
		c-0.231,2.861,1.456,4.909,4.225,5.629c1.734,0.452,3.648,0.285,5.481,0.288c28.372,0.01,104.606-0.001,132.978-0.012
		c1.833-0.003,3.748,0.146,5.481-0.306c2.77-0.721,4.456-2.801,4.226-5.663C321.779,196.5,320.217,194.244,317.145,194.176z"/>
	<path fill-rule="evenodd" clip-rule="evenodd" d="M317.166,224.923c-1.822-0.04-3.678,0.114-5.519,0.114
		c-19.484-0.004-112.171-0.004-131.656,0c-1.839,0-3.688-0.151-5.517,0.014c-3.061,0.276-4.635,2.258-4.86,5.012
		c-0.231,2.861,1.456,4.909,4.226,5.629c1.734,0.452,3.649,0.285,5.482,0.288c28.376,0.01,104.621-0.001,132.996-0.012
		c1.834-0.003,3.749,0.146,5.483-0.306c2.769-0.721,4.456-2.802,4.225-5.663C321.801,227.246,320.238,224.99,317.166,224.923z"/>
	<path fill-rule="evenodd" clip-rule="evenodd" d="M317.166,254.669c-1.822-0.04-3.678,0.114-5.519,0.114
		c-19.484-0.004-112.171-0.004-131.656,0c-1.839,0-3.688-0.15-5.517,0.014c-3.061,0.277-4.635,2.258-4.86,5.013
		c-0.231,2.86,1.456,4.909,4.226,5.63c1.734,0.451,3.649,0.284,5.482,0.287c28.376,0.01,104.621-0.002,132.996-0.012
		c1.834-0.002,3.749,0.146,5.483-0.306c2.769-0.721,4.456-2.802,4.225-5.663C321.801,256.992,320.238,254.736,317.166,254.669z"/>
	<path fill-rule="evenodd" clip-rule="evenodd" d="M317.166,283.669c-1.822-0.04-3.678,0.114-5.519,0.114
		c-19.484-0.004-112.171-0.004-131.656,0c-1.839,0-3.688-0.15-5.517,0.014c-3.061,0.277-4.635,2.258-4.86,5.013
		c-0.231,2.86,1.456,4.909,4.226,5.63c1.734,0.451,3.649,0.284,5.482,0.287c28.376,0.01,104.621-0.002,132.996-0.012
		c1.834-0.002,3.749,0.146,5.483-0.306c2.769-0.721,4.456-2.802,4.225-5.663C321.801,285.992,320.238,283.736,317.166,283.669z"/>
	<path fill-rule="evenodd" clip-rule="evenodd" d="M318.792,163.43c-1.198-0.04-2.419,0.114-3.629,0.114
		c-12.82-0.003-73.805-0.003-86.625,0c-1.21,0-2.427-0.151-3.63,0.014c-2.014,0.276-3.05,2.258-3.198,5.012
		c-0.151,2.861,0.958,4.909,2.78,5.63c1.142,0.451,2.401,0.285,3.608,0.288c18.669,0.01,68.836-0.001,87.507-0.011
		c1.205-0.003,2.464,0.145,3.604-0.306c1.822-0.721,2.934-2.802,2.781-5.663C321.843,165.753,320.814,163.497,318.792,163.43z"/>
	<path fill-rule="evenodd" clip-rule="evenodd" d="M318.792,134.683c-1.198-0.04-2.419,0.115-3.629,0.115
		c-12.82-0.004-73.805-0.004-86.625,0c-1.21,0-2.427-0.151-3.63,0.014c-2.014,0.276-3.05,2.258-3.198,5.012
		c-0.151,2.861,0.958,4.909,2.78,5.629c1.142,0.452,2.401,0.285,3.608,0.288c18.669,0.01,68.836-0.001,87.507-0.012
		c1.205-0.003,2.464,0.146,3.604-0.306c1.822-0.721,2.934-2.802,2.781-5.663C321.843,137.007,320.814,134.75,318.792,134.683z"/>
</g>
</svg>
