<?xml version="1.0" encoding="utf-8"?>
<!-- Generator: Adobe Illustrator 24.1.1, SVG Export Plug-In . SVG Version: 6.00 Build 0)  -->
<svg version="1.1" id="Layer_1" xmlns="http://www.w3.org/2000/svg" xmlns:xlink="http://www.w3.org/1999/xlink" x="0px" y="0px"
	 viewBox="0 0 500 500" style="enable-background:new 0 0 500 500;" xml:space="preserve">
<g>
	<g>
		<path d="M448.8,251C448.7,251,448.7,251,448.8,251c0-67-0.1-134,0-200.9c0-21.1-19.2-41.6-40.3-41.6
			c-72.6-0.2-145.3-0.2-217.9-0.2c-4.1,0-7.6,0.6-10.8,3.6C139,49.8,98.1,87.7,57.2,125.5c-4.4,4.1-6,8.9-6,14.4
			c0.2,57.9,0.5,115.7,0.7,173.6c0.1,44.2,0.3,88.5-0.2,132.7c-0.2,18.5,8.8,34.8,25.4,42.4c7.9,3.6,16.1,3.1,24.3,3.1
			c101.4,0,202.8,0,304.2,0c23.1,0,43.1-18.4,43.1-40.5C448.8,384.4,448.8,318,448.8,251z M182.9,39.5c0,28.5-0.1,54.3,0.1,80.1
			c0,6.3-2.5,8.9-8.8,8.9c-28.2-0.1-56.4-0.1-87.4-0.1C119.4,98.2,150.2,69.7,182.9,39.5z M425.9,449.4c0,14.9-5.3,20.3-20,20.3
			c-103.9,0.1-207.8,0.1-311.7,0c-14.5,0-19.9-5.3-19.9-19.2c-0.1-97.4-0.1-194.9-0.4-292.3c0-7.4,3-7.8,8.8-7.8
			c30.6,0.2,61.1,0.1,91.7,0.2c18.8,0,31.4-13,31.2-31.8c-0.3-26.6,0.2-53.2-0.4-79.8c-0.1-7.5,2.5-8.8,9.2-8.8
			c61.5,0.2,123,0.1,184.5,0.2c3.2,0,6.5,0.2,9.7,0.5c12.5,1,17.3,5.8,17.3,18.4c0.1,66.9,0,133.8,0.1,200.6
			C426,316.4,426,382.9,425.9,449.4z"/>
	</g>
	<rect x="114.1" y="304.8" width="83" height="34.9"/>
	<rect x="204.4" y="304.8" width="83" height="34.9"/>
	<rect x="294.7" y="304.8" width="83" height="34.9"/>
	<rect x="114.1" y="347.1" width="83" height="34.9"/>
	<rect x="204.4" y="347.1" width="83" height="34.9"/>
	<rect x="294.7" y="347.1" width="83" height="34.9"/>
	<rect x="114.1" y="389.3" width="83" height="34.9"/>
	<rect x="204.4" y="389.3" width="83" height="34.9"/>
	<rect x="294.7" y="389.3" width="83" height="34.9"/>
	<rect x="249.5" y="128.7" width="18.9" height="96.1"/>
	<polygon points="258.3,218.9 286,218.9 272.1,235 258.3,251 244.4,235 230.5,218.9 	"/>
	<rect x="211.7" y="259.7" width="93.2" height="13.1"/>
</g>
</svg>
