<?xml version="1.0" encoding="utf-8"?>
<!-- Generator: Adobe Illustrator 16.0.3, SVG Export Plug-In . SVG Version: 6.00 Build 0)  -->
<!DOCTYPE svg PUBLIC "-//W3C//DTD SVG 1.1//EN" "http://www.w3.org/Graphics/SVG/1.1/DTD/svg11.dtd">
<svg version="1.1" id="Layer_1" xmlns="http://www.w3.org/2000/svg" xmlns:xlink="http://www.w3.org/1999/xlink" x="0px" y="0px"
	 width="500px" height="500px" viewBox="0 0 500 500" enable-background="new 0 0 500 500" xml:space="preserve">
<path fill="#0F8981" d="M249.936,12.252C118.451,12.276,12.004,118.77,11.989,250.3c-0.015,130.951,106.783,237.479,238.05,237.448
	c131.251-0.03,238.019-106.618,237.957-237.557C487.934,118.706,381.401,12.227,249.936,12.252z M198.286,337.309
	c-12.514,3.031-25.013,6.045-37.524,9.078c-4.232,1.027-5.762,0.475-7.762-3.141c0-0.982,0-1.969,0-2.949
	c1-4.553,2.229-9.318,3.297-13.992c2.647-11.586,5.148-23.195,7.654-34.457c14.372,14.348,28.84,28.782,43.313,43.232
	C204.549,335.755,201.425,336.547,198.286,337.309z M323.243,220.77c-36.12,36.054-72.203,72.144-108.294,108.223
	c-0.44,0.438-0.912,0.849-1.417,1.313c-0.365-0.348-0.667-0.625-0.956-0.916c-13.944-13.951-27.866-27.924-41.863-41.82
	c-1.276-1.268-0.366-1.703,0.348-2.418c23.973-23.977,47.945-47.952,71.918-71.928c12.062-12.063,24.145-24.104,36.16-36.212
	c1.219-1.23,1.816-1.488,3.201-0.09c13.584,13.715,27.241,27.357,40.94,40.958C324.481,219.073,324.37,219.645,323.243,220.77z
	 M357,183.502c-2,5.8-6.069,9.52-10.108,13.548c-4.972,4.955-9.928,9.897-14.849,14.903c-0.921,0.937-1.396,1.051-2.398,0.042
	c-13.813-13.885-27.668-27.718-41.504-41.577c-0.515-0.514-1.509-0.896-0.437-1.949c6.263-6.143,12.222-12.622,18.764-18.45
	c8.25-7.352,18.95-6.893,26.891,0.761c6.468,6.235,12.658,12.701,19.04,19.026c2.335,2.318,3.603,5.226,4.603,8.219
	C357,179.851,357,181.676,357,183.502z"/>
</svg>
