<?xml version="1.0" standalone="no"?>
<!DOCTYPE svg PUBLIC "-//W3C//DTD SVG 20010904//EN"
 "http://www.w3.org/TR/2001/REC-SVG-20010904/DTD/svg10.dtd">
<svg version="1.0" xmlns="http://www.w3.org/2000/svg"
 width="96.000000pt" height="96.000000pt" viewBox="0 0 96.000000 96.000000"
 preserveAspectRatio="xMidYMid meet">

<g transform="translate(0.000000,96.000000) scale(0.100000,-0.100000)"
fill="#000000" stroke="none">
<path d="M305 791 c-132 -61 -165 -222 -68 -328 19 -21 30 -39 24 -41 -7 -2
-33 -21 -60 -42 -54 -43 -96 -117 -107 -187 -7 -43 -6 -43 25 -43 22 0 31 5
31 16 0 108 125 224 240 224 115 0 240 -116 240 -224 0 -11 9 -16 31 -16 31 0
32 0 25 43 -11 70 -53 144 -107 187 -27 21 -53 40 -60 42 -6 2 5 20 24 41 73
80 75 193 4 274 -61 69 -161 92 -242 54z m155 -61 c45 -23 80 -80 80 -130 0
-76 -74 -150 -151 -150 -73 0 -149 76 -149 150 0 48 35 107 78 129 48 26 93
26 142 1z"/>
<path d="M660 660 l0 -150 30 0 30 0 0 75 0 75 72 0 72 0 -32 33 c-18 18 -32
37 -32 42 0 5 14 24 32 42 l32 33 -102 0 -102 0 0 -150z"/>
</g>
</svg>
