<?xml version="1.0" encoding="utf-8"?>
<!-- Generator: Adobe Illustrator 24.1.1, SVG Export Plug-In . SVG Version: 6.00 Build 0)  -->
<svg version="1.1" id="Capa_1" xmlns="http://www.w3.org/2000/svg" xmlns:xlink="http://www.w3.org/1999/xlink" x="0px" y="0px"
	 viewBox="0 0 1000 600" style="enable-background:new 0 0 1000 600;" xml:space="preserve">
<style type="text/css">
	.st0{fill:#408420;}
	.st1{fill:#61B33E;}
</style>
<g>
	<g>
		<polygon class="st0" points="657.4,551.2 654.6,447.7 953,447.7 		"/>
	</g>
	<g>
		<g>
			<path class="st1" d="M89.8,62.8C66.7,62.8,48,81.5,48,104.6v302.3c0,23.1,18.7,41.8,41.8,41.8H953V62.8H89.8z M355.8,338.4h-47.1
				l-64.5-77.2v77.2h-55.8V168.5h47.1l64.5,77.2v-77.2h55.8V338.4z M526.3,338.4H385.1V168.5h138.1v43.2h-81.8v19.9h71.8v41.3h-71.8
				v22.3h84.9V338.4z M769.7,338.4h-61.4l-27.4-90.8L652,338.4h-61.4l-54.4-169.9h59l29.6,96.6l31.3-96.6h52.7l29.6,97.8l31.3-97.8
				h54.4L769.7,338.4z"/>
		</g>
	</g>
</g>
</svg>
