<?xml version="1.0" encoding="utf-8"?>
<!-- Generator: Adobe Illustrator 24.1.1, SVG Export Plug-In . SVG Version: 6.00 Build 0)  -->
<svg version="1.1" id="Layer_1" xmlns="http://www.w3.org/2000/svg" xmlns:xlink="http://www.w3.org/1999/xlink" x="0px" y="0px"
	 viewBox="0 0 500 500" style="enable-background:new 0 0 500 500;" xml:space="preserve">
<style type="text/css">
	.st0{fill-rule:evenodd;clip-rule:evenodd;}
</style>
<g>
	<g>
		<path d="M455.4,251C455.4,251,455.4,251,455.4,251c0-65.7-0.1-131.5,0-197.1c0-20.7-18.8-40.8-39.6-40.8
			c-71.3-0.2-142.5-0.1-213.7-0.2c-4,0-7.4,0.6-10.6,3.5c-40,37.3-80,74.4-120.2,111.5c-4.3,4-5.9,8.7-5.9,14.1
			c0.2,56.8,0.5,113.5,0.7,170.3c0.1,43.4,0.3,86.8-0.2,130.1c-0.2,18.2,8.7,34.1,24.9,41.6c7.7,3.5,15.8,3.1,23.9,3.1
			c99.5,0,198.9,0,298.4,0c22.6,0,42.2-18.1,42.3-39.7C455.5,381.8,455.4,316.7,455.4,251z M194.6,43.5c0,27.9-0.1,53.2,0.1,78.5
			c0,6.2-2.4,8.8-8.6,8.7c-27.7-0.1-55.3-0.1-85.7-0.1C132.3,101.1,162.6,73.2,194.6,43.5z M433,445.6c0,14.6-5.2,19.9-19.6,19.9
			c-101.9,0.1-203.9,0.1-305.8,0c-14.2,0-19.5-5.2-19.6-18.8C87.9,351.2,88,255.6,87.7,160c0-7.3,2.9-7.7,8.7-7.7
			c30,0.2,60,0.1,89.9,0.2c18.5,0,30.8-12.8,30.6-31.2c-0.3-26.1,0.1-52.2-0.3-78.3c-0.1-7.3,2.4-8.7,9.1-8.6
			c60.3,0.2,120.6,0.1,180.9,0.2c3.2,0,6.3,0.2,9.5,0.5c12.3,1,16.9,5.7,16.9,18.1c0.1,65.6,0,131.2,0.1,196.8
			C433.1,315.1,433.1,380.4,433,445.6z"/>
	</g>
	<g>
		<path class="st0" d="M243.6,219.5c-0.1-0.8,0.5-1.1,0.9-1.5c13.3-13.3,26.6-26.6,39.9-39.9c7.9-7.9,17.3-13.2,28.3-15.3
			c15.9-3,30.7,0.1,43.8,9.9c11,8.2,18,19.1,20.9,32.5c2.4,11.5,1.4,22.8-3.5,33.7c-3,6.7-7.3,12.5-12.5,17.7
			c-14.6,14.6-29.2,29.3-43.8,43.8c-12,11.9-26.5,17.3-43.3,16.2c-12.8-0.9-24-5.9-33.5-14.7c-1.2-1.1-1.1-1.7,0-2.8
			c4.9-4.8,9.7-9.7,14.5-14.5c2.2-2.2,4.4-4.3,6.6-6.6c0.9-0.9,1.5-1,2.5-0.1c8.4,7.4,22,6.5,29.9-1.6c14.8-15.2,30-29.9,44.8-45.1
			c11.1-11.3,5.8-30.9-9.4-35c-8.2-2.2-15.3-0.5-21.3,5.5c-6.8,6.7-13.5,13.4-20.2,20.2c-1.1,1.1-2,1.3-3.4,0.7
			c-7-3.1-14.3-4.6-22-4.9c-5.8-0.3-11.5,0.5-17.2,1.7C245,219.5,244.3,219.8,243.6,219.5z"/>
		<path class="st0" d="M294.9,322.4c-2,2.1-3.5,3.8-5.2,5.5c-9.6,9.6-19.1,19.2-28.7,28.9c-5,5-9.7,10.3-15.7,14.2
			c-8.4,5.5-17.6,8.5-27.7,8.9c-11.3,0.5-21.7-2.1-31.3-8c-9.2-5.7-16.1-13.4-20.8-23.2c-4.2-8.9-5.8-18.2-5.1-28
			c0.9-11.9,5.1-22.7,13.3-31.5c16-17,32.5-33.5,49.4-49.6c13.6-12.9,30.2-17.2,48.8-13.4c10.1,2.1,18.7,6.8,26.2,13.8
			c0.9,0.9,0.9,1.4,0,2.3c-7.2,7.1-14.3,14.3-21.5,21.5c-0.8,0.8-1.4,0.9-2.2,0.1c-7.4-7.2-21.7-7-29.7,1.3
			c-13.6,14.1-27.6,27.8-41.5,41.6c-1.7,1.7-3.6,3.3-5.1,5.3c-8.1,10.8-4.8,25.9,7.2,32.1c8.3,4.2,17.9,2.7,24.2-3.4
			c6.8-6.5,13.4-13.2,20-19.9c1.1-1.1,2-1.4,3.4-0.8c4.1,1.7,8.3,3.3,12.7,4.3c7.5,1.6,14.9,1,22.3-0.6
			C290.1,323.2,292.2,322.6,294.9,322.4z"/>
	</g>
</g>
</svg>
