<?xml version="1.0" encoding="utf-8"?>
<!-- Generator: Adobe Illustrator 16.0.3, SVG Export Plug-In . SVG Version: 6.00 Build 0)  -->
<!DOCTYPE svg PUBLIC "-//W3C//DTD SVG 1.1//EN" "http://www.w3.org/Graphics/SVG/1.1/DTD/svg11.dtd">
<svg version="1.1" id="Layer_1" xmlns="http://www.w3.org/2000/svg" xmlns:xlink="http://www.w3.org/1999/xlink" x="0px" y="0px"
	 width="500px" height="500px" viewBox="0 0 500 500" enable-background="new 0 0 500 500" xml:space="preserve">
<path fill="#0F8981" d="M250.936,12.252C119.451,12.276,13.004,118.77,12.989,250.3c-0.015,130.951,106.783,237.479,238.05,237.448
	c131.251-0.03,238.019-106.618,237.957-237.557C488.934,118.706,382.401,12.227,250.936,12.252z M337.219,347.146
	c-8.551,3.946-18.229,1.961-25.6-5.385c-19.12-19.06-38.273-38.088-57.229-57.312c-2.812-2.851-4.188-2.628-6.858,0.075
	c-19.093,19.322-38.327,38.506-57.589,57.66c-7.103,7.063-16.81,8.84-25.263,4.922c-8.608-3.992-13.526-12.638-12.675-22.379
	c0.503-5.754,3.294-10.326,7.322-14.338c19.133-19.049,38.153-38.209,57.388-57.152c2.679-2.639,2.597-3.863-0.021-6.444
	c-19.456-19.194-38.828-38.475-58.032-57.921c-11.273-11.416-8.087-29.459,6.054-35.952c8.593-3.946,18.267-2.016,25.627,5.313
	c19.13,19.051,38.268,38.095,57.231,57.31c2.746,2.782,4.119,2.763,6.854-0.007c19.204-19.446,38.563-38.74,57.952-58.003
	c6.701-6.657,16.217-8.541,24.421-4.795c8.498,3.881,12.853,10.722,13.294,18.946c0.015,7.637-2.506,13.018-7.103,17.598
	c-19.241,19.175-38.372,38.461-57.717,57.53c-2.694,2.657-2.574,3.869,0.054,6.462c19.456,19.193,38.801,38.502,58.021,57.934
	C354.594,322.574,351.396,340.602,337.219,347.146z"/>
</svg>
