<?xml version="1.0" encoding="utf-8"?>
<!-- Generator: Adobe Illustrator 24.1.1, SVG Export Plug-In . SVG Version: 6.00 Build 0)  -->
<svg version="1.1" id="Layer_1" xmlns="http://www.w3.org/2000/svg" xmlns:xlink="http://www.w3.org/1999/xlink" x="0px" y="0px"
	 viewBox="0 0 500 500" style="enable-background:new 0 0 500 500;" xml:space="preserve">
<style type="text/css">
	.st0{fill:#0F8981;}
</style>
<g>
	<path class="st0" d="M292.3,138.2c0-0.6-0.5-1.1-1.1-1.1h-77.6c-0.6,0-1.1,0.5-1.1,1.1v13.1h79.8V138.2z"/>
	<path class="st0" d="M251,11.7c-131.4,0-238,106.6-238,238s106.6,238,238,238s238-106.6,238-238S382.4,11.7,251,11.7z M164.7,159.3
		c0-4.4,3.8-8,8.6-8h24.7v-15.5c0-7.3,6-13.3,13.3-13.3h82.4c7.3,0,13.3,6,13.3,13.3v15.5h24.8c4.7,0,8.6,3.6,8.6,8v0
		c0,4.4-3.8,8-8.6,8H173.3C168.5,167.4,164.7,163.8,164.7,159.3L164.7,159.3z M300.4,194.4L293.6,319c-0.3,4.8-4.3,8.4-9.1,8.2
		c-4.8-0.3-8.4-4.3-8.2-9.1l6.7-124.6c0.3-4.8,4.3-8.4,9.1-8.2C297,185.5,300.6,189.6,300.4,194.4z M260,192.6v124.8
		c0,4.8-3.9,8.6-8.6,8.6h0c-4.8,0-8.6-3.9-8.6-8.6V192.6c0-4.8,3.9-8.6,8.6-8.6C256.2,184,260,187.9,260,192.6z M227.1,318
		c0.2,4.8-3.6,8.8-8.3,9c-4.8,0.2-8.8-3.6-9-8.3l-4.5-124.7c-0.2-4.8,3.6-8.8,8.3-9s8.8,3.6,9,8.3L227.1,318z M340.4,194.7
		l-9.8,153.2c-0.3,4.3-3.8,7.7-8,7.7h-140c-4.2,0-7.7-3.4-8-7.7l-9.9-153.4c-0.3-4.5,3.1-8.5,7.5-8.8h0c4.4-0.3,8.2,3.1,8.5,7.7
		l9.2,142.2c0.1,2,1.7,3.5,3.7,3.5h118.1c1.9,0,3.5-1.5,3.7-3.5l9-141.9c0.3-4.5,4.1-8,8.5-7.7S340.6,190.1,340.4,194.7z"/>
</g>
</svg>
