<?xml version="1.0" encoding="utf-8"?>
<!-- Generator: Adobe Illustrator 22.0.1, SVG Export Plug-In . SVG Version: 6.00 Build 0)  -->
<svg version="1.1" id="Layer_1" xmlns="http://www.w3.org/2000/svg" xmlns:xlink="http://www.w3.org/1999/xlink" x="0px" y="0px"
	 viewBox="0 0 500 500" style="enable-background:new 0 0 500 500;" xml:space="preserve">
<style type="text/css">
	.st0{fill:#0F8981;}
</style>
<g>
	<path class="st0" d="M250,13.3c-130.9,0-237,106.1-237,237s106.1,237,237,237s237-106.1,237-237S380.9,13.3,250,13.3z M353.8,340.9
		c0,3.3-2.7,6-6,6H164.5c-3.3,0-6-2.7-6-6V150.7c0-3.3,2.7-6,6-6h163.2c1.5,0,2.9,0.6,4,1.5l20,18.1c1.3,1.1,2,2.7,2,4.4
		L353.8,340.9L353.8,340.9z"/>
	<path class="st0" d="M327.4,329.5H184.8c-1.7,0-3-1.3-3-3v-94.1c0-1.7,1.3-3,3-3h142.6c1.7,0,3,1.3,3,3v94.1
		C330.4,328.2,329.1,329.5,327.4,329.5z"/>
	<path class="st0" d="M205.1,144.7v65.2c0,1.7,1.3,3,3,3h96.7c1.7,0,3-1.3,3-3v-65.2L205.1,144.7L205.1,144.7z M289,200.8
		c0,0.6-0.5,1.2-1.2,1.2h-21c-0.6,0-1.2-0.5-1.2-1.2v-47.4c0-0.6,0.5-1.2,1.2-1.2h21c0.6,0,1.2,0.5,1.2,1.2V200.8z"/>
</g>
</svg>
