<?xml version="1.0" encoding="utf-8"?>
<!-- Generator: Adobe Illustrator 16.0.0, SVG Export Plug-In . SVG Version: 6.00 Build 0)  -->
<!DOCTYPE svg PUBLIC "-//W3C//DTD SVG 1.1//EN" "http://www.w3.org/Graphics/SVG/1.1/DTD/svg11.dtd">
<svg version="1.1" id="Layer_1" xmlns="http://www.w3.org/2000/svg" xmlns:xlink="http://www.w3.org/1999/xlink" x="0px" y="0px"
	 width="768px" height="1024px" viewBox="0 0 768 1024" enable-background="new 0 0 768 1024" xml:space="preserve">
<g>
	<path fill-rule="evenodd" clip-rule="evenodd" d="M563.878,515.587c-1.357,4.082-4.021,7.208-7.026,10.208
		c-40.01,39.938-79.974,79.922-119.93,119.913c-3.028,3.03-6.229,5.517-10.76,5.836c-7.942,0.559-14.891-5.209-15.595-13.154
		c-0.133-1.505-0.16-3.024-0.161-4.538c-0.01-19.582-0.075-39.164,0.065-58.745c0.022-3.014-0.621-3.886-3.79-3.873
		c-31.937,0.136-63.875,0.081-95.812,0.086c-2.453,0.001-4.905-0.038-7.26-0.802c-6.313-2.049-10.215-7.604-10.231-15.069
		c-0.062-28.44-0.089-56.881,0.01-85.321c0.035-10.087,6.282-15.85,16.785-15.857c32.054-0.021,64.108-0.067,96.161,0.079
		c3.436,0.016,4.177-0.905,4.148-4.23c-0.168-20.046,0.103-40.098-0.159-60.143c-0.138-10.584,8.549-17.342,17.234-15.793
		c3.889,0.694,6.693,3.019,9.364,5.692c31.305,31.334,62.627,62.651,93.944,93.973c8.654,8.655,17.259,17.359,25.988,25.938
		c3.029,2.977,5.65,6.136,7.022,10.207C563.878,511.856,563.878,513.722,563.878,515.587z"/>
	<path fill-rule="evenodd" clip-rule="evenodd" d="M205.7,423.944c1.808-4.724,2.255-9.794,4.009-14.574
		c8.731-23.792,32.241-41.82,57.604-42.498c25.512-0.681,51.055-0.266,76.584-0.248c4.643,0.003,7.606,2.699,7.926,7.165
		c0.333,4.641,0.605,9.303,0.039,13.964c-0.746,6.148-2.872,8.118-9.094,8.123c-23.199,0.018-46.405,0.361-69.594-0.101
		c-19.978-0.398-33.625,13.973-36.942,26.87c-0.966,3.756-1.24,7.582-1.24,11.433c-0.01,52.459,0.251,104.921-0.137,157.377
		c-0.149,20.03,14.083,33.845,27.18,37.066c3.873,0.953,7.822,1.179,11.793,1.178c22.033-0.005,44.066-0.004,66.099,0.003
		c1.398,0,2.813-0.057,4.19,0.128c4.997,0.67,7.532,1.936,7.775,7.737c0.19,4.537,0.521,9.077-0.046,13.617
		c-0.717,5.736-2.91,7.791-8.651,7.796c-23.898,0.02-47.798,0.162-71.694-0.033c-33.176-0.272-59.728-23.215-65.072-55.917
		c-0.09-0.552,0.007-1.187-0.729-1.396C205.7,542.403,205.7,483.174,205.7,423.944z"/>
</g>
</svg>
